Martel Sans-Light.ufo
<glyph name="exclam" format="1">
  <advance width="250"/>
  <unicode hex="0021"/>
  <outline>
    <contour>
      <point x="142" y="174" type="line"/>
      <point x="152" y="680" type="line"/>
      <point x="88" y="680" type="line"/>
      <point x="108" y="174" type="line"/>
    </contour>
    <contour>
      <point x="149" y="-10"/>
      <point x="168" y="9"/>
      <point x="168" y="32" type="curve" smooth="yes"/>
      <point x="168" y="55"/>
      <point x="149" y="75"/>
      <point x="125" y="75" type="curve" smooth="yes"/>
      <point x="102" y="75"/>
      <point x="83" y="55"/>
      <point x="83" y="32" type="curve" smooth="yes"/>
      <point x="83" y="9"/>
      <point x="102" y="-10"/>
      <point x="125" y="-10" type="curve" smooth="yes"/>
    </contour>
  </outline>
</glyph>
<glyph name="numbersign" format="1">
  <advance width="605"/>
  <unicode hex="0023"/>
  <outline>
    <contour>
      <point x="325" y="0" type="line"/>
      <point x="534" y="680" type="line"/>
      <point x="490" y="680" type="line"/>
      <point x="281" y="0" type="line"/>
    </contour>
    <contour>
      <point x="115" y="0" type="line"/>
      <point x="324" y="680" type="line"/>
      <point x="280" y="680" type="line"/>
      <point x="71" y="0" type="line"/>
    </contour>
    <contour>
      <point x="495" y="201" type="line"/>
      <point x="509" y="245" type="line"/>
      <point x="36" y="245" type="line"/>
      <point x="23" y="201" type="line"/>
    </contour>
    <contour>
      <point x="569" y="435" type="line"/>
      <point x="582" y="479" type="line"/>
      <point x="110" y="479" type="line"/>
      <point x="96" y="435" type="line"/>
    </contour>
  </outline>
</glyph>
<glyph name="dollar" format="1">
  <advance width="500"/>
  <unicode hex="0024"/>
  <outline>
    <contour>
      <point x="373" y="13"/>
      <point x="464" y="83"/>
      <point x="464" y="189" type="curve" smooth="yes"/>
      <point x="464" y="417"/>
      <point x="116" y="327"/>
      <point x="116" y="503" type="curve" smooth="yes"/>
      <point x="116" y="581"/>
      <point x="182" y="618"/>
      <point x="256" y="618" type="curve" smooth="yes"/>
      <point x="325" y="618"/>
      <point x="388" y="594"/>
      <point x="438" y="551" type="curve"/>
      <point x="468" y="593" type="line"/>
      <point x="409" y="639"/>
      <point x="346" y="664"/>
      <point x="256" y="664" type="curve" smooth="yes"/>
      <point x="151" y="664"/>
      <point x="62" y="610"/>
      <point x="62" y="502" type="curve" smooth="yes"/>
      <point x="62" y="271"/>
      <point x="409" y="367"/>
      <point x="409" y="189" type="curve" smooth="yes"/>
      <point x="409" y="109"/>
      <point x="344" y="59"/>
      <point x="257" y="59" type="curve" smooth="yes"/>
      <point x="175" y="59"/>
      <point x="111" y="83"/>
      <point x="64" y="127" type="curve"/>
      <point x="33" y="84" type="line"/>
      <point x="92" y="38"/>
      <point x="151" y="13"/>
      <point x="257" y="13" type="curve" smooth="yes"/>
    </contour>
    <contour>
      <point x="296" y="-77" type="line"/>
      <point x="296" y="327" type="line"/>
      <point x="296" y="352" type="line"/>
      <point x="296" y="754" type="line"/>
      <point x="243" y="754" type="line"/>
      <point x="243" y="369" type="line"/>
      <point x="243" y="336" type="line"/>
      <point x="243" y="-77" type="line"/>
    </contour>
  </outline>
</glyph>
<glyph name="ampersand" format="1">
  <advance width="714"/>
  <unicode hex="0026"/>
  <outline>
    <contour>
      <point x="642" y="-8"/>
      <point x="659" y="-5"/>
      <point x="674" y="0" type="curve"/>
      <point x="663" y="44" type="line"/>
      <point x="652" y="41"/>
      <point x="641" y="39"/>
      <point x="626" y="39" type="curve" smooth="yes"/>
      <point x="600" y="39"/>
      <point x="581" y="57"/>
      <point x="552" y="89" type="curve" smooth="yes"/>
      <point x="282" y="388" type="line" smooth="yes"/>
      <point x="217" y="459"/>
      <point x="196" y="492"/>
      <point x="196" y="547" type="curve" smooth="yes"/>
      <point x="196" y="599"/>
      <point x="227" y="648"/>
      <point x="303" y="648" type="curve" smooth="yes"/>
      <point x="372" y="648"/>
      <point x="404" y="604"/>
      <point x="404" y="560" type="curve"/>
      <point x="404" y="484"/>
      <point x="366" y="438"/>
      <point x="260" y="394" type="curve"/>
      <point x="286" y="358" type="line"/>
      <point x="413" y="412"/>
      <point x="460" y="471"/>
      <point x="460" y="560" type="curve"/>
      <point x="460" y="630"/>
      <point x="407" y="694"/>
      <point x="303" y="694" type="curve" smooth="yes"/>
      <point x="192" y="694"/>
      <point x="140" y="625"/>
      <point x="140" y="547" type="curve" smooth="yes"/>
      <point x="140" y="476"/>
      <point x="171" y="438"/>
      <point x="246" y="354" type="curve" smooth="yes"/>
      <point x="511" y="60" type="line" smooth="yes"/>
      <point x="559" y="6"/>
      <point x="580" y="-8"/>
      <point x="626" y="-8" type="curve" smooth="yes"/>
    </contour>
    <contour>
      <point x="455" y="-15"/>
      <point x="580" y="184"/>
      <point x="650" y="433" type="curve"/>
      <point x="603" y="446" type="line"/>
      <point x="535" y="211"/>
      <point x="427" y="31"/>
      <point x="265" y="31" type="curve"/>
      <point x="159" y="31"/>
      <point x="106" y="97"/>
      <point x="106" y="167" type="curve" smooth="yes"/>
      <point x="106" y="241"/>
      <point x="138" y="287"/>
      <point x="269" y="352" type="curve"/>
      <point x="244" y="389" type="line"/>
      <point x="97" y="318"/>
      <point x="50" y="254"/>
      <point x="50" y="162" type="curve" smooth="yes"/>
      <point x="50" y="69"/>
      <point x="126" y="-15"/>
      <point x="265" y="-15" type="curve"/>
    </contour>
  </outline>
</glyph>
<glyph name="quotesingle" format="1">
  <advance width="250"/>
  <unicode hex="0027"/>
  <outline>
    <contour>
      <point x="151" y="495" type="line"/>
      <point x="157" y="741" type="line"/>
      <point x="93" y="741" type="line"/>
      <point x="109" y="495" type="line"/>
    </contour>
  </outline>
</glyph>
<glyph name="parenleft" format="1">
  <advance width="290"/>
  <unicode hex="0028"/>
  <outline>
    <contour>
      <point x="257" y="-101" type="line"/>
      <point x="172" y="-20"/>
      <point x="111" y="134"/>
      <point x="111" y="294" type="curve"/>
      <point x="111" y="454"/>
      <point x="172" y="608"/>
      <point x="257" y="689" type="curve"/>
      <point x="227" y="714" type="line"/>
      <point x="138" y="627"/>
      <point x="57" y="481"/>
      <point x="57" y="294" type="curve"/>
      <point x="57" y="107"/>
      <point x="138" y="-39"/>
      <point x="227" y="-126" type="curve"/>
    </contour>
  </outline>
</glyph>
<glyph name="parenright" format="1">
  <advance width="290"/>
  <unicode hex="0029"/>
  <outline>
    <contour>
      <point x="152" y="-39"/>
      <point x="233" y="107"/>
      <point x="233" y="294" type="curve"/>
      <point x="233" y="481"/>
      <point x="152" y="627"/>
      <point x="63" y="714" type="curve"/>
      <point x="33" y="689" type="line"/>
      <point x="118" y="608"/>
      <point x="179" y="454"/>
      <point x="179" y="294" type="curve"/>
      <point x="179" y="134"/>
      <point x="118" y="-20"/>
      <point x="33" y="-101" type="curve"/>
      <point x="63" y="-126" type="line"/>
    </contour>
  </outline>
</glyph>
<glyph name="asterisk" format="1">
  <advance width="466"/>
  <unicode hex="002A"/>
  <outline>
    <contour>
      <point x="372" y="334" type="line"/>
      <point x="246" y="489" type="line"/>
      <point x="218" y="469" type="line"/>
      <point x="329" y="302" type="line"/>
    </contour>
    <contour>
      <point x="246" y="471" type="line"/>
      <point x="218" y="491" type="line"/>
      <point x="94" y="334" type="line"/>
      <point x="137" y="302" type="line"/>
    </contour>
    <contour>
      <point x="239" y="497" type="line"/>
      <point x="51" y="567" type="line"/>
      <point x="34" y="516" type="line"/>
      <point x="228" y="465" type="line"/>
    </contour>
    <contour>
      <point x="251" y="480" type="line"/>
      <point x="260" y="680" type="line"/>
      <point x="206" y="680" type="line"/>
      <point x="217" y="480" type="line"/>
    </contour>
    <contour>
      <point x="432" y="516" type="line"/>
      <point x="415" y="567" type="line"/>
      <point x="228" y="495" type="line"/>
      <point x="239" y="463" type="line"/>
    </contour>
  </outline>
</glyph>
<glyph name="period" format="1">
  <advance width="251"/>
  <unicode hex="002E"/>
  <outline>
    <contour>
      <point x="149" y="-10"/>
      <point x="168" y="9"/>
      <point x="168" y="32" type="curve" smooth="yes"/>
      <point x="168" y="55"/>
      <point x="149" y="75"/>
      <point x="125" y="75" type="curve" smooth="yes"/>
      <point x="102" y="75"/>
      <point x="83" y="55"/>
      <point x="83" y="32" type="curve" smooth="yes"/>
      <point x="83" y="9"/>
      <point x="102" y="-10"/>
      <point x="125" y="-10" type="curve" smooth="yes"/>
    </contour>
  </outline>
</glyph>
<glyph name="slash" format="1">
  <advance width="328"/>
  <unicode hex="002F"/>
  <outline>
    <contour>
      <point x="48" y="-236" type="line"/>
      <point x="336" y="708" type="line"/>
      <point x="279" y="708" type="line"/>
      <point x="-8" y="-236" type="line"/>
    </contour>
  </outline>
</glyph>
<glyph name="zero" format="1">
  <advance width="500"/>
  <unicode hex="0030"/>
  <outline>
    <contour>
      <point x="406" y="-15"/>
      <point x="475" y="148"/>
      <point x="475" y="346" type="curve"/>
      <point x="475" y="538"/>
      <point x="406" y="694"/>
      <point x="250" y="694" type="curve"/>
      <point x="94" y="694"/>
      <point x="25" y="538"/>
      <point x="25" y="346" type="curve"/>
      <point x="25" y="148"/>
      <point x="94" y="-15"/>
      <point x="250" y="-15" type="curve"/>
    </contour>
    <contour>
      <point x="126" y="31"/>
      <point x="81" y="181"/>
      <point x="81" y="346" type="curve"/>
      <point x="81" y="504"/>
      <point x="126" y="648"/>
      <point x="250" y="648" type="curve"/>
      <point x="374" y="648"/>
      <point x="419" y="504"/>
      <point x="419" y="346" type="curve"/>
      <point x="419" y="181"/>
      <point x="374" y="31"/>
      <point x="250" y="31" type="curve"/>
    </contour>
  </outline>
</glyph>
<glyph name="one" format="1">
  <advance width="500"/>
  <unicode hex="0031"/>
  <outline>
    <contour>
      <point x="292" y="647" type="line"/>
      <point x="260" y="680" type="line"/>
      <point x="93" y="523" type="line"/>
      <point x="125" y="489" type="line"/>
    </contour>
    <contour>
      <point x="447" y="0" type="line"/>
      <point x="447" y="46" type="line"/>
      <point x="108" y="46" type="line"/>
      <point x="108" y="0" type="line"/>
    </contour>
    <contour>
      <point x="305" y="0" type="line"/>
      <point x="305" y="680" type="line"/>
      <point x="260" y="680" type="line"/>
      <point x="250" y="661" type="line"/>
      <point x="250" y="0" type="line"/>
    </contour>
  </outline>
</glyph>
<glyph name="two" format="1">
  <advance width="500"/>
  <unicode hex="0032"/>
  <outline>
    <contour>
      <point x="460" y="0" type="line"/>
      <point x="460" y="46" type="line"/>
      <point x="116" y="46" type="line"/>
      <point x="116" y="48" type="line"/>
      <point x="239" y="168" type="line" smooth="yes"/>
      <point x="390" y="315"/>
      <point x="434" y="406"/>
      <point x="434" y="498" type="curve" smooth="yes"/>
      <point x="434" y="620"/>
      <point x="359" y="692"/>
      <point x="238" y="692" type="curve" smooth="yes"/>
      <point x="151" y="692"/>
      <point x="85" y="655"/>
      <point x="24" y="572" type="curve"/>
      <point x="57" y="544" type="line"/>
      <point x="121" y="619"/>
      <point x="166" y="646"/>
      <point x="238" y="646" type="curve" smooth="yes"/>
      <point x="322" y="646"/>
      <point x="378" y="592"/>
      <point x="378" y="499" type="curve" smooth="yes"/>
      <point x="378" y="420"/>
      <point x="342" y="334"/>
      <point x="210" y="206" type="curve" smooth="yes"/>
      <point x="34" y="35" type="line"/>
      <point x="34" y="0" type="line"/>
    </contour>
  </outline>
</glyph>
<glyph name="three" format="1">
  <advance width="501"/>
  <unicode hex="0033"/>
  <outline>
    <contour>
      <point x="375" y="-22"/>
      <point x="463" y="75"/>
      <point x="463" y="190" type="curve" smooth="yes"/>
      <point x="463" y="315"/>
      <point x="344" y="385"/>
      <point x="230" y="358" type="curve"/>
      <point x="233" y="342" type="line"/>
      <point x="344" y="372"/>
      <point x="426" y="433"/>
      <point x="426" y="538" type="curve" smooth="yes"/>
      <point x="426" y="630"/>
      <point x="358" y="689"/>
      <point x="255" y="689" type="curve" smooth="yes"/>
      <point x="178" y="689"/>
      <point x="98" y="649"/>
      <point x="39" y="569" type="curve"/>
      <point x="72" y="541" type="line"/>
      <point x="134" y="614"/>
      <point x="194" y="643"/>
      <point x="255" y="643" type="curve" smooth="yes"/>
      <point x="327" y="643"/>
      <point x="370" y="600"/>
      <point x="370" y="539" type="curve" smooth="yes"/>
      <point x="370" y="424"/>
      <point x="278" y="391"/>
      <point x="135" y="355" type="curve"/>
      <point x="146" y="312" type="line"/>
      <point x="182" y="323"/>
      <point x="215" y="328"/>
      <point x="245" y="328" type="curve" smooth="yes"/>
      <point x="348" y="328"/>
      <point x="407" y="271"/>
      <point x="407" y="189" type="curve" smooth="yes"/>
      <point x="407" y="91"/>
      <point x="334" y="24"/>
      <point x="234" y="24" type="curve" smooth="yes"/>
      <point x="155" y="24"/>
      <point x="108" y="41"/>
      <point x="48" y="106" type="curve"/>
      <point x="18" y="73" type="line"/>
      <point x="76" y="-2"/>
      <point x="142" y="-22"/>
      <point x="234" y="-22" type="curve" smooth="yes"/>
    </contour>
  </outline>
</glyph>
<glyph name="four" format="1">
  <advance width="499"/>
  <unicode hex="0034"/>
  <outline>
    <contour>
      <point x="184" y="386" type="line"/>
      <point x="331" y="592" type="line"/>
      <point x="340" y="604" type="line"/>
      <point x="373" y="651" type="line"/>
      <point x="335" y="680" type="line"/>
      <point x="17" y="233" type="line"/>
      <point x="55" y="204" type="line"/>
    </contour>
    <contour>
      <point x="492" y="197" type="line"/>
      <point x="492" y="243" type="line"/>
      <point x="40" y="243" type="line"/>
      <point x="17" y="233" type="line"/>
      <point x="17" y="197" type="line"/>
    </contour>
    <contour>
      <point x="380" y="0" type="line"/>
      <point x="380" y="680" type="line"/>
      <point x="335" y="680" type="line"/>
      <point x="325" y="661" type="line"/>
      <point x="325" y="377" type="line"/>
      <point x="325" y="0" type="line"/>
    </contour>
  </outline>
</glyph>
<glyph name="five" format="1">
  <advance width="501"/>
  <unicode hex="0035"/>
  <outline>
    <contour>
      <point x="385" y="-22"/>
      <point x="473" y="76"/>
      <point x="473" y="199" type="curve" smooth="yes"/>
      <point x="473" y="315"/>
      <point x="394" y="399"/>
      <point x="255" y="399" type="curve" smooth="yes"/>
      <point x="203" y="399"/>
      <point x="144" y="384"/>
      <point x="113" y="367" type="curve"/>
      <point x="131" y="353" type="line"/>
      <point x="151" y="652" type="line"/>
      <point x="130" y="633" type="line"/>
      <point x="455" y="633" type="line"/>
      <point x="455" y="680" type="line"/>
      <point x="101" y="680" type="line"/>
      <point x="74" y="332" type="line"/>
      <point x="98" y="318" type="line"/>
      <point x="152" y="342"/>
      <point x="202" y="353"/>
      <point x="255" y="353" type="curve" smooth="yes"/>
      <point x="358" y="353"/>
      <point x="417" y="292"/>
      <point x="417" y="199" type="curve" smooth="yes"/>
      <point x="417" y="91"/>
      <point x="344" y="24"/>
      <point x="239" y="24" type="curve" smooth="yes"/>
      <point x="165" y="24"/>
      <point x="118" y="41"/>
      <point x="58" y="106" type="curve"/>
      <point x="28" y="73" type="line"/>
      <point x="86" y="-2"/>
      <point x="152" y="-22"/>
      <point x="239" y="-22" type="curve" smooth="yes"/>
    </contour>
  </outline>
</glyph>
<glyph name="six" format="1">
  <advance width="500"/>
  <unicode hex="0036"/>
  <outline>
    <contour>
      <point x="388" y="-15"/>
      <point x="467" y="89"/>
      <point x="467" y="205" type="curve"/>
      <point x="467" y="301"/>
      <point x="395" y="399"/>
      <point x="267" y="399" type="curve" smooth="yes"/>
      <point x="168" y="399"/>
      <point x="81" y="336"/>
      <point x="55" y="248" type="curve"/>
      <point x="71" y="214" type="line"/>
      <point x="118" y="313"/>
      <point x="187" y="353"/>
      <point x="267" y="353" type="curve" smooth="yes"/>
      <point x="360" y="353"/>
      <point x="411" y="286"/>
      <point x="411" y="205" type="curve"/>
      <point x="411" y="111"/>
      <point x="359" y="31"/>
      <point x="250" y="31" type="curve" smooth="yes"/>
      <point x="154" y="31"/>
      <point x="89" y="104"/>
      <point x="89" y="250" type="curve" smooth="yes"/>
      <point x="89" y="457"/>
      <point x="217" y="588"/>
      <point x="431" y="651" type="curve"/>
      <point x="412" y="694" type="line"/>
      <point x="180" y="628"/>
      <point x="33" y="473"/>
      <point x="33" y="251" type="curve" smooth="yes"/>
      <point x="33" y="78"/>
      <point x="123" y="-15"/>
      <point x="250" y="-15" type="curve" smooth="yes"/>
    </contour>
  </outline>
</glyph>
<glyph name="eight" format="1">
  <advance width="500"/>
  <unicode hex="0038"/>
  <outline>
    <contour>
      <point x="399" y="-15"/>
      <point x="465" y="66"/>
      <point x="465" y="164" type="curve" smooth="yes"/>
      <point x="465" y="265"/>
      <point x="403" y="327"/>
      <point x="265" y="369" type="curve" smooth="yes"/>
      <point x="172" y="397"/>
      <point x="111" y="438"/>
      <point x="111" y="525" type="curve" smooth="yes"/>
      <point x="111" y="589"/>
      <point x="152" y="648"/>
      <point x="250" y="648" type="curve"/>
      <point x="348" y="648"/>
      <point x="389" y="589"/>
      <point x="389" y="530" type="curve"/>
      <point x="389" y="457"/>
      <point x="354" y="404"/>
      <point x="244" y="370" type="curve"/>
      <point x="262" y="335" type="line"/>
      <point x="397" y="381"/>
      <point x="445" y="434"/>
      <point x="445" y="530" type="curve"/>
      <point x="445" y="616"/>
      <point x="382" y="694"/>
      <point x="250" y="694" type="curve"/>
      <point x="118" y="694"/>
      <point x="55" y="616"/>
      <point x="55" y="525" type="curve" smooth="yes"/>
      <point x="55" y="436"/>
      <point x="99" y="378"/>
      <point x="245" y="329" type="curve" smooth="yes"/>
      <point x="346" y="295"/>
      <point x="409" y="258"/>
      <point x="409" y="164" type="curve" smooth="yes"/>
      <point x="409" y="95"/>
      <point x="366" y="31"/>
      <point x="250" y="31" type="curve"/>
      <point x="134" y="31"/>
      <point x="91" y="100"/>
      <point x="91" y="166" type="curve"/>
      <point x="91" y="247"/>
      <point x="151" y="308"/>
      <point x="248" y="336" type="curve"/>
      <point x="237" y="372" type="line"/>
      <point x="107" y="335"/>
      <point x="35" y="269"/>
      <point x="35" y="166" type="curve"/>
      <point x="35" y="71"/>
      <point x="101" y="-15"/>
      <point x="250" y="-15" type="curve"/>
    </contour>
  </outline>
</glyph>
<glyph name="nine" format="1">
  <advance width="500"/>
  <unicode hex="0039"/>
  <outline>
    <contour>
      <point x="320" y="51"/>
      <point x="467" y="206"/>
      <point x="467" y="428" type="curve" smooth="yes"/>
      <point x="467" y="601"/>
      <point x="377" y="694"/>
      <point x="250" y="694" type="curve" smooth="yes"/>
      <point x="112" y="694"/>
      <point x="33" y="590"/>
      <point x="33" y="474" type="curve"/>
      <point x="33" y="378"/>
      <point x="105" y="280"/>
      <point x="233" y="280" type="curve" smooth="yes"/>
      <point x="332" y="280"/>
      <point x="419" y="343"/>
      <point x="445" y="431" type="curve"/>
      <point x="429" y="465" type="line"/>
      <point x="382" y="366"/>
      <point x="313" y="326"/>
      <point x="233" y="326" type="curve" smooth="yes"/>
      <point x="140" y="326"/>
      <point x="89" y="393"/>
      <point x="89" y="474" type="curve"/>
      <point x="89" y="568"/>
      <point x="141" y="648"/>
      <point x="250" y="648" type="curve" smooth="yes"/>
      <point x="346" y="648"/>
      <point x="411" y="575"/>
      <point x="411" y="429" type="curve" smooth="yes"/>
      <point x="411" y="222"/>
      <point x="283" y="91"/>
      <point x="69" y="28" type="curve"/>
      <point x="88" y="-15" type="line"/>
    </contour>
  </outline>
</glyph>
<glyph name="colon" format="1">
  <advance width="250"/>
  <unicode hex="003A"/>
  <outline>
    <contour>
      <point x="149" y="390"/>
      <point x="168" y="409"/>
      <point x="168" y="432" type="curve" smooth="yes"/>
      <point x="168" y="455"/>
      <point x="149" y="475"/>
      <point x="125" y="475" type="curve" smooth="yes"/>
      <point x="102" y="475"/>
      <point x="83" y="455"/>
      <point x="83" y="432" type="curve" smooth="yes"/>
      <point x="83" y="409"/>
      <point x="102" y="390"/>
      <point x="125" y="390" type="curve" smooth="yes"/>
    </contour>
    <contour>
      <point x="149" y="-10"/>
      <point x="168" y="9"/>
      <point x="168" y="32" type="curve" smooth="yes"/>
      <point x="168" y="55"/>
      <point x="149" y="75"/>
      <point x="125" y="75" type="curve" smooth="yes"/>
      <point x="102" y="75"/>
      <point x="83" y="55"/>
      <point x="83" y="32" type="curve" smooth="yes"/>
      <point x="83" y="9"/>
      <point x="102" y="-10"/>
      <point x="125" y="-10" type="curve" smooth="yes"/>
    </contour>
  </outline>
</glyph>
<glyph name="semicolon" format="1">
  <advance width="250"/>
  <unicode hex="003B"/>
  <outline>
    <contour>
      <point x="135" y="-109"/>
      <point x="172" y="-30"/>
      <point x="148" y="63" type="curve"/>
      <point x="97" y="57" type="line"/>
      <point x="119" y="-24"/>
      <point x="103" y="-79"/>
      <point x="43" y="-117" type="curve"/>
      <point x="65" y="-146" type="line"/>
    </contour>
    <contour>
      <point x="149" y="390"/>
      <point x="168" y="409"/>
      <point x="168" y="432" type="curve" smooth="yes"/>
      <point x="168" y="455"/>
      <point x="149" y="475"/>
      <point x="125" y="475" type="curve" smooth="yes"/>
      <point x="102" y="475"/>
      <point x="83" y="455"/>
      <point x="83" y="432" type="curve" smooth="yes"/>
      <point x="83" y="409"/>
      <point x="102" y="390"/>
      <point x="125" y="390" type="curve" smooth="yes"/>
    </contour>
  </outline>
</glyph>
<glyph name="less" format="1">
  <advance width="500"/>
  <unicode hex="003C"/>
  <outline>
    <contour>
      <point x="467" y="79" type="line"/>
      <point x="76" y="274" type="line"/>
      <point x="76" y="258" type="line"/>
      <point x="467" y="453" type="line"/>
      <point x="467" y="503" type="line"/>
      <point x="33" y="286" type="line"/>
      <point x="33" y="247" type="line"/>
      <point x="467" y="29" type="line"/>
    </contour>
  </outline>
</glyph>
<glyph name="equal" format="1">
  <advance width="500"/>
  <unicode hex="003D"/>
  <outline>
    <contour>
      <point x="467" y="339" type="line"/>
      <point x="467" y="383" type="line"/>
      <point x="33" y="383" type="line"/>
      <point x="33" y="339" type="line"/>
    </contour>
    <contour>
      <point x="467" y="149" type="line"/>
      <point x="467" y="193" type="line"/>
      <point x="33" y="193" type="line"/>
      <point x="33" y="149" type="line"/>
    </contour>
  </outline>
</glyph>
<glyph name="greater" format="1">
  <advance width="500"/>
  <unicode hex="003E"/>
  <outline>
    <contour>
      <point x="467" y="246" type="line"/>
      <point x="467" y="285" type="line"/>
      <point x="33" y="503" type="line"/>
      <point x="33" y="453" type="line"/>
      <point x="424" y="258" type="line"/>
      <point x="424" y="274" type="line"/>
      <point x="33" y="79" type="line"/>
      <point x="33" y="29" type="line"/>
    </contour>
  </outline>
</glyph>
<glyph name="question" format="1">
  <advance width="431"/>
  <unicode hex="003F"/>
  <outline>
    <contour>
      <point x="152" y="174" type="line"/>
      <point x="156" y="299" type="line"/>
      <point x="277" y="326"/>
      <point x="365" y="384"/>
      <point x="365" y="495" type="curve" smooth="yes"/>
      <point x="365" y="593"/>
      <point x="294" y="681"/>
      <point x="71" y="681" type="curve"/>
      <point x="71" y="637" type="line"/>
      <point x="272" y="637"/>
      <point x="311" y="565"/>
      <point x="311" y="496" type="curve" smooth="yes"/>
      <point x="311" y="398"/>
      <point x="247" y="359"/>
      <point x="112" y="333" type="curve"/>
      <point x="118" y="174" type="line"/>
    </contour>
    <contour>
      <point x="159" y="-10"/>
      <point x="178" y="9"/>
      <point x="178" y="32" type="curve" smooth="yes"/>
      <point x="178" y="55"/>
      <point x="159" y="75"/>
      <point x="135" y="75" type="curve" smooth="yes"/>
      <point x="112" y="75"/>
      <point x="93" y="55"/>
      <point x="93" y="32" type="curve" smooth="yes"/>
      <point x="93" y="9"/>
      <point x="112" y="-10"/>
      <point x="135" y="-10" type="curve" smooth="yes"/>
    </contour>
  </outline>
</glyph>
<glyph name="at" format="1">
  <advance width="807"/>
  <unicode hex="0040"/>
  <outline>
    <contour>
      <point x="495" y="-91"/>
      <point x="558" y="-67"/>
      <point x="638" y="-8" type="curve"/>
      <point x="615" y="25" type="line"/>
      <point x="542" y="-27"/>
      <point x="480" y="-49"/>
      <point x="402" y="-49" type="curve" smooth="yes"/>
      <point x="245" y="-49"/>
      <point x="107" y="75"/>
      <point x="107" y="251" type="curve" smooth="yes"/>
      <point x="107" y="442"/>
      <point x="229" y="575"/>
      <point x="418" y="575" type="curve" smooth="yes"/>
      <point x="564" y="575"/>
      <point x="700" y="477"/>
      <point x="700" y="320" type="curve" smooth="yes"/>
      <point x="700" y="178"/>
      <point x="631" y="120"/>
      <point x="567" y="120" type="curve" smooth="yes"/>
      <point x="547" y="120"/>
      <point x="533" y="128"/>
      <point x="533" y="148" type="curve" smooth="yes"/>
      <point x="533" y="336" type="line" smooth="yes"/>
      <point x="533" y="418"/>
      <point x="503" y="460"/>
      <point x="419" y="460" type="curve" smooth="yes"/>
      <point x="360" y="460"/>
      <point x="310" y="428"/>
      <point x="268" y="375" type="curve"/>
      <point x="301" y="344" type="line"/>
      <point x="348" y="403"/>
      <point x="377" y="416"/>
      <point x="420" y="416" type="curve" smooth="yes"/>
      <point x="475" y="416"/>
      <point x="484" y="375"/>
      <point x="484" y="337" type="curve" smooth="yes"/>
      <point x="484" y="147" type="line" smooth="yes"/>
      <point x="484" y="104"/>
      <point x="518" y="79"/>
      <point x="563" y="79" type="curve" smooth="yes"/>
      <point x="655" y="79"/>
      <point x="747" y="160"/>
      <point x="747" y="321" type="curve" smooth="yes"/>
      <point x="747" y="497"/>
      <point x="602" y="617"/>
      <point x="417" y="617" type="curve" smooth="yes"/>
      <point x="202" y="617"/>
      <point x="60" y="459"/>
      <point x="60" y="252" type="curve" smooth="yes"/>
      <point x="60" y="44"/>
      <point x="229" y="-91"/>
      <point x="401" y="-91" type="curve" smooth="yes"/>
    </contour>
    <contour>
      <point x="406" y="79"/>
      <point x="456" y="109"/>
      <point x="500" y="148" type="curve"/>
      <point x="497" y="190" type="line"/>
      <point x="444" y="148"/>
      <point x="404" y="122"/>
      <point x="362" y="122" type="curve" smooth="yes"/>
      <point x="337" y="122"/>
      <point x="316" y="132"/>
      <point x="316" y="163" type="curve" smooth="yes"/>
      <point x="316" y="209"/>
      <point x="369" y="228"/>
      <point x="497" y="261" type="curve"/>
      <point x="497" y="304" type="line"/>
      <point x="354" y="265"/>
      <point x="267" y="243"/>
      <point x="267" y="163" type="curve" smooth="yes"/>
      <point x="267" y="114"/>
      <point x="305" y="79"/>
      <point x="361" y="79" type="curve" smooth="yes"/>
    </contour>
  </outline>
</glyph>
<glyph name="A" format="1">
  <advance width="629"/>
  <unicode hex="0041"/>
  <outline>
    <contour>
      <point x="80" y="0" type="line"/>
      <point x="317" y="619" type="line"/>
      <point x="309" y="619" type="line"/>
      <point x="547" y="0" type="line"/>
      <point x="604" y="0" type="line"/>
      <point x="338" y="689" type="line"/>
      <point x="290" y="689" type="line"/>
      <point x="25" y="0" type="line"/>
    </contour>
    <contour>
      <point x="474" y="234" type="line"/>
      <point x="474" y="280" type="line"/>
      <point x="154" y="280" type="line"/>
      <point x="154" y="234" type="line"/>
    </contour>
    <contour>
      <point x="315" y="730" type="move" name="top"/>
    </contour>
    <contour>
      <point x="550" y="-10" type="move" name="bottom"/>
    </contour>
  </outline>
</glyph>
<glyph name="B" format="1">
  <advance width="608"/>
  <unicode hex="0042"/>
  <outline>
    <contour>
      <point x="330" y="0" type="line"/>
      <point x="481" y="0"/>
      <point x="558" y="83"/>
      <point x="558" y="189" type="curve"/>
      <point x="558" y="292"/>
      <point x="488" y="365"/>
      <point x="350" y="365" type="curve"/>
      <point x="149" y="365" type="line"/>
      <point x="149" y="334" type="line"/>
      <point x="330" y="334" type="line"/>
      <point x="441" y="334"/>
      <point x="502" y="286"/>
      <point x="502" y="190" type="curve"/>
      <point x="502" y="104"/>
      <point x="441" y="46"/>
      <point x="330" y="46" type="curve"/>
      <point x="149" y="46" type="line"/>
      <point x="149" y="0" type="line"/>
    </contour>
    <contour>
      <point x="176" y="0" type="line"/>
      <point x="176" y="680" type="line"/>
      <point x="120" y="680" type="line"/>
      <point x="120" y="0" type="line"/>
    </contour>
    <contour>
      <point x="350" y="349" type="line"/>
      <point x="468" y="349"/>
      <point x="528" y="418"/>
      <point x="528" y="504" type="curve"/>
      <point x="528" y="607"/>
      <point x="461" y="680"/>
      <point x="330" y="680" type="curve"/>
      <point x="149" y="680" type="line"/>
      <point x="149" y="634" type="line"/>
      <point x="330" y="634" type="line"/>
      <point x="422" y="634"/>
      <point x="472" y="591"/>
      <point x="472" y="505" type="curve"/>
      <point x="472" y="430"/>
      <point x="422" y="380"/>
      <point x="330" y="380" type="curve"/>
      <point x="149" y="380" type="line"/>
      <point x="149" y="349" type="line"/>
    </contour>
  </outline>
</glyph>
<glyph name="C" format="1">
  <advance width="698"/>
  <unicode hex="0043"/>
  <outline>
    <contour>
      <point x="508" y="-16"/>
      <point x="593" y="45"/>
      <point x="648" y="113" type="curve"/>
      <point x="614" y="146" type="line"/>
      <point x="562" y="81"/>
      <point x="491" y="30"/>
      <point x="387" y="30" type="curve"/>
      <point x="210" y="30"/>
      <point x="116" y="164"/>
      <point x="116" y="340" type="curve"/>
      <point x="116" y="513"/>
      <point x="214" y="647"/>
      <point x="401" y="647" type="curve"/>
      <point x="474" y="647"/>
      <point x="552" y="616"/>
      <point x="596" y="562" type="curve"/>
      <point x="634" y="596" type="line"/>
      <point x="579" y="659"/>
      <point x="493" y="694"/>
      <point x="401" y="694" type="curve"/>
      <point x="170" y="694"/>
      <point x="60" y="527"/>
      <point x="60" y="341" type="curve"/>
      <point x="60" y="154"/>
      <point x="165" y="-16"/>
      <point x="387" y="-16" type="curve"/>
    </contour>
    <contour>
      <point x="389" y="730" type="move" name="top"/>
    </contour>
    <contour>
      <point x="395" y="-10" type="move" name="bottom"/>
    </contour>
  </outline>
</glyph>
<glyph name="D" format="1">
  <advance width="718"/>
  <unicode hex="0044"/>
  <outline>
    <contour>
      <point x="340" y="0" type="line"/>
      <point x="550" y="0"/>
      <point x="658" y="145"/>
      <point x="658" y="341" type="curve"/>
      <point x="658" y="532"/>
      <point x="550" y="680"/>
      <point x="340" y="680" type="curve"/>
      <point x="149" y="680" type="line"/>
      <point x="149" y="634" type="line"/>
      <point x="340" y="634" type="line"/>
      <point x="510" y="634"/>
      <point x="602" y="515"/>
      <point x="602" y="340" type="curve"/>
      <point x="602" y="162"/>
      <point x="510" y="46"/>
      <point x="340" y="46" type="curve"/>
      <point x="149" y="46" type="line"/>
      <point x="149" y="0" type="line"/>
    </contour>
    <contour>
      <point x="176" y="0" type="line"/>
      <point x="176" y="680" type="line"/>
      <point x="120" y="680" type="line"/>
      <point x="120" y="0" type="line"/>
    </contour>
    <contour>
      <point x="353" y="730" type="move" name="top"/>
    </contour>
  </outline>
</glyph>
<glyph name="E" format="1">
  <advance width="579"/>
  <unicode hex="0045"/>
  <outline>
    <contour>
      <point x="176" y="0" type="line"/>
      <point x="176" y="680" type="line"/>
      <point x="120" y="680" type="line"/>
      <point x="120" y="0" type="line"/>
    </contour>
    <contour>
      <point x="519" y="0" type="line"/>
      <point x="519" y="46" type="line"/>
      <point x="149" y="46" type="line"/>
      <point x="149" y="0" type="line"/>
    </contour>
    <contour>
      <point x="459" y="337" type="line"/>
      <point x="459" y="383" type="line"/>
      <point x="149" y="383" type="line"/>
      <point x="149" y="337" type="line"/>
    </contour>
    <contour>
      <point x="499" y="634" type="line"/>
      <point x="499" y="680" type="line"/>
      <point x="149" y="680" type="line"/>
      <point x="149" y="634" type="line"/>
    </contour>
    <contour>
      <point x="314" y="730" type="move" name="top"/>
    </contour>
    <contour>
      <point x="463" y="-10" type="move" name="bottom"/>
    </contour>
  </outline>
</glyph>
<glyph name="F" format="1">
  <advance width="529"/>
  <unicode hex="0046"/>
  <outline>
    <contour>
      <point x="176" y="0" type="line"/>
      <point x="176" y="680" type="line"/>
      <point x="120" y="680" type="line"/>
      <point x="120" y="0" type="line"/>
    </contour>
    <contour>
      <point x="459" y="327" type="line"/>
      <point x="459" y="373" type="line"/>
      <point x="149" y="373" type="line"/>
      <point x="149" y="327" type="line"/>
    </contour>
    <contour>
      <point x="499" y="634" type="line"/>
      <point x="499" y="680" type="line"/>
      <point x="149" y="680" type="line"/>
      <point x="149" y="634" type="line"/>
    </contour>
  </outline>
</glyph>
<glyph name="G" format="1">
  <advance width="714"/>
  <unicode hex="0047"/>
  <outline>
    <contour>
      <point x="499" y="-16"/>
      <point x="583" y="8"/>
      <point x="629" y="40" type="curve"/>
      <point x="595" y="74" type="line"/>
      <point x="555" y="47"/>
      <point x="482" y="30"/>
      <point x="387" y="30" type="curve"/>
      <point x="210" y="30"/>
      <point x="116" y="164"/>
      <point x="116" y="340" type="curve"/>
      <point x="116" y="513"/>
      <point x="214" y="647"/>
      <point x="401" y="647" type="curve"/>
      <point x="474" y="647"/>
      <point x="552" y="616"/>
      <point x="596" y="562" type="curve"/>
      <point x="634" y="596" type="line"/>
      <point x="579" y="659"/>
      <point x="493" y="694"/>
      <point x="401" y="694" type="curve"/>
      <point x="170" y="694"/>
      <point x="60" y="527"/>
      <point x="60" y="341" type="curve"/>
      <point x="60" y="154"/>
      <point x="165" y="-16"/>
      <point x="387" y="-16" type="curve"/>
    </contour>
    <contour>
      <point x="629" y="40" type="line"/>
      <point x="629" y="311" type="line"/>
      <point x="575" y="311" type="line"/>
      <point x="575" y="40" type="line"/>
    </contour>
    <contour>
      <point x="388" y="730" type="move" name="top"/>
    </contour>
    <contour>
      <point x="391" y="-10" type="move" name="bottom"/>
    </contour>
  </outline>
</glyph>
<glyph name="J" format="1">
  <advance width="296"/>
  <unicode hex="004A"/>
  <outline>
    <contour>
      <point x="124" y="-245"/>
      <point x="176" y="-164"/>
      <point x="176" y="-26" type="curve" smooth="yes"/>
      <point x="176" y="680" type="line"/>
      <point x="120" y="680" type="line"/>
      <point x="120" y="-24" type="line" smooth="yes"/>
      <point x="120" y="-140"/>
      <point x="89" y="-196"/>
      <point x="6" y="-196" type="curve" smooth="yes"/>
      <point x="-9" y="-196"/>
      <point x="-20" y="-194"/>
      <point x="-31" y="-191" type="curve"/>
      <point x="-42" y="-237" type="line"/>
      <point x="-27" y="-242"/>
      <point x="-10" y="-245"/>
      <point x="6" y="-245" type="curve" smooth="yes"/>
    </contour>
    <contour>
      <point x="148" y="730" type="move" name="top"/>
    </contour>
  </outline>
</glyph>
<glyph name="M" format="1">
  <advance width="858"/>
  <unicode hex="004D"/>
  <outline>
    <contour>
      <point x="176" y="0" type="line"/>
      <point x="176" y="261" type="line"/>
      <point x="176" y="597" type="line"/>
      <point x="165" y="593" type="line"/>
      <point x="413" y="242" type="line"/>
      <point x="445" y="242" type="line"/>
      <point x="693" y="593" type="line"/>
      <point x="682" y="597" type="line"/>
      <point x="682" y="261" type="line"/>
      <point x="682" y="0" type="line"/>
      <point x="738" y="0" type="line"/>
      <point x="738" y="680" type="line"/>
      <point x="692" y="680" type="line"/>
      <point x="418" y="292" type="line"/>
      <point x="440" y="292" type="line"/>
      <point x="166" y="680" type="line"/>
      <point x="120" y="680" type="line"/>
      <point x="120" y="0" type="line"/>
    </contour>
  </outline>
</glyph>
<glyph name="N" format="1">
  <advance width="755"/>
  <unicode hex="004E"/>
  <outline>
    <contour>
      <point x="635" y="0" type="line"/>
      <point x="635" y="680" type="line"/>
      <point x="579" y="680" type="line"/>
      <point x="579" y="383" type="line"/>
      <point x="579" y="64" type="line"/>
      <point x="600" y="71" type="line"/>
      <point x="166" y="680" type="line"/>
      <point x="120" y="680" type="line"/>
      <point x="120" y="0" type="line"/>
      <point x="176" y="0" type="line"/>
      <point x="176" y="334" type="line"/>
      <point x="176" y="613" type="line"/>
      <point x="155" y="606" type="line"/>
      <point x="589" y="-1" type="line"/>
    </contour>
    <contour>
      <point x="378" y="730" type="move" name="top"/>
    </contour>
    <contour>
      <point x="378" y="-10" type="move" name="bottom"/>
    </contour>
  </outline>
</glyph>
<glyph name="O" format="1">
  <advance width="756"/>
  <unicode hex="004F"/>
  <outline>
    <contour>
      <point x="588" y="-17"/>
      <point x="696" y="146"/>
      <point x="696" y="340" type="curve"/>
      <point x="696" y="530"/>
      <point x="588" y="694"/>
      <point x="378" y="694" type="curve"/>
      <point x="167" y="694"/>
      <point x="60" y="530"/>
      <point x="60" y="338" type="curve"/>
      <point x="60" y="146"/>
      <point x="167" y="-17"/>
      <point x="378" y="-17" type="curve"/>
    </contour>
    <contour>
      <point x="208" y="30"/>
      <point x="116" y="163"/>
      <point x="116" y="339" type="curve"/>
      <point x="116" y="512"/>
      <point x="208" y="647"/>
      <point x="378" y="647" type="curve"/>
      <point x="548" y="647"/>
      <point x="640" y="512"/>
      <point x="640" y="339" type="curve"/>
      <point x="640" y="163"/>
      <point x="548" y="30"/>
      <point x="378" y="30" type="curve"/>
    </contour>
    <contour>
      <point x="378" y="730" type="move" name="top"/>
    </contour>
    <contour>
      <point x="378" y="-10" type="move" name="bottom"/>
    </contour>
  </outline>
</glyph>
<glyph name="P" format="1">
  <advance width="588"/>
  <unicode hex="0050"/>
  <outline>
    <contour>
      <point x="330" y="300" type="line"/>
      <point x="481" y="300"/>
      <point x="558" y="379"/>
      <point x="558" y="491" type="curve"/>
      <point x="558" y="597"/>
      <point x="481" y="680"/>
      <point x="330" y="680" type="curve"/>
      <point x="149" y="680" type="line"/>
      <point x="149" y="634" type="line"/>
      <point x="330" y="634" type="line"/>
      <point x="441" y="634"/>
      <point x="502" y="576"/>
      <point x="502" y="490" type="curve"/>
      <point x="502" y="394"/>
      <point x="441" y="346"/>
      <point x="330" y="346" type="curve"/>
      <point x="149" y="346" type="line"/>
      <point x="149" y="300" type="line"/>
    </contour>
    <contour>
      <point x="176" y="0" type="line"/>
      <point x="176" y="680" type="line"/>
      <point x="120" y="680" type="line"/>
      <point x="120" y="0" type="line"/>
    </contour>
  </outline>
</glyph>
<glyph name="R" format="1">
  <advance width="656"/>
  <unicode hex="0052"/>
  <outline>
    <contour>
      <point x="330" y="320" type="line"/>
      <point x="337" y="323" type="line"/>
      <point x="476" y="325"/>
      <point x="548" y="397"/>
      <point x="548" y="501" type="curve"/>
      <point x="548" y="601"/>
      <point x="474" y="680"/>
      <point x="330" y="680" type="curve"/>
      <point x="149" y="680" type="line"/>
      <point x="149" y="634" type="line"/>
      <point x="330" y="634" type="line"/>
      <point x="435" y="634"/>
      <point x="492" y="580"/>
      <point x="492" y="500" type="curve"/>
      <point x="492" y="410"/>
      <point x="435" y="366"/>
      <point x="330" y="366" type="curve"/>
      <point x="149" y="366" type="line"/>
      <point x="149" y="320" type="line"/>
    </contour>
    <contour>
      <point x="176" y="0" type="line"/>
      <point x="176" y="680" type="line"/>
      <point x="120" y="680" type="line"/>
      <point x="120" y="0" type="line"/>
    </contour>
    <contour>
      <point x="606" y="0" type="line"/>
      <point x="359" y="339" type="line"/>
      <point x="295" y="339" type="line"/>
      <point x="542" y="0" type="line"/>
    </contour>
    <contour>
      <point x="298" y="730" type="move" name="top"/>
    </contour>
    <contour>
      <point x="328" y="-10" type="move" name="bottom"/>
    </contour>
  </outline>
</glyph>
<glyph name="S" format="1">
  <advance width="581"/>
  <unicode hex="0053"/>
  <outline>
    <contour>
      <point x="421" y="-17"/>
      <point x="521" y="57"/>
      <point x="521" y="176" type="curve" smooth="yes"/>
      <point x="521" y="409"/>
      <point x="144" y="335"/>
      <point x="144" y="516" type="curve" smooth="yes"/>
      <point x="144" y="607"/>
      <point x="214" y="647"/>
      <point x="293" y="647" type="curve" smooth="yes"/>
      <point x="362" y="647"/>
      <point x="425" y="623"/>
      <point x="475" y="580" type="curve"/>
      <point x="505" y="623" type="line"/>
      <point x="446" y="669"/>
      <point x="383" y="694"/>
      <point x="293" y="694" type="curve" smooth="yes"/>
      <point x="183" y="694"/>
      <point x="89" y="636"/>
      <point x="89" y="515" type="curve"/>
      <point x="89" y="283"/>
      <point x="465" y="358"/>
      <point x="465" y="176" type="curve"/>
      <point x="465" y="84"/>
      <point x="392" y="30"/>
      <point x="294" y="30" type="curve" smooth="yes"/>
      <point x="208" y="30"/>
      <point x="139" y="53"/>
      <point x="91" y="98" type="curve"/>
      <point x="60" y="54" type="line"/>
      <point x="121" y="7"/>
      <point x="183" y="-17"/>
      <point x="294" y="-17" type="curve" smooth="yes"/>
    </contour>
    <contour>
      <point x="290" y="730" type="move" name="top"/>
    </contour>
    <contour>
      <point x="301" y="-10" type="move" name="bottom"/>
    </contour>
  </outline>
</glyph>
<glyph name="U" format="1">
  <advance width="735"/>
  <unicode hex="0055"/>
  <outline>
    <contour>
      <point x="538" y="-17"/>
      <point x="625" y="95"/>
      <point x="625" y="249" type="curve" smooth="yes"/>
      <point x="625" y="680" type="line"/>
      <point x="569" y="680" type="line"/>
      <point x="569" y="248" type="line" smooth="yes"/>
      <point x="569" y="115"/>
      <point x="498" y="30"/>
      <point x="368" y="30" type="curve"/>
      <point x="237" y="30"/>
      <point x="166" y="115"/>
      <point x="166" y="248" type="curve" smooth="yes"/>
      <point x="166" y="680" type="line"/>
      <point x="110" y="680" type="line"/>
      <point x="110" y="247" type="line" smooth="yes"/>
      <point x="110" y="95"/>
      <point x="197" y="-17"/>
      <point x="368" y="-17" type="curve"/>
    </contour>
    <contour>
      <point x="368" y="730" type="move" name="top"/>
    </contour>
    <contour>
      <point x="449" y="-10" type="move" name="bottom"/>
    </contour>
  </outline>
</glyph>
<glyph name="W" format="1">
  <advance width="988"/>
  <unicode hex="0057"/>
  <outline>
    <contour>
      <point x="289" y="-9" type="line"/>
      <point x="497" y="607" type="line"/>
      <point x="483" y="607" type="line"/>
      <point x="690" y="-9" type="line"/>
      <point x="738" y="-9" type="line"/>
      <point x="953" y="680" type="line"/>
      <point x="898" y="680" type="line"/>
      <point x="711" y="61" type="line"/>
      <point x="719" y="61" type="line"/>
      <point x="511" y="680" type="line"/>
      <point x="469" y="680" type="line"/>
      <point x="262" y="61" type="line"/>
      <point x="270" y="61" type="line"/>
      <point x="92" y="680" type="line"/>
      <point x="35" y="680" type="line"/>
      <point x="241" y="-9" type="line"/>
    </contour>
    <contour>
      <point x="494" y="730" type="move" name="top"/>
    </contour>
    <contour>
      <point x="494" y="-10" type="move" name="bottom"/>
    </contour>
  </outline>
</glyph>
<glyph name="X" format="1">
  <advance width="687"/>
  <unicode hex="0058"/>
  <outline>
    <contour>
      <point x="114" y="0" type="line"/>
      <point x="351" y="323" type="line"/>
      <point x="373" y="339" type="line"/>
      <point x="623" y="680" type="line"/>
      <point x="555" y="680" type="line"/>
      <point x="337" y="384" type="line"/>
      <point x="318" y="371" type="line"/>
      <point x="45" y="0" type="line"/>
    </contour>
    <contour>
      <point x="642" y="0" type="line"/>
      <point x="370" y="371" type="line"/>
      <point x="351" y="384" type="line"/>
      <point x="133" y="680" type="line"/>
      <point x="65" y="680" type="line"/>
      <point x="315" y="339" type="line"/>
      <point x="337" y="323" type="line"/>
      <point x="573" y="0" type="line"/>
    </contour>
  </outline>
</glyph>
<glyph name="Y" format="1">
  <advance width="628"/>
  <unicode hex="0059"/>
  <outline>
    <contour>
      <point x="326" y="308" type="line"/>
      <point x="100" y="680" type="line"/>
      <point x="35" y="680" type="line"/>
      <point x="293" y="265" type="line"/>
    </contour>
    <contour>
      <point x="342" y="0" type="line"/>
      <point x="342" y="310" type="line"/>
      <point x="286" y="310" type="line"/>
      <point x="286" y="0" type="line"/>
    </contour>
    <contour>
      <point x="593" y="680" type="line"/>
      <point x="530" y="680" type="line"/>
      <point x="303" y="309" type="line"/>
      <point x="334" y="266" type="line"/>
    </contour>
    <contour>
      <point x="314" y="730" type="move" name="top"/>
    </contour>
    <contour>
      <point x="314" y="-10" type="move" name="bottom"/>
    </contour>
  </outline>
</glyph>
<glyph name="Z" format="1">
  <advance width="649"/>
  <unicode hex="005A"/>
  <outline>
    <contour>
      <point x="589" y="0" type="line"/>
      <point x="589" y="46" type="line"/>
      <point x="134" y="46" type="line"/>
      <point x="141" y="33" type="line"/>
      <point x="575" y="641" type="line"/>
      <point x="575" y="680" type="line"/>
      <point x="93" y="680" type="line"/>
      <point x="93" y="634" type="line"/>
      <point x="527" y="634" type="line"/>
      <point x="521" y="647" type="line"/>
      <point x="80" y="31" type="line"/>
      <point x="80" y="0" type="line"/>
    </contour>
    <contour>
      <point x="335" y="730" type="move" name="top"/>
    </contour>
    <contour>
      <point x="356" y="-10" type="move" name="bottom"/>
    </contour>
  </outline>
</glyph>
<glyph name="bracketleft" format="1">
  <advance width="290"/>
  <unicode hex="005B"/>
  <outline>
    <contour>
      <point x="217" y="-127" type="line"/>
      <point x="217" y="-93" type="line"/>
      <point x="127" y="-83" type="line"/>
      <point x="127" y="651" type="line"/>
      <point x="217" y="661" type="line"/>
      <point x="217" y="695" type="line"/>
      <point x="73" y="695" type="line"/>
      <point x="73" y="-127" type="line"/>
    </contour>
  </outline>
</glyph>
<glyph name="backslash" format="1">
  <advance width="328"/>
  <unicode hex="005C"/>
  <outline>
    <contour>
      <point x="336" y="-236" type="line"/>
      <point x="49" y="708" type="line"/>
      <point x="-8" y="708" type="line"/>
      <point x="280" y="-236" type="line"/>
    </contour>
  </outline>
</glyph>
<glyph name="bracketright" format="1">
  <advance width="290"/>
  <unicode hex="005D"/>
  <outline>
    <contour>
      <point x="217" y="-127" type="line"/>
      <point x="217" y="695" type="line"/>
      <point x="73" y="695" type="line"/>
      <point x="73" y="658" type="line"/>
      <point x="163" y="651" type="line"/>
      <point x="163" y="-83" type="line"/>
      <point x="73" y="-90" type="line"/>
      <point x="73" y="-127" type="line"/>
    </contour>
  </outline>
</glyph>
<glyph name="asciicircum" format="1">
  <advance width="500"/>
  <unicode hex="005E"/>
  <outline>
    <contour>
      <point x="381" y="170" type="line"/>
      <point x="276" y="380" type="line"/>
      <point x="227" y="380" type="line"/>
      <point x="337" y="170" type="line"/>
    </contour>
    <contour>
      <point x="163" y="170" type="line"/>
      <point x="273" y="380" type="line"/>
      <point x="224" y="380" type="line"/>
      <point x="119" y="170" type="line"/>
    </contour>
  </outline>
</glyph>
<glyph name="underscore" format="1">
  <advance width="500"/>
  <unicode hex="005F"/>
  <outline>
    <contour>
      <point x="500" y="-237" type="line"/>
      <point x="500" y="-193" type="line"/>
      <point x="0" y="-193" type="line"/>
      <point x="0" y="-237" type="line"/>
    </contour>
  </outline>
</glyph>
<glyph name="grave" format="1">
  <advance width="500"/>
  <unicode hex="0060"/>
  <outline>
    <contour>
      <point x="327" y="590" type="line"/>
      <point x="230" y="800" type="line"/>
      <point x="173" y="800" type="line"/>
      <point x="283" y="590" type="line"/>
    </contour>
    <contour>
      <point x="305" y="580" type="move" name="_top"/>
    </contour>
  </outline>
</glyph>
<glyph name="a" format="1">
  <advance width="530"/>
  <unicode hex="0061"/>
  <outline>
    <contour>
      <point x="467" y="-15"/>
      <point x="483" y="-10"/>
      <point x="505" y="-1" type="curve"/>
      <point x="498" y="41" type="line"/>
      <point x="480" y="33"/>
      <point x="466" y="29"/>
      <point x="454" y="29" type="curve" smooth="yes"/>
      <point x="432" y="29"/>
      <point x="423" y="41"/>
      <point x="423" y="70" type="curve" smooth="yes"/>
      <point x="423" y="360" type="line" smooth="yes"/>
      <point x="423" y="487"/>
      <point x="386" y="540"/>
      <point x="274" y="540" type="curve" smooth="yes"/>
      <point x="187" y="540"/>
      <point x="115" y="494"/>
      <point x="53" y="416" type="curve"/>
      <point x="91" y="387" type="line"/>
      <point x="162" y="474"/>
      <point x="208" y="493"/>
      <point x="275" y="493" type="curve" smooth="yes"/>
      <point x="355" y="493"/>
      <point x="369" y="425"/>
      <point x="369" y="361" type="curve" smooth="yes"/>
      <point x="369" y="63" type="line" smooth="yes"/>
      <point x="369" y="0"/>
      <point x="405" y="-15"/>
      <point x="447" y="-15" type="curve" smooth="yes"/>
    </contour>
    <contour>
      <point x="255" y="-16"/>
      <point x="328" y="28"/>
      <point x="392" y="85" type="curve"/>
      <point x="388" y="129" type="line"/>
      <point x="310" y="68"/>
      <point x="252" y="29"/>
      <point x="190" y="29" type="curve" smooth="yes"/>
      <point x="145" y="29"/>
      <point x="106" y="49"/>
      <point x="106" y="107" type="curve" smooth="yes"/>
      <point x="106" y="170"/>
      <point x="161" y="204"/>
      <point x="295" y="242" type="curve" smooth="yes"/>
      <point x="384" y="267" type="line"/>
      <point x="386" y="312" type="line"/>
      <point x="276" y="281" type="line" smooth="yes"/>
      <point x="138" y="242"/>
      <point x="52" y="203"/>
      <point x="52" y="107" type="curve" smooth="yes"/>
      <point x="52" y="36"/>
      <point x="107" y="-16"/>
      <point x="189" y="-16" type="curve" smooth="yes"/>
    </contour>
    <contour>
      <point x="257" y="580" type="move" name="top"/>
    </contour>
    <contour>
      <point x="410" y="-10" type="move" name="bottom"/>
    </contour>
  </outline>
</glyph>
<glyph name="b" format="1">
  <advance width="565"/>
  <unicode hex="0062"/>
  <outline>
    <contour>
      <point x="411" y="-18"/>
      <point x="515" y="82"/>
      <point x="515" y="277" type="curve" smooth="yes"/>
      <point x="515" y="443"/>
      <point x="432" y="541"/>
      <point x="312" y="541" type="curve" smooth="yes"/>
      <point x="240" y="541"/>
      <point x="183" y="509"/>
      <point x="142" y="468" type="curve"/>
      <point x="142" y="422" type="line"/>
      <point x="204" y="472"/>
      <point x="244" y="494"/>
      <point x="312" y="494" type="curve" smooth="yes"/>
      <point x="382" y="494"/>
      <point x="459" y="439"/>
      <point x="459" y="277" type="curve" smooth="yes"/>
      <point x="459" y="135"/>
      <point x="402" y="27"/>
      <point x="263" y="27" type="curve" smooth="yes"/>
      <point x="204" y="27"/>
      <point x="164" y="43"/>
      <point x="136" y="66" type="curve"/>
      <point x="114" y="31" type="line"/>
      <point x="146" y="8"/>
      <point x="193" y="-18"/>
      <point x="264" y="-18" type="curve" smooth="yes"/>
    </contour>
    <contour>
      <point x="124" y="-1" type="line"/>
      <point x="154" y="37" type="line"/>
      <point x="154" y="800" type="line"/>
      <point x="100" y="800" type="line"/>
      <point x="100" y="-1" type="line"/>
    </contour>
  </outline>
</glyph>
<glyph name="c" format="1">
  <advance width="510"/>
  <unicode hex="0063"/>
  <outline>
    <contour>
      <point x="378" y="-20"/>
      <point x="441" y="27"/>
      <point x="481" y="80" type="curve"/>
      <point x="453" y="114" type="line"/>
      <point x="416" y="65"/>
      <point x="364" y="25"/>
      <point x="289" y="25" type="curve"/>
      <point x="170" y="25"/>
      <point x="106" y="126"/>
      <point x="106" y="260" type="curve"/>
      <point x="106" y="392"/>
      <point x="173" y="495"/>
      <point x="299" y="495" type="curve"/>
      <point x="352" y="495"/>
      <point x="406" y="468"/>
      <point x="439" y="425" type="curve"/>
      <point x="471" y="465" type="line"/>
      <point x="431" y="513"/>
      <point x="367" y="540"/>
      <point x="299" y="540" type="curve"/>
      <point x="130" y="540"/>
      <point x="50" y="407"/>
      <point x="50" y="259" type="curve"/>
      <point x="50" y="112"/>
      <point x="127" y="-20"/>
      <point x="289" y="-20" type="curve"/>
    </contour>
    <contour>
      <point x="299" y="580" type="move" name="top"/>
    </contour>
    <contour>
      <point x="292" y="-10" type="move" name="bottom"/>
    </contour>
  </outline>
</glyph>
<glyph name="d" format="1">
  <advance width="565"/>
  <unicode hex="0064"/>
  <outline>
    <contour>
      <point x="325" y="-20"/>
      <point x="381" y="14"/>
      <point x="423" y="56" type="curve"/>
      <point x="423" y="102" type="line"/>
      <point x="360" y="51"/>
      <point x="321" y="27"/>
      <point x="253" y="27" type="curve" smooth="yes"/>
      <point x="183" y="27"/>
      <point x="106" y="83"/>
      <point x="106" y="247" type="curve" smooth="yes"/>
      <point x="106" y="388"/>
      <point x="163" y="495"/>
      <point x="302" y="495" type="curve" smooth="yes"/>
      <point x="361" y="495"/>
      <point x="402" y="481"/>
      <point x="429" y="458" type="curve"/>
      <point x="451" y="493" type="line"/>
      <point x="419" y="516"/>
      <point x="372" y="540"/>
      <point x="301" y="540" type="curve" smooth="yes"/>
      <point x="154" y="540"/>
      <point x="50" y="441"/>
      <point x="50" y="247" type="curve" smooth="yes"/>
      <point x="50" y="79"/>
      <point x="133" y="-20"/>
      <point x="253" y="-20" type="curve" smooth="yes"/>
    </contour>
    <contour>
      <point x="465" y="0" type="line"/>
      <point x="465" y="800" type="line"/>
      <point x="411" y="800" type="line"/>
      <point x="411" y="78" type="line"/>
      <point x="421" y="0" type="line"/>
    </contour>
    <contour>
      <point x="282" y="580" type="move" name="top"/>
    </contour>
    <contour>
      <point x="282" y="-10" type="move" name="bottom"/>
    </contour>
    <contour>
      <point x="495" y="589" type="move" name="caronSlovak"/>
    </contour>
  </outline>
</glyph>
<glyph name="e" format="1">
  <advance width="531"/>
  <unicode hex="0065"/>
  <outline>
    <contour>
      <point x="378" y="-20"/>
      <point x="441" y="27"/>
      <point x="481" y="80" type="curve"/>
      <point x="453" y="114" type="line"/>
      <point x="416" y="65"/>
      <point x="364" y="25"/>
      <point x="289" y="25" type="curve"/>
      <point x="170" y="25"/>
      <point x="106" y="126"/>
      <point x="106" y="260" type="curve"/>
      <point x="106" y="392"/>
      <point x="170" y="495"/>
      <point x="289" y="495" type="curve"/>
      <point x="352" y="495"/>
      <point x="422" y="454"/>
      <point x="422" y="361" type="curve" smooth="yes"/>
      <point x="422" y="346"/>
      <point x="420" y="330"/>
      <point x="416" y="312" type="curve"/>
      <point x="472" y="312" type="line"/>
      <point x="475" y="329"/>
      <point x="477" y="345"/>
      <point x="477" y="360" type="curve" smooth="yes"/>
      <point x="477" y="475"/>
      <point x="388" y="540"/>
      <point x="289" y="540" type="curve"/>
      <point x="127" y="540"/>
      <point x="50" y="407"/>
      <point x="50" y="259" type="curve"/>
      <point x="50" y="112"/>
      <point x="127" y="-20"/>
      <point x="289" y="-20" type="curve"/>
    </contour>
    <contour>
      <point x="447" y="312" type="line"/>
      <point x="447" y="356" type="line"/>
      <point x="88" y="356" type="line"/>
      <point x="88" y="312" type="line"/>
    </contour>
    <contour>
      <point x="278" y="580" type="move" name="top"/>
    </contour>
    <contour>
      <point x="357" y="-10" type="move" name="bottom"/>
    </contour>
  </outline>
</glyph>
<glyph name="f" format="1">
  <advance width="384"/>
  <unicode hex="0066"/>
  <outline>
    <contour>
      <point x="214" y="0" type="line"/>
      <point x="214" y="579" type="line" smooth="yes"/>
      <point x="214" y="696"/>
      <point x="245" y="753"/>
      <point x="328" y="753" type="curve" smooth="yes"/>
      <point x="343" y="753"/>
      <point x="354" y="751"/>
      <point x="365" y="748" type="curve"/>
      <point x="376" y="792" type="line"/>
      <point x="361" y="797"/>
      <point x="344" y="800"/>
      <point x="328" y="800" type="curve" smooth="yes"/>
      <point x="211" y="800"/>
      <point x="160" y="719"/>
      <point x="160" y="581" type="curve" smooth="yes"/>
      <point x="160" y="0" type="line"/>
    </contour>
    <contour>
      <point x="374" y="476" type="line"/>
      <point x="374" y="520" type="line"/>
      <point x="170" y="520" type="line"/>
      <point x="75" y="500" type="line"/>
      <point x="75" y="476" type="line"/>
    </contour>
  </outline>
</glyph>
<glyph name="g" format="1">
  <advance width="530"/>
  <unicode hex="0067"/>
  <outline>
    <contour>
      <point x="389" y="-246"/>
      <point x="508" y="-161"/>
      <point x="508" y="-52" type="curve" smooth="yes"/>
      <point x="508" y="21"/>
      <point x="460" y="72"/>
      <point x="372" y="72" type="curve" smooth="yes"/>
      <point x="193" y="72" type="line" smooth="yes"/>
      <point x="142" y="72"/>
      <point x="116" y="83"/>
      <point x="116" y="117" type="curve" smooth="yes"/>
      <point x="116" y="154"/>
      <point x="144" y="175"/>
      <point x="210" y="232" type="curve"/>
      <point x="172" y="256" type="line"/>
      <point x="96" y="189"/>
      <point x="65" y="157"/>
      <point x="65" y="109" type="curve" smooth="yes"/>
      <point x="65" y="71"/>
      <point x="79" y="22"/>
      <point x="193" y="22" type="curve" smooth="yes"/>
      <point x="370" y="22" type="line" smooth="yes"/>
      <point x="424" y="22"/>
      <point x="458" y="-1"/>
      <point x="458" y="-58" type="curve" smooth="yes"/>
      <point x="458" y="-126"/>
      <point x="363" y="-201"/>
      <point x="228" y="-201" type="curve" smooth="yes"/>
      <point x="147" y="-201"/>
      <point x="91" y="-179"/>
      <point x="91" y="-110" type="curve" smooth="yes"/>
      <point x="91" y="-47"/>
      <point x="139" y="-10"/>
      <point x="202" y="37" type="curve"/>
      <point x="166" y="60" type="line"/>
      <point x="80" y="-5"/>
      <point x="40" y="-39"/>
      <point x="40" y="-113" type="curve" smooth="yes"/>
      <point x="40" y="-181"/>
      <point x="83" y="-246"/>
      <point x="228" y="-246" type="curve" smooth="yes"/>
    </contour>
    <contour>
      <point x="374" y="199"/>
      <point x="431" y="281"/>
      <point x="431" y="371" type="curve"/>
      <point x="431" y="460"/>
      <point x="373" y="540"/>
      <point x="252" y="540" type="curve"/>
      <point x="130" y="540"/>
      <point x="73" y="459"/>
      <point x="73" y="369" type="curve"/>
      <point x="73" y="280"/>
      <point x="130" y="199"/>
      <point x="252" y="199" type="curve"/>
    </contour>
    <contour>
      <point x="173" y="244"/>
      <point x="129" y="299"/>
      <point x="129" y="370" type="curve"/>
      <point x="129" y="440"/>
      <point x="173" y="495"/>
      <point x="252" y="495" type="curve"/>
      <point x="332" y="495"/>
      <point x="375" y="440"/>
      <point x="375" y="370" type="curve"/>
      <point x="375" y="299"/>
      <point x="331" y="244"/>
      <point x="252" y="244" type="curve"/>
    </contour>
    <contour>
      <point x="517" y="520" type="line"/>
      <point x="323" y="520" type="line"/>
      <point x="323" y="490" type="line"/>
      <point x="517" y="476" type="line"/>
    </contour>
    <contour>
      <point x="265" y="580" type="move" name="top"/>
    </contour>
  </outline>
</glyph>
<glyph name="h" format="1">
  <advance width="575"/>
  <unicode hex="0068"/>
  <outline>
    <contour>
      <point x="480" y="0" type="line"/>
      <point x="480" y="381" type="line" smooth="yes"/>
      <point x="480" y="474"/>
      <point x="455" y="540"/>
      <point x="342" y="540" type="curve" smooth="yes"/>
      <point x="276" y="540"/>
      <point x="207" y="508"/>
      <point x="140" y="449" type="curve"/>
      <point x="152" y="408" type="line"/>
      <point x="222" y="465"/>
      <point x="278" y="493"/>
      <point x="334" y="493" type="curve" smooth="yes"/>
      <point x="402" y="493"/>
      <point x="426" y="456"/>
      <point x="426" y="379" type="curve" smooth="yes"/>
      <point x="426" y="0" type="line"/>
    </contour>
    <contour>
      <point x="154" y="0" type="line"/>
      <point x="154" y="800" type="line"/>
      <point x="100" y="800" type="line"/>
      <point x="100" y="0" type="line"/>
    </contour>
    <contour>
      <point x="128" y="810" type="move" name="top"/>
    </contour>
    <contour>
      <point x="288" y="-10" type="move" name="bottom"/>
    </contour>
  </outline>
</glyph>
<glyph name="i" format="1">
  <advance width="271"/>
  <unicode hex="0069"/>
  <outline>
    <contour>
      <point x="162" y="0" type="line"/>
      <point x="162" y="520" type="line"/>
      <point x="108" y="520" type="line"/>
      <point x="108" y="0" type="line"/>
    </contour>
    <contour>
      <point x="157" y="722"/>
      <point x="175" y="740"/>
      <point x="175" y="760" type="curve"/>
      <point x="175" y="782"/>
      <point x="157" y="800"/>
      <point x="135" y="800" type="curve"/>
      <point x="114" y="800"/>
      <point x="96" y="782"/>
      <point x="96" y="760" type="curve"/>
      <point x="96" y="740"/>
      <point x="114" y="722"/>
      <point x="135" y="722" type="curve"/>
    </contour>
    <contour>
      <point x="136" y="580" type="move" name="top"/>
    </contour>
    <contour>
      <point x="116" y="-10" type="move" name="bottom"/>
    </contour>
  </outline>
</glyph>
<glyph name="k" format="1">
  <advance width="530"/>
  <unicode hex="006B"/>
  <outline>
    <contour>
      <point x="500" y="0" type="line"/>
      <point x="228" y="302" type="line"/>
      <point x="228" y="275" type="line"/>
      <point x="461" y="520" type="line"/>
      <point x="398" y="520" type="line"/>
      <point x="185" y="295" type="line"/>
      <point x="185" y="275" type="line"/>
      <point x="433" y="0" type="line"/>
    </contour>
    <contour>
      <point x="154" y="0" type="line"/>
      <point x="154" y="800" type="line"/>
      <point x="100" y="800" type="line"/>
      <point x="100" y="0" type="line"/>
    </contour>
    <contour>
      <point x="265" y="-10" type="move" name="bottom"/>
    </contour>
  </outline>
</glyph>
<glyph name="l" format="1">
  <advance width="254"/>
  <unicode hex="006C"/>
  <outline>
    <contour>
      <point x="154" y="0" type="line"/>
      <point x="154" y="800" type="line"/>
      <point x="100" y="800" type="line"/>
      <point x="100" y="0" type="line"/>
    </contour>
    <contour>
      <point x="253" y="264" type="move" name="dot"/>
    </contour>
    <contour>
      <point x="128" y="810" type="move" name="top"/>
    </contour>
    <contour>
      <point x="184" y="589" type="move" name="caronSlovak"/>
    </contour>
    <contour>
      <point x="127" y="-10" type="move" name="bottom"/>
    </contour>
  </outline>
</glyph>
<glyph name="m" format="1">
  <advance width="861"/>
  <unicode hex="006D"/>
  <outline>
    <contour>
      <point x="766" y="0" type="line"/>
      <point x="766" y="381" type="line" smooth="yes"/>
      <point x="766" y="474"/>
      <point x="743" y="540"/>
      <point x="638" y="540" type="curve" smooth="yes"/>
      <point x="576" y="540"/>
      <point x="511" y="506"/>
      <point x="446" y="449" type="curve"/>
      <point x="458" y="408" type="line"/>
      <point x="526" y="463"/>
      <point x="577" y="493"/>
      <point x="630" y="493" type="curve" smooth="yes"/>
      <point x="690" y="493"/>
      <point x="712" y="456"/>
      <point x="712" y="379" type="curve" smooth="yes"/>
      <point x="712" y="0" type="line"/>
    </contour>
    <contour>
      <point x="154" y="0" type="line"/>
      <point x="154" y="442" type="line"/>
      <point x="144" y="520" type="line"/>
      <point x="100" y="520" type="line"/>
      <point x="100" y="0" type="line"/>
    </contour>
    <contour>
      <point x="460" y="0" type="line"/>
      <point x="460" y="381" type="line" smooth="yes"/>
      <point x="460" y="474"/>
      <point x="437" y="540"/>
      <point x="332" y="540" type="curve" smooth="yes"/>
      <point x="270" y="540"/>
      <point x="205" y="506"/>
      <point x="140" y="449" type="curve"/>
      <point x="152" y="408" type="line"/>
      <point x="220" y="463"/>
      <point x="271" y="493"/>
      <point x="324" y="493" type="curve" smooth="yes"/>
      <point x="384" y="493"/>
      <point x="406" y="456"/>
      <point x="406" y="379" type="curve" smooth="yes"/>
      <point x="406" y="0" type="line"/>
    </contour>
    <contour>
      <point x="430" y="580" type="move" name="top"/>
    </contour>
    <contour>
      <point x="430" y="-10" type="move" name="bottom"/>
    </contour>
  </outline>
</glyph>
<glyph name="o" format="1">
  <advance width="578"/>
  <unicode hex="006F"/>
  <outline>
    <contour>
      <point x="451" y="-20"/>
      <point x="528" y="112"/>
      <point x="528" y="261" type="curve"/>
      <point x="528" y="407"/>
      <point x="451" y="540"/>
      <point x="289" y="540" type="curve"/>
      <point x="127" y="540"/>
      <point x="50" y="407"/>
      <point x="50" y="259" type="curve"/>
      <point x="50" y="112"/>
      <point x="127" y="-20"/>
      <point x="289" y="-20" type="curve"/>
    </contour>
    <contour>
      <point x="170" y="25"/>
      <point x="106" y="126"/>
      <point x="106" y="260" type="curve"/>
      <point x="106" y="392"/>
      <point x="170" y="495"/>
      <point x="289" y="495" type="curve"/>
      <point x="408" y="495"/>
      <point x="472" y="392"/>
      <point x="472" y="260" type="curve"/>
      <point x="472" y="126"/>
      <point x="408" y="25"/>
      <point x="289" y="25" type="curve"/>
    </contour>
    <contour>
      <point x="289" y="580" type="move" name="top"/>
    </contour>
    <contour>
      <point x="289" y="-10" type="move" name="bottom"/>
    </contour>
  </outline>
</glyph>
<glyph name="q" format="1">
  <advance width="565"/>
  <unicode hex="0071"/>
  <outline>
    <contour>
      <point x="325" y="-20"/>
      <point x="382" y="13"/>
      <point x="423" y="54" type="curve"/>
      <point x="423" y="100" type="line"/>
      <point x="361" y="50"/>
      <point x="321" y="27"/>
      <point x="253" y="27" type="curve" smooth="yes"/>
      <point x="183" y="27"/>
      <point x="106" y="82"/>
      <point x="106" y="245" type="curve" smooth="yes"/>
      <point x="106" y="387"/>
      <point x="163" y="495"/>
      <point x="302" y="495" type="curve" smooth="yes"/>
      <point x="361" y="495"/>
      <point x="401" y="479"/>
      <point x="429" y="456" type="curve"/>
      <point x="451" y="491" type="line"/>
      <point x="419" y="514"/>
      <point x="372" y="540"/>
      <point x="301" y="540" type="curve" smooth="yes"/>
      <point x="154" y="540"/>
      <point x="50" y="440"/>
      <point x="50" y="245" type="curve" smooth="yes"/>
      <point x="50" y="78"/>
      <point x="133" y="-20"/>
      <point x="253" y="-20" type="curve" smooth="yes"/>
    </contour>
    <contour>
      <point x="465" y="-237" type="line"/>
      <point x="465" y="523" type="line"/>
      <point x="441" y="523" type="line"/>
      <point x="411" y="485" type="line"/>
      <point x="411" y="-237" type="line"/>
    </contour>
  </outline>
</glyph>
<glyph name="r" format="1">
  <advance width="372"/>
  <unicode hex="0072"/>
  <outline>
    <contour>
      <point x="230" y="472"/>
      <point x="284" y="491"/>
      <point x="342" y="491" type="curve"/>
      <point x="342" y="540" type="line"/>
      <point x="276" y="540"/>
      <point x="214" y="514"/>
      <point x="140" y="429" type="curve"/>
      <point x="152" y="388" type="line"/>
    </contour>
    <contour>
      <point x="154" y="0" type="line"/>
      <point x="154" y="442" type="line"/>
      <point x="144" y="520" type="line"/>
      <point x="100" y="520" type="line"/>
      <point x="100" y="0" type="line"/>
    </contour>
    <contour>
      <point x="213" y="580" type="move" name="top"/>
    </contour>
    <contour>
      <point x="124" y="-10" type="move" name="bottom"/>
    </contour>
  </outline>
</glyph>
<glyph name="s" format="1">
  <advance width="462"/>
  <unicode hex="0073"/>
  <outline>
    <contour>
      <point x="334" y="-20"/>
      <point x="412" y="39"/>
      <point x="412" y="135" type="curve" smooth="yes"/>
      <point x="412" y="318"/>
      <point x="125" y="265"/>
      <point x="125" y="402" type="curve" smooth="yes"/>
      <point x="125" y="467"/>
      <point x="175" y="495"/>
      <point x="233" y="495" type="curve" smooth="yes"/>
      <point x="287" y="495"/>
      <point x="337" y="476"/>
      <point x="376" y="442" type="curve"/>
      <point x="400" y="484" type="line"/>
      <point x="353" y="520"/>
      <point x="304" y="540"/>
      <point x="233" y="540" type="curve" smooth="yes"/>
      <point x="147" y="540"/>
      <point x="73" y="495"/>
      <point x="73" y="401" type="curve"/>
      <point x="73" y="219"/>
      <point x="360" y="272"/>
      <point x="360" y="135" type="curve"/>
      <point x="360" y="65"/>
      <point x="306" y="25"/>
      <point x="234" y="25" type="curve" smooth="yes"/>
      <point x="166" y="25"/>
      <point x="112" y="43"/>
      <point x="74" y="78" type="curve"/>
      <point x="50" y="36" type="line"/>
      <point x="98" y="-1"/>
      <point x="147" y="-20"/>
      <point x="234" y="-20" type="curve" smooth="yes"/>
    </contour>
    <contour>
      <point x="231" y="580" type="move" name="top"/>
    </contour>
    <contour>
      <point x="234" y="-10" type="move" name="bottom"/>
    </contour>
  </outline>
</glyph>
<glyph name="t" format="1">
  <advance width="404"/>
  <unicode hex="0074"/>
  <outline>
    <contour>
      <point x="302" y="-15"/>
      <point x="329" y="-8"/>
      <point x="366" y="13" type="curve"/>
      <point x="355" y="57" type="line"/>
      <point x="323" y="41"/>
      <point x="304" y="32"/>
      <point x="270" y="32" type="curve" smooth="yes"/>
      <point x="200" y="32"/>
      <point x="174" y="76"/>
      <point x="174" y="167" type="curve" smooth="yes"/>
      <point x="174" y="638" type="line"/>
      <point x="140" y="638" type="line"/>
      <point x="120" y="492" type="line"/>
      <point x="120" y="165" type="line" smooth="yes"/>
      <point x="120" y="52"/>
      <point x="165" y="-15"/>
      <point x="270" y="-15" type="curve" smooth="yes"/>
    </contour>
    <contour>
      <point x="334" y="476" type="line"/>
      <point x="334" y="520" type="line"/>
      <point x="130" y="520" type="line"/>
      <point x="35" y="500" type="line"/>
      <point x="35" y="476" type="line"/>
    </contour>
    <contour>
      <point x="256" y="-10" type="move" name="bottom"/>
    </contour>
    <contour>
      <point x="204" y="589" type="move" name="caronSlovak"/>
    </contour>
  </outline>
</glyph>
<glyph name="u" format="1">
  <advance width="575"/>
  <unicode hex="0075"/>
  <outline>
    <contour>
      <point x="299" y="-20"/>
      <point x="368" y="12"/>
      <point x="435" y="71" type="curve"/>
      <point x="423" y="112" type="line"/>
      <point x="353" y="55"/>
      <point x="297" y="27"/>
      <point x="241" y="27" type="curve" smooth="yes"/>
      <point x="173" y="27"/>
      <point x="149" y="64"/>
      <point x="149" y="141" type="curve" smooth="yes"/>
      <point x="149" y="520" type="line"/>
      <point x="95" y="520" type="line"/>
      <point x="95" y="139" type="line" smooth="yes"/>
      <point x="95" y="46"/>
      <point x="120" y="-20"/>
      <point x="233" y="-20" type="curve" smooth="yes"/>
    </contour>
    <contour>
      <point x="475" y="0" type="line"/>
      <point x="475" y="520" type="line"/>
      <point x="421" y="520" type="line"/>
      <point x="421" y="78" type="line"/>
      <point x="431" y="0" type="line"/>
    </contour>
    <contour>
      <point x="288" y="580" type="move" name="top"/>
    </contour>
    <contour>
      <point x="437" y="-10" type="move" name="bottom"/>
    </contour>
  </outline>
</glyph>
<glyph name="v" format="1">
  <advance width="493"/>
  <unicode hex="0076"/>
  <outline>
    <contour>
      <point x="269" y="-9" type="line"/>
      <point x="473" y="520" type="line"/>
      <point x="418" y="520" type="line"/>
      <point x="242" y="61" type="line"/>
      <point x="254" y="61" type="line"/>
      <point x="77" y="520" type="line"/>
      <point x="20" y="520" type="line"/>
      <point x="225" y="-9" type="line"/>
    </contour>
  </outline>
</glyph>
<glyph name="w" format="1">
  <advance width="776"/>
  <unicode hex="0077"/>
  <outline>
    <contour>
      <point x="229" y="-9" type="line"/>
      <point x="395" y="448" type="line"/>
      <point x="381" y="448" type="line"/>
      <point x="548" y="-9" type="line"/>
      <point x="592" y="-9" type="line"/>
      <point x="756" y="520" type="line"/>
      <point x="701" y="520" type="line"/>
      <point x="565" y="56" type="line"/>
      <point x="580" y="56" type="line"/>
      <point x="410" y="520" type="line"/>
      <point x="368" y="520" type="line"/>
      <point x="201" y="56" type="line"/>
      <point x="216" y="56" type="line"/>
      <point x="77" y="520" type="line"/>
      <point x="20" y="520" type="line"/>
      <point x="185" y="-9" type="line"/>
    </contour>
    <contour>
      <point x="388" y="580" type="move" name="top"/>
    </contour>
  </outline>
</glyph>
<glyph name="x" format="1">
  <advance width="540"/>
  <unicode hex="0078"/>
  <outline>
    <contour>
      <point x="510" y="0" type="line"/>
      <point x="296" y="291" type="line"/>
      <point x="277" y="304" type="line"/>
      <point x="118" y="520" type="line"/>
      <point x="50" y="520" type="line"/>
      <point x="241" y="259" type="line"/>
      <point x="263" y="243" type="line"/>
      <point x="441" y="0" type="line"/>
    </contour>
    <contour>
      <point x="97" y="0" type="line"/>
      <point x="275" y="243" type="line"/>
      <point x="299" y="259" type="line"/>
      <point x="490" y="520" type="line"/>
      <point x="424" y="520" type="line"/>
      <point x="265" y="304" type="line"/>
      <point x="244" y="291" type="line"/>
      <point x="30" y="0" type="line"/>
    </contour>
  </outline>
</glyph>
<glyph name="y" format="1">
  <advance width="505"/>
  <unicode hex="0079"/>
  <outline>
    <contour>
      <point x="157" y="-245"/>
      <point x="211" y="-194"/>
      <point x="257" y="-74" type="curve" smooth="yes"/>
      <point x="485" y="520" type="line"/>
      <point x="430" y="520" type="line"/>
      <point x="212" y="-51" type="line" smooth="yes"/>
      <point x="167" y="-168"/>
      <point x="129" y="-195"/>
      <point x="68" y="-195" type="curve" smooth="yes"/>
      <point x="53" y="-195"/>
      <point x="42" y="-193"/>
      <point x="31" y="-190" type="curve"/>
      <point x="20" y="-237" type="line"/>
      <point x="35" y="-242"/>
      <point x="52" y="-245"/>
      <point x="68" y="-245" type="curve" smooth="yes"/>
    </contour>
    <contour>
      <point x="266" y="63" type="line"/>
      <point x="89" y="520" type="line"/>
      <point x="32" y="520" type="line"/>
      <point x="237" y="-9" type="line"/>
    </contour>
    <contour>
      <point x="257" y="580" type="move" name="top"/>
    </contour>
  </outline>
</glyph>
<glyph name="z" format="1">
  <advance width="489"/>
  <unicode hex="007A"/>
  <outline>
    <contour>
      <point x="439" y="0" type="line"/>
      <point x="439" y="44" type="line"/>
      <point x="103" y="44" type="line"/>
      <point x="109" y="28" type="line"/>
      <point x="429" y="487" type="line"/>
      <point x="429" y="520" type="line"/>
      <point x="60" y="520" type="line"/>
      <point x="60" y="476" type="line"/>
      <point x="380" y="476" type="line"/>
      <point x="374" y="492" type="line"/>
      <point x="50" y="27" type="line"/>
      <point x="50" y="0" type="line"/>
    </contour>
    <contour>
      <point x="244" y="580" type="move" name="top"/>
    </contour>
    <contour>
      <point x="257" y="-10" type="move" name="bottom"/>
    </contour>
  </outline>
</glyph>
<glyph name="braceleft" format="1">
  <advance width="290"/>
  <unicode hex="007B"/>
  <outline>
    <contour>
      <point x="251" y="-86" type="line"/>
      <point x="186" y="-86"/>
      <point x="151" y="-63"/>
      <point x="151" y="-16" type="curve" smooth="yes"/>
      <point x="151" y="70"/>
      <point x="170" y="108"/>
      <point x="170" y="175" type="curve" smooth="yes"/>
      <point x="170" y="232"/>
      <point x="143" y="271"/>
      <point x="93" y="287" type="curve"/>
      <point x="93" y="289" type="line"/>
      <point x="142" y="305"/>
      <point x="170" y="345"/>
      <point x="170" y="400" type="curve" smooth="yes"/>
      <point x="170" y="467"/>
      <point x="151" y="506"/>
      <point x="151" y="592" type="curve" smooth="yes"/>
      <point x="151" y="633"/>
      <point x="176" y="663"/>
      <point x="251" y="662" type="curve"/>
      <point x="251" y="705" type="line"/>
      <point x="178" y="706"/>
      <point x="99" y="687"/>
      <point x="99" y="574" type="curve" smooth="yes"/>
      <point x="99" y="514"/>
      <point x="118" y="450"/>
      <point x="118" y="382" type="curve" smooth="yes"/>
      <point x="118" y="335"/>
      <point x="83" y="314"/>
      <point x="14" y="307" type="curve"/>
      <point x="14" y="269" type="line"/>
      <point x="83" y="261"/>
      <point x="119" y="241"/>
      <point x="119" y="193" type="curve" smooth="yes"/>
      <point x="119" y="125"/>
      <point x="100" y="62"/>
      <point x="100" y="2" type="curve" smooth="yes"/>
      <point x="100" y="-111"/>
      <point x="178" y="-130"/>
      <point x="251" y="-130" type="curve"/>
    </contour>
  </outline>
</glyph>
<glyph name="braceright" format="1">
  <advance width="290"/>
  <unicode hex="007D"/>
  <outline>
    <contour>
      <point x="112" y="-130"/>
      <point x="191" y="-111"/>
      <point x="191" y="2" type="curve" smooth="yes"/>
      <point x="191" y="62"/>
      <point x="172" y="126"/>
      <point x="172" y="194" type="curve" smooth="yes"/>
      <point x="172" y="241"/>
      <point x="207" y="262"/>
      <point x="276" y="269" type="curve"/>
      <point x="276" y="307" type="line"/>
      <point x="207" y="315"/>
      <point x="171" y="335"/>
      <point x="171" y="383" type="curve" smooth="yes"/>
      <point x="171" y="451"/>
      <point x="190" y="514"/>
      <point x="190" y="574" type="curve" smooth="yes"/>
      <point x="190" y="687"/>
      <point x="112" y="706"/>
      <point x="39" y="706" type="curve"/>
      <point x="39" y="662" type="line"/>
      <point x="104" y="662"/>
      <point x="139" y="639"/>
      <point x="139" y="592" type="curve" smooth="yes"/>
      <point x="139" y="506"/>
      <point x="120" y="468"/>
      <point x="120" y="401" type="curve" smooth="yes"/>
      <point x="120" y="344"/>
      <point x="147" y="305"/>
      <point x="197" y="289" type="curve"/>
      <point x="197" y="287" type="line"/>
      <point x="148" y="271"/>
      <point x="120" y="231"/>
      <point x="120" y="176" type="curve" smooth="yes"/>
      <point x="120" y="109"/>
      <point x="139" y="70"/>
      <point x="139" y="-16" type="curve" smooth="yes"/>
      <point x="139" y="-57"/>
      <point x="114" y="-87"/>
      <point x="39" y="-86" type="curve"/>
      <point x="39" y="-129" type="line"/>
    </contour>
  </outline>
</glyph>
<glyph name="asciitilde" format="1">
  <advance width="500"/>
  <unicode hex="007E"/>
  <outline>
    <contour>
      <point x="66" y="252"/>
      <point x="103" y="289"/>
      <point x="156" y="289" type="curve" smooth="yes"/>
      <point x="224" y="289"/>
      <point x="267" y="220"/>
      <point x="346" y="220" type="curve" smooth="yes"/>
      <point x="419" y="220"/>
      <point x="463" y="269"/>
      <point x="496" y="310" type="curve"/>
      <point x="462" y="340" type="line"/>
      <point x="436" y="303"/>
      <point x="399" y="268"/>
      <point x="346" y="268" type="curve" smooth="yes"/>
      <point x="280" y="268"/>
      <point x="240" y="337"/>
      <point x="156" y="337" type="curve" smooth="yes"/>
      <point x="83" y="337"/>
      <point x="37" y="287"/>
      <point x="5" y="246" type="curve"/>
      <point x="38" y="214" type="line"/>
    </contour>
  </outline>
</glyph>
<glyph name="cent" format="1">
  <advance width="500"/>
  <unicode hex="00A2"/>
  <outline>
    <contour>
      <point x="363" y="62"/>
      <point x="426" y="109"/>
      <point x="466" y="162" type="curve"/>
      <point x="438" y="197" type="line"/>
      <point x="401" y="148"/>
      <point x="349" y="108"/>
      <point x="274" y="108" type="curve"/>
      <point x="156" y="108"/>
      <point x="92" y="208"/>
      <point x="92" y="339" type="curve"/>
      <point x="92" y="468"/>
      <point x="159" y="569"/>
      <point x="284" y="569" type="curve"/>
      <point x="337" y="569"/>
      <point x="392" y="544"/>
      <point x="424" y="503" type="curve"/>
      <point x="456" y="540" type="line"/>
      <point x="416" y="588"/>
      <point x="352" y="615"/>
      <point x="284" y="615" type="curve"/>
      <point x="115" y="615"/>
      <point x="35" y="484"/>
      <point x="35" y="338" type="curve"/>
      <point x="35" y="193"/>
      <point x="112" y="62"/>
      <point x="274" y="62" type="curve"/>
    </contour>
    <contour>
      <point x="290" y="-77" type="line"/>
      <point x="290" y="754" type="line"/>
      <point x="237" y="754" type="line"/>
      <point x="237" y="-77" type="line"/>
    </contour>
  </outline>
</glyph>
<glyph name="currency" format="1">
  <advance width="500"/>
  <unicode hex="00A4"/>
  <outline>
    <contour>
      <point x="348" y="109"/>
      <point x="404" y="183"/>
      <point x="404" y="268" type="curve"/>
      <point x="404" y="349"/>
      <point x="348" y="425"/>
      <point x="250" y="425" type="curve"/>
      <point x="153" y="425"/>
      <point x="97" y="349"/>
      <point x="97" y="266" type="curve"/>
      <point x="97" y="183"/>
      <point x="153" y="109"/>
      <point x="250" y="109" type="curve"/>
    </contour>
    <contour>
      <point x="160" y="145" type="line"/>
      <point x="129" y="176" type="line"/>
      <point x="81" y="128" type="line"/>
      <point x="112" y="97" type="line"/>
    </contour>
    <contour>
      <point x="419" y="128" type="line"/>
      <point x="366" y="181" type="line"/>
      <point x="335" y="150" type="line"/>
      <point x="388" y="97" type="line"/>
    </contour>
    <contour>
      <point x="186" y="146"/>
      <point x="141" y="198"/>
      <point x="141" y="267" type="curve"/>
      <point x="141" y="335"/>
      <point x="186" y="388"/>
      <point x="250" y="388" type="curve"/>
      <point x="315" y="388"/>
      <point x="360" y="335"/>
      <point x="360" y="267" type="curve"/>
      <point x="360" y="198"/>
      <point x="315" y="146"/>
      <point x="250" y="146" type="curve"/>
    </contour>
    <contour>
      <point x="166" y="381" type="line"/>
      <point x="112" y="435" type="line"/>
      <point x="81" y="404" type="line"/>
      <point x="135" y="350" type="line"/>
    </contour>
    <contour>
      <point x="419" y="404" type="line"/>
      <point x="388" y="435" type="line"/>
      <point x="336" y="383" type="line"/>
      <point x="367" y="352" type="line"/>
    </contour>
  </outline>
</glyph>
<glyph name="yen" format="1">
  <advance width="500"/>
  <unicode hex="00A5"/>
  <outline>
    <contour>
      <point x="256" y="415" type="line"/>
      <point x="102" y="680" type="line"/>
      <point x="39" y="680" type="line"/>
      <point x="229" y="372" type="line"/>
    </contour>
    <contour>
      <point x="277" y="0" type="line"/>
      <point x="277" y="417" type="line"/>
      <point x="222" y="417" type="line"/>
      <point x="222" y="0" type="line"/>
    </contour>
    <contour>
      <point x="434" y="260" type="line"/>
      <point x="434" y="305" type="line"/>
      <point x="64" y="305" type="line"/>
      <point x="64" y="260" type="line"/>
    </contour>
    <contour>
      <point x="434" y="380" type="line"/>
      <point x="434" y="425" type="line"/>
      <point x="64" y="425" type="line"/>
      <point x="64" y="380" type="line"/>
    </contour>
    <contour>
      <point x="459" y="680" type="line"/>
      <point x="399" y="680" type="line"/>
      <point x="244" y="416" type="line"/>
      <point x="269" y="373" type="line"/>
    </contour>
  </outline>
</glyph>
<glyph name="brokenbar" format="1">
  <advance width="337"/>
  <unicode hex="00A6"/>
  <outline>
    <contour>
      <point x="196" y="399" type="line"/>
      <point x="196" y="807" type="line"/>
      <point x="140" y="807" type="line"/>
      <point x="140" y="399" type="line"/>
    </contour>
    <contour>
      <point x="196" y="-236" type="line"/>
      <point x="196" y="172" type="line"/>
      <point x="140" y="172" type="line"/>
      <point x="140" y="-236" type="line"/>
    </contour>
  </outline>
</glyph>
<glyph name="section" format="1">
  <advance width="604"/>
  <unicode hex="00A7"/>
  <outline>
    <contour>
      <point x="394" y="-140"/>
      <point x="476" y="-89"/>
      <point x="476" y="19" type="curve"/>
      <point x="476" y="198"/>
      <point x="189" y="146"/>
      <point x="189" y="280" type="curve"/>
      <point x="189" y="341"/>
      <point x="234" y="380"/>
      <point x="296" y="409" type="curve"/>
      <point x="253" y="439" type="line"/>
      <point x="188" y="396"/>
      <point x="137" y="350"/>
      <point x="137" y="280" type="curve" smooth="yes"/>
      <point x="137" y="100"/>
      <point x="424" y="152"/>
      <point x="424" y="18" type="curve" smooth="yes"/>
      <point x="424" y="-61"/>
      <point x="366" y="-95"/>
      <point x="298" y="-95" type="curve" smooth="yes"/>
      <point x="244" y="-95"/>
      <point x="194" y="-76"/>
      <point x="155" y="-42" type="curve"/>
      <point x="131" y="-84" type="line"/>
      <point x="178" y="-120"/>
      <point x="227" y="-140"/>
      <point x="298" y="-140" type="curve" smooth="yes"/>
    </contour>
    <contour>
      <point x="441" y="154"/>
      <point x="492" y="200"/>
      <point x="492" y="270" type="curve" smooth="yes"/>
      <point x="492" y="456"/>
      <point x="205" y="402"/>
      <point x="205" y="542" type="curve" smooth="yes"/>
      <point x="205" y="607"/>
      <point x="255" y="635"/>
      <point x="313" y="635" type="curve" smooth="yes"/>
      <point x="367" y="635"/>
      <point x="417" y="616"/>
      <point x="456" y="582" type="curve"/>
      <point x="480" y="624" type="line"/>
      <point x="433" y="660"/>
      <point x="384" y="680"/>
      <point x="313" y="680" type="curve" smooth="yes"/>
      <point x="227" y="680"/>
      <point x="153" y="635"/>
      <point x="153" y="541" type="curve"/>
      <point x="153" y="356"/>
      <point x="440" y="410"/>
      <point x="440" y="270" type="curve"/>
      <point x="440" y="209"/>
      <point x="395" y="170"/>
      <point x="333" y="141" type="curve"/>
      <point x="376" y="111" type="line"/>
    </contour>
  </outline>
</glyph>
<glyph name="dieresis" format="1">
  <advance width="500"/>
  <unicode hex="00A8"/>
  <outline>
    <contour>
      <point x="362" y="722"/>
      <point x="380" y="740"/>
      <point x="380" y="760" type="curve"/>
      <point x="380" y="782"/>
      <point x="362" y="800"/>
      <point x="340" y="800" type="curve"/>
      <point x="319" y="800"/>
      <point x="301" y="782"/>
      <point x="301" y="760" type="curve"/>
      <point x="301" y="740"/>
      <point x="319" y="722"/>
      <point x="340" y="722" type="curve"/>
    </contour>
    <contour>
      <point x="182" y="722"/>
      <point x="200" y="740"/>
      <point x="200" y="760" type="curve"/>
      <point x="200" y="782"/>
      <point x="182" y="800"/>
      <point x="160" y="800" type="curve"/>
      <point x="139" y="800"/>
      <point x="121" y="782"/>
      <point x="121" y="760" type="curve"/>
      <point x="121" y="740"/>
      <point x="139" y="722"/>
      <point x="160" y="722" type="curve"/>
    </contour>
    <contour>
      <point x="250" y="580" type="move" name="_top"/>
    </contour>
  </outline>
</glyph>
<glyph name="copyright" format="1">
  <advance width="819"/>
  <unicode hex="00A9"/>
  <outline>
    <contour>
      <point x="602" y="-16"/>
      <point x="759" y="145"/>
      <point x="759" y="344" type="curve" smooth="yes"/>
      <point x="759" y="537"/>
      <point x="602" y="694"/>
      <point x="409" y="694" type="curve" smooth="yes"/>
      <point x="217" y="694"/>
      <point x="60" y="537"/>
      <point x="60" y="344" type="curve" smooth="yes"/>
      <point x="60" y="145"/>
      <point x="217" y="-16"/>
      <point x="409" y="-16" type="curve" smooth="yes"/>
    </contour>
    <contour>
      <point x="478" y="161"/>
      <point x="525" y="193"/>
      <point x="554" y="230" type="curve"/>
      <point x="527" y="255" type="line"/>
      <point x="502" y="223"/>
      <point x="465" y="200"/>
      <point x="413" y="200" type="curve"/>
      <point x="338" y="200"/>
      <point x="284" y="260"/>
      <point x="284" y="339" type="curve"/>
      <point x="284" y="416"/>
      <point x="340" y="476"/>
      <point x="420" y="476" type="curve"/>
      <point x="456" y="476"/>
      <point x="495" y="460"/>
      <point x="517" y="436" type="curve"/>
      <point x="547" y="462" type="line"/>
      <point x="517" y="496"/>
      <point x="470" y="516"/>
      <point x="420" y="516" type="curve"/>
      <point x="306" y="516"/>
      <point x="238" y="432"/>
      <point x="238" y="339" type="curve"/>
      <point x="238" y="246"/>
      <point x="304" y="161"/>
      <point x="413" y="161" type="curve"/>
    </contour>
    <contour>
      <point x="241" y="24"/>
      <point x="105" y="167"/>
      <point x="105" y="344" type="curve" smooth="yes"/>
      <point x="105" y="516"/>
      <point x="241" y="654"/>
      <point x="409" y="654" type="curve" smooth="yes"/>
      <point x="576" y="654"/>
      <point x="714" y="516"/>
      <point x="714" y="344" type="curve" smooth="yes"/>
      <point x="714" y="167"/>
      <point x="577" y="24"/>
      <point x="409" y="24" type="curve" smooth="yes"/>
    </contour>
  </outline>
</glyph>
<glyph name="ordfeminine" format="1">
  <advance width="318"/>
  <unicode hex="00AA"/>
  <outline>
    <contour>
      <point x="233" y="453" type="line"/>
      <point x="186" y="417"/>
      <point x="151" y="393"/>
      <point x="114" y="393" type="curve" smooth="yes"/>
      <point x="92" y="393"/>
      <point x="74" y="404"/>
      <point x="74" y="427" type="curve" smooth="yes"/>
      <point x="74" y="472"/>
      <point x="119" y="493"/>
      <point x="233" y="521" type="curve"/>
      <point x="233" y="558" type="line"/>
      <point x="106" y="525"/>
      <point x="31" y="501"/>
      <point x="31" y="426" type="curve" smooth="yes"/>
      <point x="31" y="386"/>
      <point x="64" y="356"/>
      <point x="113" y="356" type="curve" smooth="yes"/>
      <point x="153" y="356"/>
      <point x="197" y="383"/>
      <point x="235" y="417" type="curve"/>
    </contour>
    <contour>
      <point x="221" y="414" type="line" smooth="yes"/>
      <point x="221" y="368"/>
      <point x="243" y="357"/>
      <point x="268" y="357" type="curve" smooth="yes"/>
      <point x="280" y="357"/>
      <point x="290" y="360"/>
      <point x="303" y="365" type="curve"/>
      <point x="297" y="399" type="line"/>
      <point x="290" y="395"/>
      <point x="284" y="393"/>
      <point x="279" y="393" type="curve" smooth="yes"/>
      <point x="268" y="393"/>
      <point x="264" y="400"/>
      <point x="264" y="414" type="curve" smooth="yes"/>
      <point x="264" y="582" type="line" smooth="yes"/>
      <point x="264" y="658"/>
      <point x="235" y="690"/>
      <point x="164" y="690" type="curve" smooth="yes"/>
      <point x="112" y="690"/>
      <point x="69" y="662"/>
      <point x="32" y="616" type="curve"/>
      <point x="62" y="591" type="line"/>
      <point x="102" y="640"/>
      <point x="128" y="652"/>
      <point x="165" y="652" type="curve" smooth="yes"/>
      <point x="213" y="652"/>
      <point x="221" y="616"/>
      <point x="221" y="583" type="curve" smooth="yes"/>
    </contour>
    <contour>
      <point x="32" y="220" type="line"/>
      <point x="292" y="220" type="line"/>
      <point x="292" y="259" type="line"/>
      <point x="32" y="259" type="line"/>
    </contour>
  </outline>
</glyph>
<glyph name="logicalnot" format="1">
  <advance width="500"/>
  <unicode hex="00AC"/>
  <outline>
    <contour>
      <point x="467" y="244" type="line"/>
      <point x="467" y="288" type="line"/>
      <point x="33" y="288" type="line"/>
      <point x="33" y="244" type="line"/>
    </contour>
    <contour>
      <point x="467" y="49" type="line"/>
      <point x="467" y="283" type="line"/>
      <point x="423" y="283" type="line"/>
      <point x="423" y="49" type="line"/>
    </contour>
  </outline>
</glyph>
<glyph name="registered" format="1">
  <advance width="341"/>
  <unicode hex="00AE"/>
  <outline>
    <contour>
      <point x="247" y="421"/>
      <point x="307" y="482"/>
      <point x="307" y="557" type="curve" smooth="yes"/>
      <point x="307" y="633"/>
      <point x="247" y="694"/>
      <point x="171" y="694" type="curve" smooth="yes"/>
      <point x="95" y="694"/>
      <point x="34" y="633"/>
      <point x="34" y="557" type="curve" smooth="yes"/>
      <point x="34" y="482"/>
      <point x="95" y="421"/>
      <point x="171" y="421" type="curve" smooth="yes"/>
    </contour>
    <contour>
      <point x="151" y="490" type="line"/>
      <point x="151" y="626" type="line"/>
      <point x="119" y="626" type="line"/>
      <point x="119" y="490" type="line"/>
    </contour>
    <contour>
      <point x="237" y="490" type="line"/>
      <point x="187" y="558" type="line"/>
      <point x="151" y="558" type="line"/>
      <point x="199" y="490" type="line"/>
    </contour>
    <contour>
      <point x="111" y="447"/>
      <point x="62" y="497"/>
      <point x="62" y="557" type="curve" smooth="yes"/>
      <point x="62" y="618"/>
      <point x="111" y="669"/>
      <point x="170" y="669" type="curve" smooth="yes"/>
      <point x="230" y="669"/>
      <point x="279" y="618"/>
      <point x="279" y="557" type="curve" smooth="yes"/>
      <point x="279" y="497"/>
      <point x="230" y="447"/>
      <point x="170" y="447" type="curve" smooth="yes"/>
    </contour>
    <contour>
      <point x="173" y="534" type="line"/>
      <point x="175" y="535" type="line"/>
      <point x="209" y="535"/>
      <point x="227" y="553"/>
      <point x="227" y="580" type="curve"/>
      <point x="227" y="606"/>
      <point x="208" y="626"/>
      <point x="173" y="626" type="curve"/>
      <point x="145" y="626" type="line"/>
      <point x="145" y="600" type="line"/>
      <point x="171" y="600" type="line"/>
      <point x="185" y="600"/>
      <point x="194" y="591"/>
      <point x="194" y="580" type="curve"/>
      <point x="194" y="567"/>
      <point x="185" y="560"/>
      <point x="171" y="560" type="curve"/>
      <point x="145" y="560" type="line"/>
      <point x="145" y="534" type="line"/>
    </contour>
  </outline>
</glyph>
<glyph name="macron" format="1">
  <advance width="500"/>
  <unicode hex="00AF"/>
  <outline>
    <contour>
      <point x="390" y="740" type="line"/>
      <point x="390" y="782" type="line"/>
      <point x="110" y="782" type="line"/>
      <point x="110" y="740" type="line"/>
    </contour>
    <contour>
      <point x="250" y="580" type="move" name="_top"/>
    </contour>
  </outline>
</glyph>
<glyph name="degree" format="1">
  <advance width="427"/>
  <unicode hex="00B0"/>
  <outline>
    <contour>
      <point x="311" y="378"/>
      <point x="367" y="452"/>
      <point x="367" y="537" type="curve"/>
      <point x="367" y="618"/>
      <point x="311" y="694"/>
      <point x="213" y="694" type="curve"/>
      <point x="116" y="694"/>
      <point x="60" y="618"/>
      <point x="60" y="535" type="curve"/>
      <point x="60" y="452"/>
      <point x="116" y="378"/>
      <point x="213" y="378" type="curve"/>
    </contour>
    <contour>
      <point x="149" y="415"/>
      <point x="104" y="467"/>
      <point x="104" y="536" type="curve"/>
      <point x="104" y="604"/>
      <point x="149" y="657"/>
      <point x="213" y="657" type="curve"/>
      <point x="278" y="657"/>
      <point x="323" y="604"/>
      <point x="323" y="536" type="curve"/>
      <point x="323" y="467"/>
      <point x="278" y="415"/>
      <point x="213" y="415" type="curve"/>
    </contour>
  </outline>
</glyph>
<glyph name="plusminus" format="1">
  <advance width="500"/>
  <unicode hex="00B1"/>
  <outline>
    <contour>
      <point x="467" y="269" type="line"/>
      <point x="467" y="313" type="line"/>
      <point x="33" y="313" type="line"/>
      <point x="33" y="269" type="line"/>
    </contour>
    <contour>
      <point x="467" y="0" type="line"/>
      <point x="467" y="44" type="line"/>
      <point x="33" y="44" type="line"/>
      <point x="33" y="0" type="line"/>
    </contour>
    <contour>
      <point x="272" y="109" type="line"/>
      <point x="272" y="483" type="line"/>
      <point x="228" y="483" type="line"/>
      <point x="228" y="109" type="line"/>
    </contour>
  </outline>
</glyph>
<glyph name="uni00B2" format="1">
  <advance width="300"/>
  <unicode hex="00B2"/>
  <outline>
    <contour>
      <point x="41" y="792" type="line"/>
      <point x="77" y="834"/>
      <point x="103" y="850"/>
      <point x="143" y="850" type="curve" smooth="yes"/>
      <point x="190" y="850"/>
      <point x="222" y="821"/>
      <point x="222" y="771" type="curve" smooth="yes"/>
      <point x="222" y="727"/>
      <point x="201" y="679"/>
      <point x="126" y="606" type="curve" smooth="yes"/>
      <point x="20" y="503" type="line"/>
      <point x="20" y="472" type="line"/>
      <point x="276" y="472" type="line"/>
      <point x="276" y="510" type="line"/>
      <point x="85" y="510" type="line"/>
      <point x="85" y="511" type="line"/>
      <point x="148" y="573" type="line" smooth="yes"/>
      <point x="240" y="663"/>
      <point x="265" y="714"/>
      <point x="265" y="771" type="curve" smooth="yes"/>
      <point x="265" y="842"/>
      <point x="218" y="887"/>
      <point x="143" y="887" type="curve" smooth="yes"/>
      <point x="91" y="887"/>
      <point x="51" y="865"/>
      <point x="14" y="815" type="curve"/>
    </contour>
  </outline>
</glyph>
<glyph name="threesuperior" format="1">
  <advance width="301"/>
  <unicode hex="00B3"/>
  <outline>
    <contour>
      <point x="217" y="731"/>
      <point x="163" y="713"/>
      <point x="79" y="692" type="curve"/>
      <point x="89" y="656" type="line"/>
      <point x="110" y="663"/>
      <point x="130" y="666"/>
      <point x="148" y="666" type="curve" smooth="yes"/>
      <point x="206" y="666"/>
      <point x="239" y="634"/>
      <point x="239" y="587" type="curve" smooth="yes"/>
      <point x="239" y="535"/>
      <point x="197" y="498"/>
      <point x="140" y="498" type="curve" smooth="yes"/>
      <point x="96" y="498"/>
      <point x="71" y="509"/>
      <point x="37" y="546" type="curve"/>
      <point x="11" y="518" type="line"/>
      <point x="46" y="473"/>
      <point x="85" y="461"/>
      <point x="140" y="461" type="curve" smooth="yes"/>
      <point x="228" y="461"/>
      <point x="283" y="519"/>
      <point x="283" y="588" type="curve" smooth="yes"/>
      <point x="283" y="663"/>
      <point x="211" y="703"/>
      <point x="144" y="689" type="curve"/>
      <point x="146" y="680" type="line"/>
      <point x="211" y="691"/>
      <point x="261" y="735"/>
      <point x="261" y="797" type="curve" smooth="yes"/>
      <point x="261" y="852"/>
      <point x="218" y="887"/>
      <point x="153" y="887" type="curve" smooth="yes"/>
      <point x="107" y="887"/>
      <point x="59" y="863"/>
      <point x="23" y="815" type="curve"/>
      <point x="49" y="794" type="line"/>
      <point x="83" y="834"/>
      <point x="118" y="850"/>
      <point x="153" y="850" type="curve" smooth="yes"/>
      <point x="193" y="850"/>
      <point x="217" y="828"/>
      <point x="217" y="797" type="curve" smooth="yes"/>
    </contour>
  </outline>
</glyph>
<glyph name="acute" format="1">
  <advance width="500"/>
  <unicode hex="00B4"/>
  <outline>
    <contour>
      <point x="217" y="589" type="line"/>
      <point x="327" y="801" type="line"/>
      <point x="270" y="801" type="line"/>
      <point x="173" y="589" type="line"/>
    </contour>
    <contour>
      <point x="197" y="580" type="move" name="_top"/>
    </contour>
  </outline>
</glyph>
<glyph name="paragraph" format="1">
  <advance width="588"/>
  <unicode hex="00B6"/>
  <outline>
    <contour>
      <point x="416" y="-245"/>
      <point x="468" y="-164"/>
      <point x="468" y="-26" type="curve" smooth="yes"/>
      <point x="468" y="680" type="line"/>
      <point x="412" y="680" type="line"/>
      <point x="412" y="-24" type="line" smooth="yes"/>
      <point x="412" y="-140"/>
      <point x="381" y="-196"/>
      <point x="298" y="-196" type="curve" smooth="yes"/>
      <point x="283" y="-196"/>
      <point x="272" y="-194"/>
      <point x="261" y="-191" type="curve"/>
      <point x="250" y="-237" type="line"/>
      <point x="265" y="-242"/>
      <point x="282" y="-245"/>
      <point x="298" y="-245" type="curve" smooth="yes"/>
    </contour>
    <contour>
      <point x="439" y="200" type="line"/>
      <point x="439" y="680" type="line"/>
      <point x="298" y="680" type="line"/>
      <point x="121" y="680"/>
      <point x="30" y="575"/>
      <point x="30" y="441" type="curve"/>
      <point x="30" y="299"/>
      <point x="121" y="200"/>
      <point x="298" y="200" type="curve"/>
    </contour>
    <contour>
      <point x="408" y="680" type="line"/>
      <point x="352" y="680" type="line"/>
    </contour>
  </outline>
</glyph>
<glyph name="periodcentered" format="1">
  <advance width="250"/>
  <unicode hex="00B7"/>
  <outline>
    <contour>
      <point x="149" y="222"/>
      <point x="168" y="241"/>
      <point x="168" y="264" type="curve" smooth="yes"/>
      <point x="168" y="287"/>
      <point x="149" y="307"/>
      <point x="125" y="307" type="curve" smooth="yes"/>
      <point x="102" y="307"/>
      <point x="83" y="287"/>
      <point x="83" y="264" type="curve" smooth="yes"/>
      <point x="83" y="241"/>
      <point x="102" y="222"/>
      <point x="125" y="222" type="curve" smooth="yes"/>
    </contour>
    <contour>
      <point x="125" y="264" type="move" name="_dot"/>
    </contour>
  </outline>
</glyph>
<glyph name="cedilla" format="1">
  <advance width="500"/>
  <unicode hex="00B8"/>
  <outline>
    <contour>
      <point x="289" y="-206"/>
      <point x="324" y="-173"/>
      <point x="324" y="-128" type="curve" smooth="yes"/>
      <point x="324" y="-95"/>
      <point x="297" y="-72"/>
      <point x="260" y="-72" type="curve" smooth="yes"/>
      <point x="243" y="-72"/>
      <point x="227" y="-77"/>
      <point x="216" y="-83" type="curve"/>
      <point x="221" y="-88" type="line"/>
      <point x="268" y="0" type="line"/>
      <point x="226" y="0" type="line"/>
      <point x="176" y="-93" type="line"/>
      <point x="207" y="-120" type="line"/>
      <point x="221" y="-113"/>
      <point x="234" y="-109"/>
      <point x="247" y="-109" type="curve" smooth="yes"/>
      <point x="267" y="-109"/>
      <point x="277" y="-118"/>
      <point x="277" y="-134" type="curve" smooth="yes"/>
      <point x="277" y="-156"/>
      <point x="261" y="-176"/>
      <point x="191" y="-208" type="curve"/>
      <point x="211" y="-236" type="line"/>
    </contour>
    <contour>
      <point x="245" y="-10" type="move" name="_bottom"/>
    </contour>
  </outline>
</glyph>
<glyph name="onesuperior" format="1">
  <advance width="300"/>
  <unicode hex="00B9"/>
  <outline>
    <contour>
      <point x="188" y="472" type="line"/>
      <point x="188" y="880" type="line"/>
      <point x="151" y="880" type="line"/>
      <point x="145" y="869" type="line"/>
      <point x="145" y="472" type="line"/>
    </contour>
    <contour>
      <point x="77" y="757" type="line"/>
      <point x="177" y="852" type="line"/>
      <point x="151" y="880" type="line"/>
      <point x="51" y="786" type="line"/>
    </contour>
    <contour>
      <point x="65" y="472" type="line"/>
      <point x="268" y="472" type="line"/>
      <point x="268" y="510" type="line"/>
      <point x="65" y="510" type="line"/>
    </contour>
  </outline>
</glyph>
<glyph name="ordmasculine" format="1">
  <advance width="347"/>
  <unicode hex="00BA"/>
  <outline>
    <contour>
      <point x="173" y="395" type="curve"/>
      <point x="109" y="395"/>
      <point x="74" y="452"/>
      <point x="74" y="526" type="curve"/>
      <point x="74" y="599"/>
      <point x="109" y="657"/>
      <point x="173" y="657" type="curve"/>
      <point x="238" y="657"/>
      <point x="273" y="599"/>
      <point x="273" y="526" type="curve"/>
      <point x="273" y="452"/>
      <point x="238" y="395"/>
    </contour>
    <contour>
      <point x="173" y="358" type="curve"/>
      <point x="271" y="358"/>
      <point x="317" y="437"/>
      <point x="317" y="527" type="curve"/>
      <point x="317" y="614"/>
      <point x="271" y="694"/>
      <point x="173" y="694" type="curve"/>
      <point x="76" y="694"/>
      <point x="30" y="614"/>
      <point x="30" y="525" type="curve"/>
      <point x="30" y="437"/>
      <point x="76" y="358"/>
    </contour>
    <contour>
      <point x="44" y="220" type="line"/>
      <point x="303" y="220" type="line"/>
      <point x="303" y="259" type="line"/>
      <point x="44" y="259" type="line"/>
    </contour>
  </outline>
</glyph>
<glyph name="AE" format="1">
  <advance width="979"/>
  <unicode hex="00C6"/>
  <outline>
    <contour>
      <point x="90" y="0" type="line"/>
      <point x="553" y="680" type="line"/>
      <point x="495" y="680" type="line"/>
      <point x="25" y="0" type="line"/>
    </contour>
    <contour>
      <point x="919" y="0" type="line"/>
      <point x="919" y="46" type="line"/>
      <point x="549" y="46" type="line"/>
      <point x="549" y="0" type="line"/>
    </contour>
    <contour>
      <point x="576" y="0" type="line"/>
      <point x="576" y="680" type="line"/>
      <point x="520" y="680" type="line"/>
      <point x="520" y="0" type="line"/>
    </contour>
    <contour>
      <point x="534" y="307" type="line"/>
      <point x="556" y="307" type="line"/>
      <point x="859" y="307" type="line"/>
      <point x="859" y="353" type="line"/>
      <point x="555" y="353" type="line"/>
      <point x="533" y="353" type="line"/>
      <point x="289" y="353" type="line"/>
      <point x="289" y="307" type="line"/>
    </contour>
    <contour>
      <point x="899" y="634" type="line"/>
      <point x="899" y="680" type="line"/>
      <point x="539" y="680" type="line"/>
      <point x="539" y="634" type="line"/>
    </contour>
    <contour>
      <point x="550" y="730" type="move" name="top"/>
    </contour>
  </outline>
</glyph>
<glyph name="Oslash" format="1">
  <advance width="805"/>
  <unicode hex="00D8"/>
  <outline>
    <contour>
      <point x="696" y="667" type="line"/>
      <point x="665" y="695" type="line"/>
      <point x="60" y="6" type="line"/>
      <point x="92" y="-22" type="line"/>
    </contour>
    <component base="O"/>
  </outline>
</glyph>
<glyph name="Thorn" format="1">
  <advance width="641"/>
  <unicode hex="00DE"/>
  <outline>
    <contour>
      <point x="330" y="160" type="line"/>
      <point x="481" y="160"/>
      <point x="558" y="239"/>
      <point x="558" y="351" type="curve"/>
      <point x="558" y="457"/>
      <point x="481" y="540"/>
      <point x="330" y="540" type="curve"/>
      <point x="149" y="540" type="line"/>
      <point x="149" y="494" type="line"/>
      <point x="330" y="494" type="line"/>
      <point x="441" y="494"/>
      <point x="502" y="436"/>
      <point x="502" y="350" type="curve"/>
      <point x="502" y="254"/>
      <point x="441" y="206"/>
      <point x="330" y="206" type="curve"/>
      <point x="149" y="206" type="line"/>
      <point x="149" y="160" type="line"/>
    </contour>
    <contour>
      <point x="176" y="0" type="line"/>
      <point x="176" y="680" type="line"/>
      <point x="120" y="680" type="line"/>
      <point x="120" y="0" type="line"/>
    </contour>
  </outline>
</glyph>
<glyph name="germandbls" format="1">
  <advance width="562"/>
  <unicode hex="00DF"/>
  <outline>
    <contour>
      <point x="436" y="-20"/>
      <point x="512" y="39"/>
      <point x="512" y="135" type="curve" smooth="yes"/>
      <point x="512" y="316"/>
      <point x="305" y="289"/>
      <point x="305" y="407" type="curve"/>
      <point x="305" y="514"/>
      <point x="478" y="516"/>
      <point x="478" y="655" type="curve" smooth="yes"/>
      <point x="478" y="745"/>
      <point x="415" y="800"/>
      <point x="306" y="800" type="curve" smooth="yes"/>
      <point x="171" y="800"/>
      <point x="100" y="719"/>
      <point x="100" y="581" type="curve" smooth="yes"/>
      <point x="100" y="0" type="line"/>
      <point x="154" y="0" type="line"/>
      <point x="154" y="579" type="line" smooth="yes"/>
      <point x="154" y="696"/>
      <point x="204" y="753"/>
      <point x="306" y="753" type="curve" smooth="yes"/>
      <point x="381" y="753"/>
      <point x="424" y="720"/>
      <point x="424" y="658" type="curve" smooth="yes"/>
      <point x="424" y="539"/>
      <point x="253" y="540"/>
      <point x="253" y="406" type="curve" smooth="yes"/>
      <point x="253" y="249"/>
      <point x="460" y="276"/>
      <point x="460" y="135" type="curve"/>
      <point x="460" y="65"/>
      <point x="408" y="25"/>
      <point x="348" y="25" type="curve" smooth="yes"/>
      <point x="304" y="25"/>
      <point x="269" y="40"/>
      <point x="244" y="61" type="curve"/>
      <point x="220" y="19" type="line"/>
      <point x="252" y="-5"/>
      <point x="291" y="-20"/>
      <point x="348" y="-20" type="curve" smooth="yes"/>
    </contour>
  </outline>
</glyph>
<glyph name="ae" format="1">
  <advance width="850"/>
  <unicode hex="00E6"/>
  <outline>
    <contour>
      <point x="697" y="-20"/>
      <point x="759" y="29"/>
      <point x="800" y="83" type="curve"/>
      <point x="772" y="117" type="line"/>
      <point x="734" y="67"/>
      <point x="683" y="25"/>
      <point x="608" y="25" type="curve"/>
      <point x="489" y="25"/>
      <point x="425" y="126"/>
      <point x="425" y="260" type="curve"/>
      <point x="425" y="392"/>
      <point x="489" y="495"/>
      <point x="608" y="495" type="curve"/>
      <point x="671" y="495"/>
      <point x="741" y="454"/>
      <point x="741" y="361" type="curve" smooth="yes"/>
      <point x="741" y="346"/>
      <point x="739" y="330"/>
      <point x="735" y="312" type="curve"/>
      <point x="791" y="312" type="line"/>
      <point x="794" y="329"/>
      <point x="796" y="345"/>
      <point x="796" y="360" type="curve" smooth="yes"/>
      <point x="796" y="475"/>
      <point x="707" y="540"/>
      <point x="608" y="540" type="curve"/>
      <point x="446" y="540"/>
      <point x="369" y="407"/>
      <point x="369" y="259" type="curve"/>
      <point x="369" y="112"/>
      <point x="446" y="-20"/>
      <point x="608" y="-20" type="curve"/>
    </contour>
    <contour>
      <point x="262" y="-16"/>
      <point x="343" y="37"/>
      <point x="415" y="104" type="curve"/>
      <point x="408" y="149" type="line"/>
      <point x="321" y="77"/>
      <point x="258" y="29"/>
      <point x="190" y="29" type="curve" smooth="yes"/>
      <point x="145" y="29"/>
      <point x="106" y="49"/>
      <point x="106" y="107" type="curve" smooth="yes"/>
      <point x="106" y="170"/>
      <point x="161" y="204"/>
      <point x="295" y="242" type="curve" smooth="yes"/>
      <point x="388" y="267" type="line"/>
      <point x="388" y="312" type="line"/>
      <point x="276" y="281" type="line" smooth="yes"/>
      <point x="138" y="242"/>
      <point x="52" y="203"/>
      <point x="52" y="107" type="curve" smooth="yes"/>
      <point x="52" y="36"/>
      <point x="107" y="-16"/>
      <point x="189" y="-16" type="curve" smooth="yes"/>
    </contour>
    <contour>
      <point x="423" y="259" type="line"/>
      <point x="423" y="360" type="line" smooth="yes"/>
      <point x="423" y="487"/>
      <point x="386" y="540"/>
      <point x="274" y="540" type="curve" smooth="yes"/>
      <point x="187" y="540"/>
      <point x="115" y="494"/>
      <point x="53" y="416" type="curve"/>
      <point x="91" y="387" type="line"/>
      <point x="162" y="474"/>
      <point x="208" y="493"/>
      <point x="275" y="493" type="curve" smooth="yes"/>
      <point x="355" y="493"/>
      <point x="369" y="425"/>
      <point x="369" y="361" type="curve" smooth="yes"/>
      <point x="369" y="259" type="line"/>
    </contour>
    <contour>
      <point x="764" y="312" type="line"/>
      <point x="764" y="356" type="line"/>
      <point x="405" y="356" type="line"/>
      <point x="405" y="312" type="line"/>
    </contour>
    <contour>
      <point x="425" y="580" type="move" name="top"/>
    </contour>
  </outline>
</glyph>
<glyph name="eth" format="1">
  <advance width="604"/>
  <unicode hex="00F0"/>
  <outline>
    <contour>
      <point x="430" y="-21"/>
      <point x="527" y="101"/>
      <point x="527" y="291" type="curve" smooth="yes"/>
      <point x="527" y="512"/>
      <point x="399" y="732"/>
      <point x="135" y="802" type="curve"/>
      <point x="116" y="759" type="line"/>
      <point x="362" y="693"/>
      <point x="471" y="488"/>
      <point x="471" y="288" type="curve" smooth="yes"/>
      <point x="471" y="120"/>
      <point x="400" y="25"/>
      <point x="294" y="25" type="curve" smooth="yes"/>
      <point x="167" y="25"/>
      <point x="106" y="132"/>
      <point x="106" y="260" type="curve" smooth="yes"/>
      <point x="106" y="397"/>
      <point x="170" y="494"/>
      <point x="287" y="494" type="curve" smooth="yes"/>
      <point x="370" y="494"/>
      <point x="437" y="451"/>
      <point x="489" y="343" type="curve"/>
      <point x="501" y="374" type="line"/>
      <point x="474" y="460"/>
      <point x="396" y="540"/>
      <point x="287" y="540" type="curve" smooth="yes"/>
      <point x="133" y="540"/>
      <point x="50" y="409"/>
      <point x="50" y="260" type="curve" smooth="yes"/>
      <point x="50" y="111"/>
      <point x="129" y="-21"/>
      <point x="294" y="-21" type="curve" smooth="yes"/>
    </contour>
    <contour>
      <point x="449" y="766" type="line"/>
      <point x="431" y="801" type="line"/>
      <point x="134" y="627" type="line"/>
      <point x="153" y="592" type="line"/>
    </contour>
  </outline>
</glyph>
<glyph name="divide" format="1">
  <advance width="500"/>
  <unicode hex="00F7"/>
  <outline>
    <contour>
      <point x="467" y="244" type="line"/>
      <point x="467" y="288" type="line"/>
      <point x="33" y="288" type="line"/>
      <point x="33" y="244" type="line"/>
    </contour>
    <contour>
      <point x="273" y="34"/>
      <point x="292" y="53"/>
      <point x="292" y="76" type="curve" smooth="yes"/>
      <point x="292" y="99"/>
      <point x="273" y="119"/>
      <point x="249" y="119" type="curve" smooth="yes"/>
      <point x="226" y="119"/>
      <point x="207" y="99"/>
      <point x="207" y="76" type="curve" smooth="yes"/>
      <point x="207" y="53"/>
      <point x="226" y="34"/>
      <point x="249" y="34" type="curve" smooth="yes"/>
    </contour>
    <contour>
      <point x="273" y="414"/>
      <point x="292" y="433"/>
      <point x="292" y="456" type="curve" smooth="yes"/>
      <point x="292" y="479"/>
      <point x="273" y="499"/>
      <point x="249" y="499" type="curve" smooth="yes"/>
      <point x="226" y="499"/>
      <point x="207" y="479"/>
      <point x="207" y="456" type="curve" smooth="yes"/>
      <point x="207" y="433"/>
      <point x="226" y="414"/>
      <point x="249" y="414" type="curve" smooth="yes"/>
    </contour>
  </outline>
</glyph>
<glyph name="oslash" format="1">
  <advance width="578"/>
  <unicode hex="00F8"/>
  <outline>
    <contour>
      <point x="528" y="514" type="line"/>
      <point x="497" y="540" type="line"/>
      <point x="50" y="5" type="line"/>
      <point x="82" y="-21" type="line"/>
    </contour>
    <component base="o"/>
  </outline>
</glyph>
<glyph name="thorn" format="1">
  <advance width="565"/>
  <unicode hex="00FE"/>
  <outline>
    <contour>
      <point x="411" y="-20"/>
      <point x="515" y="80"/>
      <point x="515" y="276" type="curve" smooth="yes"/>
      <point x="515" y="442"/>
      <point x="432" y="540"/>
      <point x="312" y="540" type="curve" smooth="yes"/>
      <point x="240" y="540"/>
      <point x="183" y="508"/>
      <point x="142" y="467" type="curve"/>
      <point x="142" y="421" type="line"/>
      <point x="204" y="471"/>
      <point x="244" y="493"/>
      <point x="312" y="493" type="curve" smooth="yes"/>
      <point x="382" y="493"/>
      <point x="459" y="438"/>
      <point x="459" y="276" type="curve" smooth="yes"/>
      <point x="459" y="133"/>
      <point x="402" y="25"/>
      <point x="263" y="25" type="curve" smooth="yes"/>
      <point x="204" y="25"/>
      <point x="164" y="42"/>
      <point x="136" y="65" type="curve"/>
      <point x="114" y="30" type="line"/>
      <point x="146" y="7"/>
      <point x="193" y="-20"/>
      <point x="264" y="-20" type="curve" smooth="yes"/>
    </contour>
    <contour>
      <point x="154" y="-237" type="line"/>
      <point x="154" y="445" type="line"/>
      <point x="154" y="800" type="line"/>
      <point x="100" y="800" type="line"/>
      <point x="100" y="-237" type="line"/>
    </contour>
  </outline>
</glyph>
<glyph name="Dcroat" format="1">
  <advance width="718"/>
  <unicode hex="0110"/>
  <outline>
    <contour>
      <point x="393" y="319" type="line"/>
      <point x="393" y="361" type="line"/>
      <point x="3" y="361" type="line"/>
      <point x="3" y="319" type="line"/>
    </contour>
    <component base="D"/>
  </outline>
</glyph>
<glyph name="dcroat" format="1">
  <advance width="565"/>
  <unicode hex="0111"/>
  <outline>
    <contour>
      <point x="565" y="629" type="line"/>
      <point x="565" y="671" type="line"/>
      <point x="254" y="671" type="line"/>
      <point x="254" y="629" type="line"/>
    </contour>
    <component base="d"/>
  </outline>
</glyph>
<glyph name="Hbar" format="1">
  <advance width="755"/>
  <unicode hex="0126"/>
  <outline>
    <contour>
      <point x="754" y="511" type="line"/>
      <point x="754" y="553" type="line"/>
      <point x="3" y="553" type="line"/>
      <point x="3" y="511" type="line"/>
    </contour>
    <component base="H"/>
  </outline>
</glyph>
<glyph name="dotlessi" format="1">
  <advance width="271"/>
  <unicode hex="0131"/>
  <outline>
    <contour>
      <point x="162" y="0" type="line"/>
      <point x="162" y="520" type="line"/>
      <point x="108" y="520" type="line"/>
      <point x="108" y="0" type="line"/>
    </contour>
    <contour>
      <point x="136" y="580" type="move" name="top"/>
    </contour>
  </outline>
</glyph>
<glyph name="kgreenlandic" format="1">
  <advance width="624"/>
  <unicode hex="0138"/>
  <outline>
    <contour>
      <point x="500" y="0" type="line"/>
      <point x="228" y="302" type="line"/>
      <point x="228" y="275" type="line"/>
      <point x="461" y="520" type="line"/>
      <point x="398" y="520" type="line"/>
      <point x="185" y="295" type="line"/>
      <point x="185" y="275" type="line"/>
      <point x="433" y="0" type="line"/>
    </contour>
    <contour>
      <point x="154" y="0" type="line"/>
      <point x="154" y="520" type="line"/>
      <point x="100" y="520" type="line"/>
      <point x="100" y="0" type="line"/>
    </contour>
  </outline>
</glyph>
<glyph name="Lslash" format="1">
  <advance width="559"/>
  <unicode hex="0141"/>
  <outline>
    <contour>
      <point x="364" y="395" type="line"/>
      <point x="341" y="430" type="line"/>
      <point x="12" y="221" type="line"/>
      <point x="35" y="185" type="line"/>
    </contour>
    <component base="L"/>
  </outline>
</glyph>
<glyph name="lslash" format="1">
  <advance width="254"/>
  <unicode hex="0142"/>
  <outline>
    <contour>
      <point x="265" y="473" type="line"/>
      <point x="241" y="507" type="line"/>
      <point x="-11" y="327" type="line"/>
      <point x="13" y="293" type="line"/>
    </contour>
    <component base="l"/>
  </outline>
</glyph>
<glyph name="OE" format="1">
  <advance width="1001"/>
  <unicode hex="0152"/>
  <outline>
    <contour>
      <point x="569" y="0" type="line"/>
      <point x="569" y="46" type="line"/>
      <point x="378" y="46" type="line"/>
      <point x="208" y="46"/>
      <point x="116" y="165"/>
      <point x="116" y="340" type="curve"/>
      <point x="116" y="518"/>
      <point x="208" y="634"/>
      <point x="378" y="634" type="curve"/>
      <point x="569" y="634" type="line"/>
      <point x="569" y="680" type="line"/>
      <point x="378" y="680" type="line"/>
      <point x="168" y="680"/>
      <point x="60" y="535"/>
      <point x="60" y="339" type="curve"/>
      <point x="60" y="148"/>
      <point x="168" y="0"/>
      <point x="378" y="0" type="curve"/>
    </contour>
    <contour>
      <point x="941" y="0" type="line"/>
      <point x="941" y="46" type="line"/>
      <point x="571" y="46" type="line"/>
      <point x="571" y="0" type="line"/>
    </contour>
    <contour>
      <point x="598" y="0" type="line"/>
      <point x="598" y="680" type="line"/>
      <point x="542" y="680" type="line"/>
      <point x="542" y="0" type="line"/>
    </contour>
    <contour>
      <point x="881" y="337" type="line"/>
      <point x="881" y="383" type="line"/>
      <point x="571" y="383" type="line"/>
      <point x="571" y="337" type="line"/>
    </contour>
    <contour>
      <point x="921" y="634" type="line"/>
      <point x="921" y="680" type="line"/>
      <point x="571" y="680" type="line"/>
      <point x="571" y="634" type="line"/>
    </contour>
  </outline>
</glyph>
<glyph name="oe" format="1">
  <advance width="953"/>
  <unicode hex="0153"/>
  <outline>
    <contour>
      <point x="451" y="-20"/>
      <point x="528" y="112"/>
      <point x="528" y="261" type="curve"/>
      <point x="528" y="407"/>
      <point x="451" y="540"/>
      <point x="289" y="540" type="curve"/>
      <point x="127" y="540"/>
      <point x="50" y="407"/>
      <point x="50" y="259" type="curve"/>
      <point x="50" y="112"/>
      <point x="127" y="-20"/>
      <point x="289" y="-20" type="curve"/>
    </contour>
    <contour>
      <point x="170" y="25"/>
      <point x="106" y="126"/>
      <point x="106" y="260" type="curve"/>
      <point x="106" y="392"/>
      <point x="170" y="495"/>
      <point x="289" y="495" type="curve"/>
      <point x="408" y="495"/>
      <point x="472" y="392"/>
      <point x="472" y="260" type="curve"/>
      <point x="472" y="126"/>
      <point x="408" y="25"/>
      <point x="289" y="25" type="curve"/>
    </contour>
    <contour>
      <point x="800" y="-20"/>
      <point x="862" y="29"/>
      <point x="903" y="83" type="curve"/>
      <point x="875" y="117" type="line"/>
      <point x="837" y="67"/>
      <point x="786" y="25"/>
      <point x="711" y="25" type="curve"/>
      <point x="592" y="25"/>
      <point x="528" y="126"/>
      <point x="528" y="260" type="curve"/>
      <point x="528" y="392"/>
      <point x="592" y="495"/>
      <point x="711" y="495" type="curve"/>
      <point x="774" y="495"/>
      <point x="844" y="454"/>
      <point x="844" y="361" type="curve" smooth="yes"/>
      <point x="844" y="346"/>
      <point x="842" y="330"/>
      <point x="838" y="312" type="curve"/>
      <point x="894" y="312" type="line"/>
      <point x="897" y="329"/>
      <point x="899" y="345"/>
      <point x="899" y="360" type="curve" smooth="yes"/>
      <point x="899" y="475"/>
      <point x="810" y="540"/>
      <point x="711" y="540" type="curve"/>
      <point x="549" y="540"/>
      <point x="472" y="407"/>
      <point x="472" y="259" type="curve"/>
      <point x="472" y="112"/>
      <point x="549" y="-20"/>
      <point x="711" y="-20" type="curve"/>
    </contour>
    <contour>
      <point x="869" y="312" type="line"/>
      <point x="869" y="356" type="line"/>
      <point x="510" y="356" type="line"/>
      <point x="510" y="312" type="line"/>
    </contour>
  </outline>
</glyph>
<glyph name="florin" format="1">
  <advance width="500"/>
  <unicode hex="0192"/>
  <outline>
    <contour>
      <point x="214" y="-173" type="line"/>
      <point x="266" y="474" type="line" smooth="yes"/>
      <point x="275" y="591"/>
      <point x="297" y="648"/>
      <point x="380" y="648" type="curve" smooth="yes"/>
      <point x="395" y="648"/>
      <point x="406" y="646"/>
      <point x="417" y="643" type="curve"/>
      <point x="428" y="687" type="line"/>
      <point x="413" y="692"/>
      <point x="396" y="695"/>
      <point x="380" y="695" type="curve" smooth="yes"/>
      <point x="263" y="695"/>
      <point x="224" y="614"/>
      <point x="213" y="476" type="curve" smooth="yes"/>
      <point x="161" y="-173" type="line"/>
    </contour>
    <contour>
      <point x="434" y="380" type="line"/>
      <point x="434" y="425" type="line"/>
      <point x="104" y="425" type="line"/>
      <point x="104" y="380" type="line"/>
    </contour>
  </outline>
</glyph>
<glyph name="uni0237" format="1">
  <advance width="254"/>
  <unicode hex="0237"/>
  <outline>
    <contour>
      <point x="103" y="-245"/>
      <point x="154" y="-164"/>
      <point x="154" y="-26" type="curve" smooth="yes"/>
      <point x="154" y="520" type="line"/>
      <point x="100" y="520" type="line"/>
      <point x="100" y="-24" type="line" smooth="yes"/>
      <point x="100" y="-141"/>
      <point x="69" y="-198"/>
      <point x="-14" y="-198" type="curve" smooth="yes"/>
      <point x="-29" y="-198"/>
      <point x="-40" y="-196"/>
      <point x="-51" y="-193" type="curve"/>
      <point x="-62" y="-237" type="line"/>
      <point x="-47" y="-242"/>
      <point x="-30" y="-245"/>
      <point x="-14" y="-245" type="curve" smooth="yes"/>
    </contour>
    <contour>
      <point x="127" y="580" type="move" name="top"/>
    </contour>
  </outline>
</glyph>
<glyph name="circumflex" format="1">
  <advance width="500"/>
  <unicode hex="02C6"/>
  <outline>
    <contour>
      <point x="381" y="590" type="line"/>
      <point x="276" y="800" type="line"/>
      <point x="227" y="800" type="line"/>
      <point x="337" y="590" type="line"/>
    </contour>
    <contour>
      <point x="163" y="590" type="line"/>
      <point x="273" y="800" type="line"/>
      <point x="224" y="800" type="line"/>
      <point x="119" y="590" type="line"/>
    </contour>
    <contour>
      <point x="250" y="580" type="move" name="_top"/>
    </contour>
  </outline>
</glyph>
<glyph name="caron" format="1">
  <advance width="500"/>
  <unicode hex="02C7"/>
  <outline>
    <contour>
      <point x="276" y="590" type="line"/>
      <point x="381" y="800" type="line"/>
      <point x="337" y="800" type="line"/>
      <point x="227" y="590" type="line"/>
    </contour>
    <contour>
      <point x="273" y="590" type="line"/>
      <point x="163" y="800" type="line"/>
      <point x="119" y="800" type="line"/>
      <point x="224" y="590" type="line"/>
    </contour>
    <contour>
      <point x="250" y="580" type="move" name="_top"/>
    </contour>
  </outline>
</glyph>
<glyph name="breve" format="1">
  <advance width="500"/>
  <unicode hex="02D8"/>
  <outline>
    <contour>
      <point x="330" y="618"/>
      <point x="378" y="678"/>
      <point x="380" y="773" type="curve"/>
      <point x="343" y="775" type="line"/>
      <point x="339" y="692"/>
      <point x="304" y="653"/>
      <point x="250" y="653" type="curve"/>
      <point x="196" y="653"/>
      <point x="161" y="692"/>
      <point x="157" y="775" type="curve"/>
      <point x="120" y="773" type="line"/>
      <point x="122" y="678"/>
      <point x="170" y="618"/>
      <point x="250" y="618" type="curve"/>
    </contour>
    <contour>
      <point x="250" y="580" type="move" name="_top"/>
    </contour>
  </outline>
</glyph>
<glyph name="dotaccent" format="1">
  <advance width="500"/>
  <unicode hex="02D9"/>
  <outline>
    <contour>
      <point x="272" y="722"/>
      <point x="290" y="740"/>
      <point x="290" y="760" type="curve"/>
      <point x="290" y="782"/>
      <point x="272" y="800"/>
      <point x="250" y="800" type="curve"/>
      <point x="229" y="800"/>
      <point x="211" y="782"/>
      <point x="211" y="760" type="curve"/>
      <point x="211" y="740"/>
      <point x="229" y="722"/>
      <point x="250" y="722" type="curve"/>
    </contour>
    <contour>
      <point x="250" y="580" type="move" name="_top"/>
    </contour>
  </outline>
</glyph>
<glyph name="ring" format="1">
  <advance width="500"/>
  <unicode hex="02DA"/>
  <outline>
    <contour>
      <point x="319" y="590"/>
      <point x="355" y="643"/>
      <point x="355" y="696" type="curve"/>
      <point x="355" y="748"/>
      <point x="319" y="800"/>
      <point x="250" y="800" type="curve"/>
      <point x="181" y="800"/>
      <point x="145" y="748"/>
      <point x="145" y="696" type="curve"/>
      <point x="145" y="643"/>
      <point x="181" y="590"/>
      <point x="250" y="590" type="curve"/>
    </contour>
    <contour>
      <point x="209" y="625"/>
      <point x="185" y="656"/>
      <point x="185" y="696" type="curve"/>
      <point x="185" y="735"/>
      <point x="209" y="765"/>
      <point x="250" y="765" type="curve"/>
      <point x="291" y="765"/>
      <point x="315" y="735"/>
      <point x="315" y="696" type="curve"/>
      <point x="315" y="656"/>
      <point x="291" y="625"/>
      <point x="250" y="625" type="curve"/>
    </contour>
    <contour>
      <point x="250" y="580" type="move" name="_top"/>
    </contour>
  </outline>
</glyph>
<glyph name="ogonek" format="1">
  <advance width="500"/>
  <unicode hex="02DB"/>
  <outline>
    <contour>
      <point x="289" y="-236"/>
      <point x="320" y="-216"/>
      <point x="342" y="-188" type="curve"/>
      <point x="316" y="-163" type="line"/>
      <point x="294" y="-186"/>
      <point x="274" y="-194"/>
      <point x="254" y="-194" type="curve" smooth="yes"/>
      <point x="225" y="-194"/>
      <point x="206" y="-177"/>
      <point x="206" y="-144" type="curve" smooth="yes"/>
      <point x="206" y="-95"/>
      <point x="244" y="-48"/>
      <point x="319" y="15" type="curve"/>
      <point x="264" y="15" type="line"/>
      <point x="197" y="-38"/>
      <point x="159" y="-93"/>
      <point x="159" y="-147" type="curve" smooth="yes"/>
      <point x="159" y="-203"/>
      <point x="196" y="-236"/>
      <point x="251" y="-236" type="curve" smooth="yes"/>
    </contour>
    <contour>
      <point x="271" y="-10" type="move" name="_bottom"/>
    </contour>
  </outline>
</glyph>
<glyph name="tilde" format="1">
  <advance width="500"/>
  <unicode hex="02DC"/>
  <outline>
    <contour>
      <point x="142" y="696"/>
      <point x="154" y="722"/>
      <point x="185" y="722" type="curve" smooth="yes"/>
      <point x="232" y="722"/>
      <point x="239" y="631"/>
      <point x="315" y="631" type="curve"/>
      <point x="369" y="631"/>
      <point x="398" y="679"/>
      <point x="405" y="758" type="curve"/>
      <point x="366" y="762" type="line"/>
      <point x="358" y="697"/>
      <point x="346" y="671"/>
      <point x="315" y="671" type="curve"/>
      <point x="264" y="671"/>
      <point x="258" y="762"/>
      <point x="185" y="762" type="curve" smooth="yes"/>
      <point x="131" y="762"/>
      <point x="102" y="714"/>
      <point x="95" y="635" type="curve"/>
      <point x="134" y="631" type="line"/>
    </contour>
    <contour>
      <point x="250" y="580" type="move" name="_top"/>
    </contour>
  </outline>
</glyph>
<glyph name="hungarumlaut" format="1">
  <advance width="500"/>
  <unicode hex="02DD"/>
  <outline>
    <contour>
      <point x="292" y="590" type="line"/>
      <point x="402" y="800" type="line"/>
      <point x="345" y="800" type="line"/>
      <point x="248" y="590" type="line"/>
    </contour>
    <contour>
      <point x="142" y="590" type="line"/>
      <point x="252" y="800" type="line"/>
      <point x="195" y="800" type="line"/>
      <point x="98" y="590" type="line"/>
    </contour>
    <contour>
      <point x="196" y="580" type="move" name="_top"/>
    </contour>
  </outline>
</glyph>
<glyph name="commaaccent" format="1">
  <advance width="501"/>
  <unicode hex="0326"/>
  <outline>
    <contour>
      <point x="286" y="-211"/>
      <point x="308" y="-175"/>
      <point x="308" y="-139" type="curve" smooth="yes"/>
      <point x="308" y="-106"/>
      <point x="287" y="-77"/>
      <point x="226" y="-68" type="curve"/>
      <point x="211" y="-104" type="line"/>
      <point x="249" y="-111"/>
      <point x="261" y="-123"/>
      <point x="261" y="-141" type="curve" smooth="yes"/>
      <point x="261" y="-168"/>
      <point x="246" y="-185"/>
      <point x="193" y="-207" type="curve"/>
      <point x="213" y="-236" type="line"/>
    </contour>
    <contour>
      <point x="245" y="-10" type="move" name="_bottom"/>
    </contour>
  </outline>
</glyph>
<glyph name="Omega" format="1">
  <advance width="774"/>
  <unicode hex="03A9"/>
  <outline>
    <contour>
      <point x="387" y="695" type="curve"/>
      <point x="187" y="695"/>
      <point x="63" y="555"/>
      <point x="63" y="373" type="curve" smooth="yes"/>
      <point x="63" y="242"/>
      <point x="139" y="140"/>
      <point x="251" y="48" type="curve"/>
      <point x="251" y="46" type="line"/>
      <point x="60" y="46" type="line"/>
      <point x="60" y="0" type="line"/>
      <point x="333" y="0" type="line"/>
      <point x="333" y="35" type="line"/>
      <point x="189" y="152"/>
      <point x="119" y="254"/>
      <point x="119" y="374" type="curve" smooth="yes"/>
      <point x="119" y="528"/>
      <point x="226" y="649"/>
      <point x="387" y="649" type="curve"/>
      <point x="548" y="649"/>
      <point x="655" y="528"/>
      <point x="655" y="374" type="curve" smooth="yes"/>
      <point x="655" y="254"/>
      <point x="585" y="152"/>
      <point x="441" y="35" type="curve"/>
      <point x="441" y="0" type="line"/>
      <point x="714" y="0" type="line"/>
      <point x="714" y="46" type="line"/>
      <point x="524" y="46" type="line"/>
      <point x="524" y="48" type="line"/>
      <point x="636" y="139"/>
      <point x="711" y="242"/>
      <point x="711" y="373" type="curve" smooth="yes"/>
      <point x="711" y="555"/>
      <point x="587" y="695"/>
    </contour>
  </outline>
</glyph>
<glyph name="mu" format="1">
  <advance width="580"/>
  <unicode hex="03BC"/>
  <outline>
    <contour>
      <point x="304" y="-20"/>
      <point x="373" y="12"/>
      <point x="440" y="71" type="curve"/>
      <point x="428" y="112" type="line"/>
      <point x="358" y="55"/>
      <point x="302" y="27"/>
      <point x="246" y="27" type="curve" smooth="yes"/>
      <point x="178" y="27"/>
      <point x="154" y="64"/>
      <point x="154" y="141" type="curve"/>
      <point x="154" y="520" type="line"/>
      <point x="100" y="520" type="line"/>
      <point x="100" y="139" type="line" smooth="yes"/>
      <point x="128" y="39" type="line"/>
      <point x="146" y="2"/>
      <point x="177" y="-20"/>
      <point x="238" y="-20" type="curve" smooth="yes"/>
    </contour>
    <contour>
      <point x="154" y="-237" type="line"/>
      <point x="134" y="143" type="line"/>
      <point x="100" y="143" type="line"/>
      <point x="100" y="-237" type="line"/>
    </contour>
    <contour>
      <point x="480" y="0" type="line"/>
      <point x="480" y="520" type="line"/>
      <point x="426" y="520" type="line"/>
      <point x="426" y="78" type="line"/>
      <point x="436" y="0" type="line"/>
    </contour>
    <contour>
      <point x="293" y="580" type="move" name="top"/>
    </contour>
    <contour>
      <point x="442" y="-10" type="move" name="bottom"/>
    </contour>
  </outline>
</glyph>
<glyph name="pi" format="1">
  <advance width="634"/>
  <unicode hex="03C0"/>
  <outline>
    <contour>
      <point x="539" y="-15"/>
      <point x="566" y="-6"/>
      <point x="596" y="13" type="curve"/>
      <point x="579" y="55" type="line"/>
      <point x="553" y="40"/>
      <point x="538" y="32"/>
      <point x="510" y="32" type="curve" smooth="yes"/>
      <point x="477" y="32"/>
      <point x="464" y="53"/>
      <point x="464" y="97" type="curve" smooth="yes"/>
      <point x="464" y="506" type="line"/>
      <point x="410" y="492" type="line"/>
      <point x="410" y="95" type="line" smooth="yes"/>
      <point x="410" y="26"/>
      <point x="440" y="-15"/>
      <point x="507" y="-15" type="curve" smooth="yes"/>
    </contour>
    <contour>
      <point x="172" y="0" type="line"/>
      <point x="222" y="520" type="line"/>
      <point x="168" y="520" type="line"/>
      <point x="118" y="0" type="line"/>
    </contour>
    <contour>
      <point x="577" y="476" type="line"/>
      <point x="577" y="520" type="line"/>
      <point x="35" y="520" type="line"/>
      <point x="35" y="476" type="line"/>
    </contour>
  </outline>
</glyph>
<glyph name="uni0901" format="1">
  <advance width="0"/>
  <unicode hex="0901"/>
  <outline>
    <component base="uni0945"/>
    <component base="uni0902" xOffset="-6" yOffset="150"/>
    <contour>
      <point x="-142" y="634" type="move" name="_top"/>
    </contour>
  </outline>
</glyph>
<glyph name="anusvara-deva" format="1">
  <advance width="0"/>
  <unicode hex="0902"/>
  <outline>
    <contour>
      <point x="-193" y="758"/>
      <point x="-170" y="735"/>
      <point x="-143" y="735" type="curve"/>
      <point x="-116" y="735"/>
      <point x="-93" y="758"/>
      <point x="-93" y="785" type="curve"/>
      <point x="-93" y="812"/>
      <point x="-116" y="835"/>
      <point x="-143" y="835" type="curve"/>
      <point x="-170" y="835"/>
      <point x="-193" y="812"/>
      <point x="-193" y="785" type="curve"/>
    </contour>
    <contour>
      <point x="-143" y="634" type="move" name="_top"/>
    </contour>
  </outline>
</glyph>
<glyph name="visarga-deva" format="1">
  <advance width="307"/>
  <unicode hex="0903"/>
  <outline>
    <contour>
      <point x="175" y="390"/>
      <point x="194" y="409"/>
      <point x="194" y="432" type="curve" smooth="yes"/>
      <point x="194" y="455"/>
      <point x="175" y="475"/>
      <point x="151" y="475" type="curve" smooth="yes"/>
      <point x="128" y="475"/>
      <point x="109" y="455"/>
      <point x="109" y="432" type="curve" smooth="yes"/>
      <point x="109" y="409"/>
      <point x="128" y="390"/>
      <point x="151" y="390" type="curve" smooth="yes"/>
    </contour>
    <contour>
      <point x="175" y="54"/>
      <point x="194" y="73"/>
      <point x="194" y="96" type="curve" smooth="yes"/>
      <point x="194" y="119"/>
      <point x="175" y="139"/>
      <point x="151" y="139" type="curve" smooth="yes"/>
      <point x="128" y="139"/>
      <point x="109" y="119"/>
      <point x="109" y="96" type="curve" smooth="yes"/>
      <point x="109" y="73"/>
      <point x="128" y="54"/>
      <point x="151" y="54" type="curve" smooth="yes"/>
    </contour>
  </outline>
</glyph>
<glyph name="aShort-deva" format="1">
  <advance width="738"/>
  <unicode hex="0904"/>
  <outline>
    <contour>
      <point x="629" y="637"/>
      <point x="633" y="661"/>
      <point x="633" y="679" type="curve" smooth="yes"/>
      <point x="633" y="770"/>
      <point x="576" y="836"/>
      <point x="460" y="836" type="curve" smooth="yes"/>
      <point x="395" y="836"/>
      <point x="320" y="824"/>
      <point x="254" y="824" type="curve" smooth="yes"/>
      <point x="197" y="824"/>
      <point x="177" y="844"/>
      <point x="177" y="881" type="curve" smooth="yes"/>
      <point x="177" y="899"/>
      <point x="182" y="920"/>
      <point x="195" y="942" type="curve"/>
      <point x="150" y="955" type="line"/>
      <point x="137" y="935"/>
      <point x="127" y="907"/>
      <point x="127" y="879" type="curve" smooth="yes"/>
      <point x="127" y="814"/>
      <point x="174" y="779"/>
      <point x="253" y="779" type="curve" smooth="yes"/>
      <point x="317" y="779"/>
      <point x="392" y="791"/>
      <point x="460" y="791" type="curve" smooth="yes"/>
      <point x="558" y="791"/>
      <point x="583" y="733"/>
      <point x="583" y="680" type="curve" smooth="yes"/>
      <point x="583" y="659"/>
      <point x="579" y="638"/>
      <point x="572" y="625" type="curve"/>
      <point x="622" y="622" type="line"/>
    </contour>
    <component base="a-deva"/>
  </outline>
</glyph>
<glyph name="uni0905" format="1">
  <advance width="738"/>
  <unicode hex="0905"/>
  <outline>
    <contour>
      <point x="349" y="43"/>
      <point x="419" y="110"/>
      <point x="419" y="200" type="curve" smooth="yes"/>
      <point x="419" y="278"/>
      <point x="363" y="330"/>
      <point x="317" y="366" type="curve"/>
      <point x="278" y="336" type="line"/>
      <point x="335" y="300"/>
      <point x="368" y="259"/>
      <point x="368" y="202" type="curve" smooth="yes"/>
      <point x="368" y="137"/>
      <point x="320" y="88"/>
      <point x="243" y="87" type="curve" smooth="yes"/>
      <point x="151" y="88"/>
      <point x="87" y="159"/>
      <point x="42" y="282" type="curve"/>
      <point x="0" y="261" type="line"/>
      <point x="53" y="117"/>
      <point x="131" y="43"/>
      <point x="243" y="43" type="curve" smooth="yes"/>
    </contour>
    <contour>
      <point x="330" y="329"/>
      <point x="402" y="397"/>
      <point x="402" y="488" type="curve" smooth="yes"/>
      <point x="402" y="596"/>
      <point x="324" y="650"/>
      <point x="241" y="650" type="curve" smooth="yes"/>
      <point x="175" y="650"/>
      <point x="120" y="625"/>
      <point x="84" y="597" type="curve"/>
      <point x="109" y="558" type="line"/>
      <point x="142" y="583"/>
      <point x="186" y="605"/>
      <point x="239" y="605" type="curve" smooth="yes"/>
      <point x="306" y="605"/>
      <point x="351" y="555"/>
      <point x="351" y="491" type="curve" smooth="yes"/>
      <point x="351" y="407"/>
      <point x="283" y="366"/>
      <point x="183" y="365" type="curve"/>
      <point x="192" y="320" type="line"/>
    </contour>
    <contour>
      <point x="505" y="281"/>
      <point x="555" y="301"/>
      <point x="570" y="314" type="curve"/>
      <point x="570" y="366" type="line"/>
      <point x="543" y="341"/>
      <point x="504" y="326"/>
      <point x="455" y="326" type="curve" smooth="yes"/>
      <point x="407" y="326"/>
      <point x="352" y="344"/>
      <point x="325" y="359" type="curve"/>
      <point x="348" y="304" type="line"/>
      <point x="379" y="291"/>
      <point x="414" y="281"/>
      <point x="455" y="281" type="curve" smooth="yes"/>
    </contour>
    <contour>
      <point x="620" y="0" type="line"/>
      <point x="620" y="610" type="line"/>
      <point x="569" y="610" type="line"/>
      <point x="569" y="0" type="line"/>
    </contour>
    <contour>
      <point x="738" y="590" type="line"/>
      <point x="738" y="634" type="line"/>
      <point x="429" y="634" type="line"/>
      <point x="429" y="590" type="line"/>
    </contour>
    <contour>
      <point x="68" y="0" type="move" name="nukta"/>
    </contour>
    <contour>
      <point x="595" y="0" type="move" name="bottom"/>
    </contour>
    <contour>
      <point x="595" y="634" type="move" name="top"/>
    </contour>
  </outline>
</glyph>
<glyph name="i-deva" format="1">
  <advance width="474"/>
  <unicode hex="0907"/>
  <outline>
    <contour>
      <point x="317" y="-96" type="line"/>
      <point x="140" y="172" type="line"/>
      <point x="97" y="170"/>
      <point x="74" y="149"/>
      <point x="74" y="117" type="curve" smooth="yes"/>
      <point x="74" y="74"/>
      <point x="132" y="43"/>
      <point x="209" y="43" type="curve" smooth="yes"/>
      <point x="319" y="43"/>
      <point x="420" y="104"/>
      <point x="420" y="195" type="curve" smooth="yes"/>
      <point x="420" y="250"/>
      <point x="387" y="300"/>
      <point x="353" y="330" type="curve"/>
      <point x="310" y="305"/>
      <point x="256" y="290"/>
      <point x="210" y="290" type="curve" smooth="yes"/>
      <point x="153" y="290"/>
      <point x="119" y="322"/>
      <point x="119" y="368" type="curve" smooth="yes"/>
      <point x="119" y="410"/>
      <point x="143" y="437"/>
      <point x="188" y="437" type="curve" smooth="yes"/>
      <point x="368" y="437" type="line"/>
      <point x="368" y="590" type="line"/>
      <point x="474" y="590" type="line"/>
      <point x="474" y="634" type="line"/>
      <point x="-20" y="634" type="line"/>
      <point x="-20" y="590" type="line"/>
      <point x="318" y="590" type="line"/>
      <point x="318" y="481" type="line"/>
      <point x="188" y="481" type="line" smooth="yes"/>
      <point x="108" y="481"/>
      <point x="68" y="432"/>
      <point x="68" y="372" type="curve" smooth="yes"/>
      <point x="68" y="303"/>
      <point x="112" y="245"/>
      <point x="212" y="245" type="curve" smooth="yes"/>
      <point x="262" y="245"/>
      <point x="322" y="262"/>
      <point x="358" y="282" type="curve"/>
      <point x="324" y="280" type="line"/>
      <point x="348" y="267"/>
      <point x="369" y="231"/>
      <point x="369" y="199" type="curve" smooth="yes"/>
      <point x="369" y="140"/>
      <point x="306" y="89"/>
      <point x="210" y="89" type="curve" smooth="yes"/>
      <point x="187" y="89"/>
      <point x="157" y="97"/>
      <point x="129" y="107" type="curve"/>
      <point x="276" y="-122" type="line"/>
    </contour>
    <contour>
      <point x="343" y="634" type="move" name="top"/>
    </contour>
  </outline>
</glyph>
<glyph name="uni0908" format="1">
  <advance width="474"/>
  <unicode hex="0908"/>
  <outline>
    <contour>
      <point x="370" y="630" type="line"/>
      <point x="314" y="672"/>
      <point x="258" y="732"/>
      <point x="258" y="804" type="curve" smooth="yes"/>
      <point x="258" y="871"/>
      <point x="307" y="907"/>
      <point x="356" y="907" type="curve" smooth="yes"/>
      <point x="403" y="907"/>
      <point x="437" y="882"/>
      <point x="466" y="858" type="curve"/>
      <point x="491" y="895" type="line"/>
      <point x="453" y="928"/>
      <point x="412" y="952"/>
      <point x="356" y="952" type="curve" smooth="yes"/>
      <point x="264" y="952"/>
      <point x="207" y="888"/>
      <point x="207" y="804" type="curve" smooth="yes"/>
      <point x="207" y="725"/>
      <point x="251" y="669"/>
      <point x="321" y="613" type="curve"/>
    </contour>
    <component base="uni0907"/>
    <contour>
      <point x="390" y="617" type="move" name="top"/>
    </contour>
  </outline>
</glyph>
<glyph name="uni0909" format="1">
  <advance width="553"/>
  <unicode hex="0909"/>
  <outline>
    <contour>
      <point x="409" y="23"/>
      <point x="479" y="94"/>
      <point x="479" y="190" type="curve" smooth="yes"/>
      <point x="479" y="273"/>
      <point x="417" y="330"/>
      <point x="367" y="366" type="curve"/>
      <point x="328" y="336" type="line"/>
      <point x="391" y="296"/>
      <point x="428" y="253"/>
      <point x="428" y="192" type="curve" smooth="yes"/>
      <point x="428" y="121"/>
      <point x="380" y="68"/>
      <point x="303" y="67" type="curve" smooth="yes"/>
      <point x="206" y="68"/>
      <point x="141" y="147"/>
      <point x="92" y="282" type="curve"/>
      <point x="50" y="261" type="line"/>
      <point x="108" y="105"/>
      <point x="186" y="23"/>
      <point x="303" y="23" type="curve" smooth="yes"/>
    </contour>
    <contour>
      <point x="384" y="326"/>
      <point x="467" y="388"/>
      <point x="467" y="468" type="curve" smooth="yes"/>
      <point x="467" y="532"/>
      <point x="432" y="578"/>
      <point x="381" y="620" type="curve"/>
      <point x="334" y="599" type="line"/>
      <point x="386" y="564"/>
      <point x="416" y="522"/>
      <point x="416" y="471" type="curve" smooth="yes"/>
      <point x="416" y="400"/>
      <point x="332" y="368"/>
      <point x="208" y="365" type="curve"/>
      <point x="217" y="320" type="line"/>
    </contour>
    <contour>
      <point x="553" y="590" type="line"/>
      <point x="553" y="634" type="line"/>
      <point x="-20" y="634" type="line"/>
      <point x="-20" y="624" type="line"/>
      <point x="-20" y="590" type="line"/>
    </contour>
    <contour>
      <point x="68" y="0" type="move" name="nukta"/>
    </contour>
  </outline>
</glyph>
<glyph name="uu-deva" format="1">
  <advance width="796"/>
  <unicode hex="090A"/>
  <outline>
    <contour>
      <point x="708" y="110"/>
      <point x="747" y="173"/>
      <point x="747" y="244" type="curve" smooth="yes"/>
      <point x="747" y="326"/>
      <point x="701" y="388"/>
      <point x="620" y="388" type="curve" smooth="yes"/>
      <point x="542" y="388"/>
      <point x="486" y="328"/>
      <point x="435" y="281" type="curve"/>
      <point x="439" y="219" type="line"/>
      <point x="498" y="282"/>
      <point x="558" y="343"/>
      <point x="621" y="343" type="curve" smooth="yes"/>
      <point x="665" y="343"/>
      <point x="696" y="307"/>
      <point x="696" y="241" type="curve" smooth="yes"/>
      <point x="696" y="191"/>
      <point x="665" y="140"/>
      <point x="610" y="103" type="curve"/>
      <point x="644" y="65" type="line"/>
    </contour>
    <contour>
      <point x="796" y="590" type="line"/>
      <point x="796" y="634" type="line"/>
      <point x="533" y="634" type="line"/>
      <point x="533" y="590" type="line"/>
    </contour>
    <component base="u-deva"/>
    <contour>
      <point x="68" y="0" type="move" name="nukta"/>
    </contour>
  </outline>
</glyph>
<glyph name="uni090C" format="1">
  <advance width="698"/>
  <unicode hex="090C"/>
  <outline>
    <contour>
      <point x="601" y="-98"/>
      <point x="645" y="-68"/>
      <point x="681" y="-26" type="curve"/>
      <point x="652" y="9" type="line"/>
      <point x="615" y="-35"/>
      <point x="577" y="-53"/>
      <point x="530" y="-53" type="curve" smooth="yes"/>
      <point x="492" y="-53"/>
      <point x="468" y="-28"/>
      <point x="468" y="8" type="curve" smooth="yes"/>
      <point x="468" y="94"/>
      <point x="618" y="149"/>
      <point x="618" y="276" type="curve"/>
      <point x="618" y="357"/>
      <point x="567" y="419"/>
      <point x="471" y="420" type="curve"/>
      <point x="380" y="420"/>
      <point x="309" y="351"/>
      <point x="303" y="210" type="curve"/>
      <point x="354" y="201" type="line"/>
      <point x="355" y="304"/>
      <point x="394" y="374"/>
      <point x="474" y="374" type="curve"/>
      <point x="530" y="374"/>
      <point x="567" y="340"/>
      <point x="567" y="273" type="curve" smooth="yes"/>
      <point x="567" y="156"/>
      <point x="417" y="118"/>
      <point x="417" y="8" type="curve" smooth="yes"/>
      <point x="417" y="-60"/>
      <point x="470" y="-98"/>
      <point x="533" y="-98" type="curve" smooth="yes"/>
    </contour>
    <contour>
      <point x="267" y="12" type="line"/>
      <point x="179" y="84"/>
      <point x="108" y="171"/>
      <point x="108" y="280" type="curve" smooth="yes"/>
      <point x="108" y="355"/>
      <point x="145" y="391"/>
      <point x="191" y="391" type="curve" smooth="yes"/>
      <point x="244" y="391"/>
      <point x="283" y="354"/>
      <point x="321" y="296" type="curve"/>
      <point x="351" y="335" type="line"/>
      <point x="319" y="380"/>
      <point x="267" y="437"/>
      <point x="191" y="437" type="curve" smooth="yes"/>
      <point x="115" y="437"/>
      <point x="56" y="386"/>
      <point x="56" y="286" type="curve" smooth="yes"/>
      <point x="56" y="161"/>
      <point x="131" y="67"/>
      <point x="234" y="-22" type="curve"/>
    </contour>
    <contour>
      <point x="698" y="590" type="line"/>
      <point x="698" y="634" type="line"/>
      <point x="-20" y="634" type="line"/>
      <point x="-20" y="624" type="line"/>
      <point x="-20" y="590" type="line"/>
    </contour>
    <contour>
      <point x="496" y="400" type="line"/>
      <point x="496" y="610" type="line"/>
      <point x="445" y="610" type="line"/>
      <point x="445" y="400" type="line"/>
    </contour>
    <contour>
      <point x="33" y="0" type="move" name="nukta"/>
    </contour>
    <contour>
      <point x="369" y="0" type="move" name="bottom"/>
    </contour>
    <contour>
      <point x="472" y="634" type="move" name="top"/>
    </contour>
  </outline>
</glyph>
<glyph name="eShort-deva" format="1">
  <advance width="569"/>
  <unicode hex="090E"/>
  <outline>
    <contour>
      <point x="472" y="638"/>
      <point x="476" y="661"/>
      <point x="476" y="679" type="curve" smooth="yes"/>
      <point x="476" y="770"/>
      <point x="419" y="836"/>
      <point x="303" y="836" type="curve" smooth="yes"/>
      <point x="238" y="836"/>
      <point x="163" y="824"/>
      <point x="97" y="824" type="curve" smooth="yes"/>
      <point x="40" y="824"/>
      <point x="20" y="844"/>
      <point x="20" y="881" type="curve" smooth="yes"/>
      <point x="20" y="899"/>
      <point x="25" y="920"/>
      <point x="38" y="942" type="curve"/>
      <point x="-7" y="955" type="line"/>
      <point x="-20" y="935"/>
      <point x="-30" y="907"/>
      <point x="-30" y="879" type="curve" smooth="yes"/>
      <point x="-30" y="814"/>
      <point x="17" y="779"/>
      <point x="96" y="779" type="curve" smooth="yes"/>
      <point x="160" y="779"/>
      <point x="235" y="791"/>
      <point x="303" y="791" type="curve" smooth="yes"/>
      <point x="401" y="791"/>
      <point x="426" y="733"/>
      <point x="426" y="680" type="curve" smooth="yes"/>
      <point x="426" y="659"/>
      <point x="422" y="638"/>
      <point x="415" y="625" type="curve"/>
      <point x="465" y="622" type="line"/>
    </contour>
    <component base="e-deva"/>
  </outline>
</glyph>
<glyph name="uni090F" format="1">
  <advance width="569"/>
  <unicode hex="090F"/>
  <outline>
    <contour>
      <point x="603" y="-167"/>
      <point x="611" y="-146"/>
      <point x="611" y="-120" type="curve" smooth="yes"/>
      <point x="611" y="-92"/>
      <point x="602" y="-62"/>
      <point x="548" y="-25" type="curve" smooth="yes"/>
      <point x="228" y="192" type="line" smooth="yes"/>
      <point x="186" y="220"/>
      <point x="163" y="246"/>
      <point x="163" y="310" type="curve" smooth="yes"/>
      <point x="163" y="605" type="line"/>
      <point x="109" y="605" type="line"/>
      <point x="109" y="307" type="line" smooth="yes"/>
      <point x="109" y="238"/>
      <point x="129" y="201"/>
      <point x="198" y="154" type="curve" smooth="yes"/>
      <point x="511" y="-58" type="line" smooth="yes"/>
      <point x="556" y="-88"/>
      <point x="555" y="-106"/>
      <point x="555" y="-122" type="curve" smooth="yes"/>
      <point x="555" y="-137"/>
      <point x="547" y="-151"/>
      <point x="533" y="-164" type="curve"/>
      <point x="582" y="-191" type="line"/>
    </contour>
    <contour>
      <point x="395" y="209"/>
      <point x="469" y="254"/>
      <point x="469" y="339" type="curve" smooth="yes"/>
      <point x="469" y="605" type="line"/>
      <point x="415" y="605" type="line"/>
      <point x="415" y="343" type="line" smooth="yes"/>
      <point x="415" y="280"/>
      <point x="374" y="259"/>
      <point x="329" y="239" type="curve"/>
      <point x="357" y="196" type="line"/>
    </contour>
    <contour>
      <point x="569" y="590" type="line"/>
      <point x="569" y="634" type="line"/>
      <point x="-21" y="634" type="line"/>
      <point x="-21" y="590" type="line"/>
    </contour>
    <contour>
      <point x="443" y="634" type="move" name="top"/>
    </contour>
  </outline>
</glyph>
<glyph name="uni0916" format="1">
  <advance width="788"/>
  <unicode hex="0916"/>
  <outline>
    <contour>
      <point x="472" y="29"/>
      <point x="564" y="66"/>
      <point x="624" y="123" type="curve"/>
      <point x="625" y="185" type="line"/>
      <point x="562" y="113"/>
      <point x="462" y="74"/>
      <point x="377" y="74" type="curve" smooth="yes"/>
      <point x="209" y="74"/>
      <point x="114" y="190"/>
      <point x="114" y="384" type="curve"/>
      <point x="64" y="380" type="line"/>
      <point x="64" y="168"/>
      <point x="171" y="29"/>
      <point x="377" y="29" type="curve" smooth="yes"/>
    </contour>
    <contour>
      <point x="200" y="290"/>
      <point x="248" y="326"/>
      <point x="248" y="416" type="curve" smooth="yes"/>
      <point x="248" y="465"/>
      <point x="238" y="531"/>
      <point x="222" y="601" type="curve"/>
      <point x="170" y="601" type="line"/>
      <point x="186" y="549"/>
      <point x="198" y="463"/>
      <point x="198" y="417" type="curve" smooth="yes"/>
      <point x="198" y="355"/>
      <point x="173" y="336"/>
      <point x="143" y="336" type="curve" smooth="yes"/>
      <point x="130" y="336"/>
      <point x="117" y="340"/>
      <point x="108" y="354" type="curve"/>
      <point x="105" y="307" type="line"/>
      <point x="113" y="297"/>
      <point x="133" y="290"/>
      <point x="151" y="290" type="curve" smooth="yes"/>
    </contour>
    <contour>
      <point x="520" y="182"/>
      <point x="581" y="231"/>
      <point x="625" y="269" type="curve"/>
      <point x="623" y="331" type="line"/>
      <point x="572" y="278"/>
      <point x="504" y="227"/>
      <point x="444" y="227" type="curve" smooth="yes"/>
      <point x="389" y="227"/>
      <point x="351" y="269"/>
      <point x="351" y="325" type="curve" smooth="yes"/>
      <point x="351" y="387"/>
      <point x="393" y="433"/>
      <point x="451" y="432" type="curve" smooth="yes"/>
      <point x="526" y="431"/>
      <point x="587" y="380"/>
      <point x="630" y="318" type="curve"/>
      <point x="630" y="388" type="line"/>
      <point x="599" y="426"/>
      <point x="526" y="477"/>
      <point x="449" y="477" type="curve" smooth="yes"/>
      <point x="370" y="477"/>
      <point x="300" y="416"/>
      <point x="300" y="322" type="curve" smooth="yes"/>
      <point x="300" y="251"/>
      <point x="350" y="182"/>
      <point x="444" y="182" type="curve" smooth="yes"/>
    </contour>
    <contour>
      <point x="673" y="-11" type="line"/>
      <point x="673" y="610" type="line"/>
      <point x="622" y="610" type="line"/>
      <point x="622" y="-11" type="line"/>
    </contour>
    <contour>
      <point x="788" y="590" type="line"/>
      <point x="788" y="634" type="line"/>
      <point x="-20" y="634" type="line"/>
      <point x="-20" y="590" type="line"/>
    </contour>
    <contour>
      <point x="138" y="0" type="move" name="nukta"/>
    </contour>
    <contour>
      <point x="647" y="0" type="move" name="bottom"/>
    </contour>
    <contour>
      <point x="647" y="634" type="move" name="top"/>
    </contour>
  </outline>
</glyph>
<glyph name="uni0917" format="1">
  <advance width="595"/>
  <unicode hex="0917"/>
  <outline>
    <contour>
      <point x="185" y="215"/>
      <point x="209" y="242"/>
      <point x="209" y="297" type="curve" smooth="yes"/>
      <point x="209" y="603" type="line"/>
      <point x="158" y="603" type="line"/>
      <point x="158" y="303" type="line"/>
      <point x="176" y="324" type="line"/>
      <point x="85" y="324" type="line"/>
      <point x="63" y="263"/>
      <point x="98" y="215"/>
      <point x="152" y="215" type="curve" smooth="yes"/>
    </contour>
    <contour>
      <point x="477" y="0" type="line"/>
      <point x="477" y="610" type="line"/>
      <point x="426" y="610" type="line"/>
      <point x="426" y="0" type="line"/>
    </contour>
    <contour>
      <point x="595" y="590" type="line"/>
      <point x="595" y="634" type="line"/>
      <point x="-20" y="634" type="line"/>
      <point x="-20" y="590" type="line"/>
    </contour>
    <contour>
      <point x="158" y="70" type="move" name="nukta"/>
    </contour>
    <contour>
      <point x="451" y="0" type="move" name="bottom"/>
    </contour>
    <contour>
      <point x="452" y="634" type="move" name="top"/>
    </contour>
  </outline>
</glyph>
<glyph name="gha-deva" format="1">
  <advance width="657"/>
  <unicode hex="0918"/>
  <outline>
    <contour>
      <point x="377" y="147"/>
      <point x="447" y="190"/>
      <point x="508" y="248" type="curve"/>
      <point x="510" y="306" type="line"/>
      <point x="449" y="251"/>
      <point x="385" y="192"/>
      <point x="296" y="192" type="curve" smooth="yes"/>
      <point x="245" y="192"/>
      <point x="194" y="218"/>
      <point x="194" y="293" type="curve" smooth="yes"/>
      <point x="194" y="343"/>
      <point x="230" y="379"/>
      <point x="294" y="379" type="curve" smooth="yes"/>
      <point x="311" y="379"/>
      <point x="329" y="377"/>
      <point x="341" y="373" type="curve"/>
      <point x="350" y="413" type="line"/>
      <point x="335" y="420"/>
      <point x="313" y="424"/>
      <point x="288" y="424" type="curve" smooth="yes"/>
      <point x="216" y="424"/>
      <point x="143" y="373"/>
      <point x="143" y="292" type="curve" smooth="yes"/>
      <point x="143" y="205"/>
      <point x="207" y="147"/>
      <point x="297" y="147" type="curve" smooth="yes"/>
    </contour>
    <contour>
      <point x="260" y="407" type="line"/>
      <point x="145" y="454"/>
      <point x="126" y="493"/>
      <point x="126" y="534" type="curve" smooth="yes"/>
      <point x="126" y="557"/>
      <point x="133" y="579"/>
      <point x="150" y="594" type="curve"/>
      <point x="96" y="605" type="line"/>
      <point x="82" y="584"/>
      <point x="75" y="560"/>
      <point x="75" y="533" type="curve" smooth="yes"/>
      <point x="75" y="471"/>
      <point x="112" y="420"/>
      <point x="229" y="368" type="curve"/>
    </contour>
    <contour>
      <point x="539" y="0" type="line"/>
      <point x="539" y="610" type="line"/>
      <point x="489" y="610" type="line"/>
      <point x="489" y="0" type="line"/>
    </contour>
    <contour>
      <point x="657" y="590" type="line"/>
      <point x="657" y="634" type="line"/>
      <point x="-20" y="634" type="line"/>
      <point x="-20" y="590" type="line"/>
    </contour>
    <contour>
      <point x="98" y="44" type="move" name="nukta"/>
    </contour>
    <contour>
      <point x="513" y="0" type="move" name="bottom"/>
    </contour>
    <contour>
      <point x="513" y="634" type="move" name="top"/>
    </contour>
  </outline>
</glyph>
<glyph name="uni0919" format="1">
  <advance width="673"/>
  <unicode hex="0919"/>
  <outline>
    <contour>
      <point x="673" y="590" type="line"/>
      <point x="673" y="634" type="line"/>
      <point x="519" y="634" type="line"/>
      <point x="519" y="590" type="line"/>
    </contour>
    <component base="uni0921"/>
    <component base="uni093C" xOffset="598" yOffset="482"/>
    <contour>
      <point x="348" y="-130" type="move" name="nukta"/>
    </contour>
    <contour>
      <point x="310" y="0" type="move" name="bottom"/>
    </contour>
    <contour>
      <point x="400" y="634" type="move" name="top"/>
    </contour>
  </outline>
</glyph>
<glyph name="ca-deva" format="1">
  <advance width="639"/>
  <unicode hex="091A"/>
  <outline>
    <contour>
      <point x="347" y="127"/>
      <point x="429" y="182"/>
      <point x="488" y="248" type="curve"/>
      <point x="490" y="306" type="line"/>
      <point x="432" y="244"/>
      <point x="355" y="172"/>
      <point x="269" y="172" type="curve" smooth="yes"/>
      <point x="204" y="172"/>
      <point x="173" y="209"/>
      <point x="173" y="260" type="curve" smooth="yes"/>
      <point x="173" y="335"/>
      <point x="254" y="381"/>
      <point x="334" y="390" type="curve"/>
      <point x="319" y="424" type="line"/>
      <point x="223" y="411"/>
      <point x="122" y="360"/>
      <point x="122" y="260" type="curve" smooth="yes"/>
      <point x="122" y="184"/>
      <point x="179" y="127"/>
      <point x="270" y="127" type="curve" smooth="yes"/>
    </contour>
    <contour>
      <point x="267" y="387" type="line"/>
      <point x="334" y="390" type="line"/>
      <point x="334" y="431" type="line"/>
      <point x="50" y="431" type="line"/>
      <point x="50" y="387" type="line"/>
    </contour>
    <contour>
      <point x="521" y="0" type="line"/>
      <point x="521" y="610" type="line"/>
      <point x="470" y="610" type="line"/>
      <point x="470" y="0" type="line"/>
    </contour>
    <contour>
      <point x="639" y="590" type="line"/>
      <point x="639" y="634" type="line"/>
      <point x="-20" y="634" type="line"/>
      <point x="-20" y="590" type="line"/>
    </contour>
    <contour>
      <point x="98" y="63" type="move" name="nukta"/>
    </contour>
    <contour>
      <point x="495" y="0" type="move" name="bottom"/>
    </contour>
    <contour>
      <point x="495" y="634" type="move" name="top"/>
    </contour>
  </outline>
</glyph>
<glyph name="cha-deva" format="1">
  <advance width="728"/>
  <unicode hex="091B"/>
  <outline>
    <contour>
      <point x="663" y="-85"/>
      <point x="704" y="-22"/>
      <point x="704" y="49" type="curve"/>
      <point x="704" y="224"/>
      <point x="417" y="216"/>
      <point x="417" y="362" type="curve" smooth="yes"/>
      <point x="417" y="416"/>
      <point x="457" y="433"/>
      <point x="489" y="433" type="curve" smooth="yes"/>
      <point x="544" y="433"/>
      <point x="591" y="393"/>
      <point x="591" y="309" type="curve" smooth="yes"/>
      <point x="591" y="188"/>
      <point x="443" y="52"/>
      <point x="281" y="52" type="curve" smooth="yes"/>
      <point x="218" y="52"/>
      <point x="167" y="78"/>
      <point x="167" y="153" type="curve" smooth="yes"/>
      <point x="167" y="203"/>
      <point x="204" y="239"/>
      <point x="263" y="239" type="curve" smooth="yes"/>
      <point x="284" y="239"/>
      <point x="302" y="237"/>
      <point x="314" y="233" type="curve"/>
      <point x="323" y="273" type="line"/>
      <point x="308" y="280"/>
      <point x="286" y="284"/>
      <point x="261" y="284" type="curve" smooth="yes"/>
      <point x="189" y="284"/>
      <point x="116" y="233"/>
      <point x="116" y="152" type="curve" smooth="yes"/>
      <point x="116" y="65"/>
      <point x="180" y="7"/>
      <point x="282" y="7" type="curve" smooth="yes"/>
      <point x="458" y="7"/>
      <point x="642" y="154"/>
      <point x="642" y="308" type="curve" smooth="yes"/>
      <point x="642" y="421"/>
      <point x="571" y="478"/>
      <point x="489" y="478" type="curve"/>
      <point x="424" y="477"/>
      <point x="366" y="438"/>
      <point x="366" y="362" type="curve" smooth="yes"/>
      <point x="366" y="185"/>
      <point x="653" y="188"/>
      <point x="653" y="49" type="curve"/>
      <point x="653" y="-7"/>
      <point x="618" y="-66"/>
      <point x="581" y="-103" type="curve"/>
      <point x="622" y="-132" type="line"/>
    </contour>
    <contour>
      <point x="208" y="253" type="line"/>
      <point x="127" y="284"/>
      <point x="103" y="311"/>
      <point x="103" y="353" type="curve" smooth="yes"/>
      <point x="103" y="396"/>
      <point x="137" y="424"/>
      <point x="190" y="424" type="curve" smooth="yes"/>
      <point x="216" y="424"/>
      <point x="237" y="419"/>
      <point x="252" y="413" type="curve"/>
      <point x="261" y="454" type="line"/>
      <point x="241" y="463"/>
      <point x="218" y="469"/>
      <point x="189" y="469" type="curve" smooth="yes"/>
      <point x="108" y="469"/>
      <point x="52" y="423"/>
      <point x="52" y="353" type="curve" smooth="yes"/>
      <point x="52" y="287"/>
      <point x="100" y="252"/>
      <point x="171" y="220" type="curve"/>
    </contour>
    <contour>
      <point x="728" y="590" type="line"/>
      <point x="728" y="634" type="line"/>
      <point x="-20" y="634" type="line"/>
      <point x="-20" y="590" type="line"/>
    </contour>
    <contour>
      <point x="514" y="448" type="line"/>
      <point x="514" y="610" type="line"/>
      <point x="463" y="610" type="line"/>
      <point x="463" y="448" type="line"/>
    </contour>
    <contour>
      <point x="298" y="-130" type="move" name="nukta"/>
    </contour>
    <contour>
      <point x="282" y="0" type="move" name="bottom"/>
    </contour>
    <contour>
      <point x="489" y="634" type="move" name="top"/>
    </contour>
  </outline>
</glyph>
<glyph name="uni091C" format="1">
  <advance width="709"/>
  <unicode hex="091C"/>
  <outline>
    <contour>
      <point x="366" y="110"/>
      <point x="430" y="156"/>
      <point x="430" y="231" type="curve" smooth="yes"/>
      <point x="430" y="303"/>
      <point x="372" y="351"/>
      <point x="299" y="392" type="curve"/>
      <point x="294" y="380" type="line"/>
      <point x="569" y="380" type="line"/>
      <point x="569" y="424" type="line"/>
      <point x="243" y="424" type="line"/>
      <point x="230" y="391" type="line"/>
      <point x="319" y="338"/>
      <point x="379" y="294"/>
      <point x="379" y="231" type="curve" smooth="yes"/>
      <point x="379" y="187"/>
      <point x="348" y="154"/>
      <point x="288" y="154" type="curve" smooth="yes"/>
      <point x="185" y="154"/>
      <point x="116" y="265"/>
      <point x="66" y="428" type="curve"/>
      <point x="24" y="407" type="line"/>
      <point x="82" y="226"/>
      <point x="156" y="110"/>
      <point x="294" y="110" type="curve" smooth="yes"/>
    </contour>
    <contour>
      <point x="591" y="0" type="line"/>
      <point x="591" y="610" type="line"/>
      <point x="540" y="610" type="line"/>
      <point x="540" y="0" type="line"/>
    </contour>
    <contour>
      <point x="709" y="590" type="line"/>
      <point x="709" y="634" type="line"/>
      <point x="-20" y="634" type="line"/>
      <point x="-20" y="590" type="line"/>
    </contour>
    <contour>
      <point x="110" y="30" type="move" name="nukta"/>
    </contour>
    <contour>
      <point x="565" y="0" type="move" name="bottom"/>
    </contour>
    <contour>
      <point x="565" y="634" type="move" name="top"/>
    </contour>
  </outline>
</glyph>
<glyph name="uni091D" format="1">
  <advance width="742"/>
  <unicode hex="091D"/>
  <outline>
    <contour>
      <point x="624" y="0" type="line"/>
      <point x="624" y="610" type="line"/>
      <point x="573" y="610" type="line"/>
      <point x="573" y="0" type="line"/>
    </contour>
    <contour>
      <point x="514" y="221"/>
      <point x="564" y="241"/>
      <point x="579" y="254" type="curve"/>
      <point x="579" y="306" type="line"/>
      <point x="552" y="281"/>
      <point x="513" y="266"/>
      <point x="464" y="266" type="curve" smooth="yes"/>
      <point x="429" y="266"/>
      <point x="391" y="275"/>
      <point x="362" y="286" type="curve"/>
      <point x="357" y="244" type="line"/>
      <point x="388" y="231"/>
      <point x="423" y="221"/>
      <point x="464" y="221" type="curve" smooth="yes"/>
    </contour>
    <contour>
      <point x="742" y="590" type="line"/>
      <point x="742" y="634" type="line"/>
      <point x="433" y="634" type="line"/>
      <point x="433" y="590" type="line"/>
    </contour>
    <component base="uni0907"/>
    <contour>
      <point x="118" y="-60" type="move" name="nukta"/>
    </contour>
    <contour>
      <point x="598" y="0" type="move" name="bottom"/>
    </contour>
    <contour>
      <point x="598" y="634" type="move" name="top"/>
    </contour>
  </outline>
</glyph>
<glyph name="nya-deva" format="1">
  <advance width="679"/>
  <unicode hex="091E"/>
  <outline>
    <contour>
      <point x="365" y="150"/>
      <point x="422" y="212"/>
      <point x="422" y="295" type="curve"/>
      <point x="422" y="395"/>
      <point x="353" y="441"/>
      <point x="284" y="441" type="curve" smooth="yes"/>
      <point x="228" y="441"/>
      <point x="187" y="417"/>
      <point x="154" y="388" type="curve"/>
      <point x="179" y="349" type="line"/>
      <point x="209" y="374"/>
      <point x="238" y="396"/>
      <point x="282" y="396" type="curve" smooth="yes"/>
      <point x="334" y="396"/>
      <point x="371" y="355"/>
      <point x="371" y="295" type="curve"/>
      <point x="371" y="239"/>
      <point x="333" y="194"/>
      <point x="254" y="194" type="curve" smooth="yes"/>
      <point x="175" y="194"/>
      <point x="111" y="258"/>
      <point x="41" y="355" type="curve"/>
      <point x="7" y="326" type="line"/>
      <point x="84" y="223"/>
      <point x="154" y="150"/>
      <point x="257" y="150" type="curve" smooth="yes"/>
    </contour>
    <contour>
      <point x="487" y="260"/>
      <point x="537" y="280"/>
      <point x="552" y="293" type="curve"/>
      <point x="552" y="345" type="line"/>
      <point x="525" y="320"/>
      <point x="486" y="305"/>
      <point x="437" y="305" type="curve" smooth="yes"/>
      <point x="421" y="305"/>
      <point x="404" y="307"/>
      <point x="388" y="310" type="curve"/>
      <point x="388" y="265" type="line"/>
      <point x="404" y="262"/>
      <point x="420" y="260"/>
      <point x="437" y="260" type="curve" smooth="yes"/>
    </contour>
    <contour>
      <point x="561" y="0" type="line"/>
      <point x="561" y="610" type="line"/>
      <point x="510" y="610" type="line"/>
      <point x="510" y="0" type="line"/>
    </contour>
    <contour>
      <point x="679" y="590" type="line"/>
      <point x="679" y="634" type="line"/>
      <point x="-20" y="634" type="line"/>
      <point x="-20" y="590" type="line"/>
    </contour>
    <contour>
      <point x="80" y="30" type="move" name="nukta"/>
    </contour>
    <contour>
      <point x="535" y="0" type="move" name="bottom"/>
    </contour>
    <contour>
      <point x="535" y="634" type="move" name="top"/>
    </contour>
  </outline>
</glyph>
<glyph name="uni091F" format="1">
  <advance width="503"/>
  <unicode hex="091F"/>
  <outline>
    <contour>
      <point x="327" y="70"/>
      <point x="404" y="87"/>
      <point x="479" y="128" type="curve"/>
      <point x="460" y="167" type="line"/>
      <point x="392" y="133"/>
      <point x="323" y="115"/>
      <point x="267" y="115" type="curve" smooth="yes"/>
      <point x="165" y="115"/>
      <point x="115" y="168"/>
      <point x="115" y="250" type="curve" smooth="yes"/>
      <point x="115" y="343"/>
      <point x="213" y="396"/>
      <point x="360" y="409" type="curve"/>
      <point x="318" y="449" type="line"/>
      <point x="168" y="427"/>
      <point x="64" y="363"/>
      <point x="64" y="250" type="curve" smooth="yes"/>
      <point x="64" y="135"/>
      <point x="141" y="70"/>
      <point x="267" y="70" type="curve" smooth="yes"/>
    </contour>
    <contour>
      <point x="360" y="409" type="line"/>
      <point x="360" y="610" type="line"/>
      <point x="309" y="610" type="line"/>
      <point x="309" y="409" type="line"/>
    </contour>
    <contour>
      <point x="503" y="590" type="line"/>
      <point x="503" y="634" type="line"/>
      <point x="-20" y="634" type="line"/>
      <point x="-20" y="590" type="line"/>
    </contour>
    <contour>
      <point x="254" y="-60" type="move" name="nukta"/>
    </contour>
    <contour>
      <point x="267" y="70" type="move" name="bottom"/>
    </contour>
    <contour>
      <point x="334" y="634" type="move" name="top"/>
    </contour>
  </outline>
</glyph>
<glyph name="uni0920" format="1">
  <advance width="548"/>
  <unicode hex="0920"/>
  <outline>
    <contour>
      <point x="396" y="53"/>
      <point x="484" y="139"/>
      <point x="484" y="246" type="curve" smooth="yes"/>
      <point x="484" y="332"/>
      <point x="424" y="413"/>
      <point x="327" y="466" type="curve"/>
      <point x="321" y="465" type="line"/>
      <point x="182" y="441"/>
      <point x="64" y="370"/>
      <point x="64" y="244" type="curve" smooth="yes"/>
      <point x="64" y="126"/>
      <point x="152" y="53"/>
      <point x="270" y="53" type="curve" smooth="yes"/>
    </contour>
    <contour>
      <point x="189" y="98"/>
      <point x="115" y="144"/>
      <point x="115" y="245" type="curve" smooth="yes"/>
      <point x="115" y="349"/>
      <point x="225" y="404"/>
      <point x="318" y="415" type="curve"/>
      <point x="358" y="398"/>
      <point x="433" y="327"/>
      <point x="433" y="246" type="curve" smooth="yes"/>
      <point x="433" y="165"/>
      <point x="367" y="98"/>
      <point x="270" y="98" type="curve" smooth="yes"/>
    </contour>
    <contour>
      <point x="371" y="455"/>
      <point x="380" y="481"/>
      <point x="380" y="517" type="curve" smooth="yes"/>
      <point x="380" y="548"/>
      <point x="368" y="574"/>
      <point x="351" y="599" type="curve"/>
      <point x="299" y="599" type="line"/>
      <point x="313" y="577"/>
      <point x="329" y="548"/>
      <point x="329" y="516" type="curve" smooth="yes"/>
      <point x="329" y="489"/>
      <point x="321" y="467"/>
      <point x="309" y="442" type="curve"/>
      <point x="354" y="421" type="line"/>
    </contour>
    <contour>
      <point x="549" y="590" type="line"/>
      <point x="549" y="634" type="line"/>
      <point x="-20" y="634" type="line"/>
      <point x="-20" y="590" type="line"/>
    </contour>
    <contour>
      <point x="264" y="-70" type="move" name="nukta"/>
    </contour>
    <contour>
      <point x="270" y="57" type="move" name="bottom"/>
    </contour>
    <contour>
      <point x="306" y="634" type="move" name="top"/>
    </contour>
  </outline>
</glyph>
<glyph name="dda-deva" format="1">
  <advance width="551"/>
  <unicode hex="0921"/>
  <outline>
    <contour>
      <point x="446" y="14"/>
      <point x="522" y="80"/>
      <point x="522" y="169" type="curve"/>
      <point x="522" y="228"/>
      <point x="485" y="282"/>
      <point x="447" y="312" type="curve"/>
      <point x="389" y="279"/>
      <point x="323" y="268"/>
      <point x="265" y="268" type="curve" smooth="yes"/>
      <point x="188" y="268"/>
      <point x="156" y="301"/>
      <point x="156" y="349" type="curve" smooth="yes"/>
      <point x="156" y="390"/>
      <point x="180" y="416"/>
      <point x="225" y="416" type="curve" smooth="yes"/>
      <point x="445" y="416" type="line"/>
      <point x="445" y="590" type="line"/>
      <point x="551" y="590" type="line"/>
      <point x="551" y="634" type="line"/>
      <point x="-21" y="634" type="line"/>
      <point x="-21" y="590" type="line"/>
      <point x="395" y="590" type="line"/>
      <point x="395" y="460" type="line"/>
      <point x="225" y="460" type="line" smooth="yes"/>
      <point x="145" y="460"/>
      <point x="105" y="412"/>
      <point x="105" y="353" type="curve" smooth="yes"/>
      <point x="105" y="283"/>
      <point x="145" y="223"/>
      <point x="267" y="223" type="curve" smooth="yes"/>
      <point x="331" y="223"/>
      <point x="404" y="238"/>
      <point x="452" y="264" type="curve"/>
      <point x="418" y="262" type="line"/>
      <point x="446" y="248"/>
      <point x="471" y="206"/>
      <point x="471" y="169" type="curve"/>
      <point x="471" y="107"/>
      <point x="416" y="58"/>
      <point x="305" y="58" type="curve" smooth="yes"/>
      <point x="219" y="58"/>
      <point x="137" y="111"/>
      <point x="74" y="205" type="curve"/>
      <point x="37" y="175" type="line"/>
      <point x="108" y="75"/>
      <point x="198" y="14"/>
      <point x="308" y="14" type="curve" smooth="yes"/>
    </contour>
    <contour>
      <point x="308" y="-130" type="move" name="nukta"/>
    </contour>
    <contour>
      <point x="308" y="14" type="move" name="bottom"/>
    </contour>
    <contour>
      <point x="421" y="634" type="move" name="top"/>
    </contour>
  </outline>
</glyph>
<glyph name="ddha-deva" format="1">
  <advance width="527"/>
  <unicode hex="0922"/>
  <outline>
    <contour>
      <point x="393" y="31"/>
      <point x="475" y="77"/>
      <point x="475" y="174" type="curve" smooth="yes"/>
      <point x="475" y="252"/>
      <point x="420" y="303"/>
      <point x="350" y="303" type="curve" smooth="yes"/>
      <point x="281" y="303"/>
      <point x="225" y="253"/>
      <point x="225" y="174" type="curve" smooth="yes"/>
      <point x="225" y="119"/>
      <point x="251" y="80"/>
      <point x="274" y="60" type="curve"/>
      <point x="322" y="62" type="line"/>
      <point x="295" y="87"/>
      <point x="276" y="129"/>
      <point x="276" y="173" type="curve" smooth="yes"/>
      <point x="276" y="229"/>
      <point x="310" y="258"/>
      <point x="350" y="258" type="curve"/>
      <point x="391" y="258"/>
      <point x="424" y="230"/>
      <point x="424" y="173" type="curve" smooth="yes"/>
      <point x="424" y="112"/>
      <point x="383" y="72"/>
      <point x="306" y="72" type="curve" smooth="yes"/>
      <point x="236" y="72"/>
      <point x="101" y="147"/>
      <point x="101" y="299" type="curve" smooth="yes"/>
      <point x="101" y="360"/>
      <point x="145" y="416"/>
      <point x="255" y="416" type="curve" smooth="yes"/>
      <point x="396" y="416" type="line"/>
      <point x="396" y="620" type="line"/>
      <point x="346" y="620" type="line"/>
      <point x="346" y="460" type="line"/>
      <point x="255" y="460" type="line" smooth="yes"/>
      <point x="112" y="460"/>
      <point x="50" y="390"/>
      <point x="50" y="298" type="curve" smooth="yes"/>
      <point x="50" y="139"/>
      <point x="189" y="31"/>
      <point x="306" y="31" type="curve" smooth="yes"/>
    </contour>
    <contour>
      <point x="527" y="590" type="line"/>
      <point x="527" y="634" type="line"/>
      <point x="-20" y="634" type="line"/>
      <point x="-20" y="590" type="line"/>
    </contour>
    <contour>
      <point x="294" y="-100" type="move" name="nukta"/>
    </contour>
    <contour>
      <point x="306" y="31" type="move" name="bottom"/>
    </contour>
    <contour>
      <point x="371" y="634" type="move" name="top"/>
    </contour>
  </outline>
</glyph>
<glyph name="uni0923" format="1">
  <advance width="737"/>
  <unicode hex="0923"/>
  <outline>
    <contour>
      <point x="317" y="197"/>
      <point x="387" y="248"/>
      <point x="387" y="344" type="curve" smooth="yes"/>
      <point x="387" y="605" type="line"/>
      <point x="336" y="605" type="line"/>
      <point x="336" y="343" type="line" smooth="yes"/>
      <point x="336" y="285"/>
      <point x="302" y="242"/>
      <point x="241" y="242" type="curve"/>
      <point x="180" y="242"/>
      <point x="146" y="285"/>
      <point x="146" y="343" type="curve" smooth="yes"/>
      <point x="146" y="605" type="line"/>
      <point x="95" y="605" type="line"/>
      <point x="95" y="344" type="line" smooth="yes"/>
      <point x="95" y="248"/>
      <point x="165" y="197"/>
      <point x="241" y="197" type="curve"/>
    </contour>
    <contour>
      <point x="619" y="0" type="line"/>
      <point x="619" y="610" type="line"/>
      <point x="568" y="610" type="line"/>
      <point x="568" y="0" type="line"/>
    </contour>
    <contour>
      <point x="737" y="590" type="line"/>
      <point x="737" y="634" type="line"/>
      <point x="-20" y="634" type="line"/>
      <point x="-20" y="590" type="line"/>
    </contour>
    <contour>
      <point x="124" y="0" type="move" name="nukta"/>
    </contour>
    <contour>
      <point x="592" y="0" type="move" name="bottom"/>
    </contour>
    <contour>
      <point x="592" y="634" type="move" name="top"/>
    </contour>
  </outline>
</glyph>
<glyph name="ta-deva" format="1">
  <advance width="574"/>
  <unicode hex="0924"/>
  <outline>
    <contour>
      <point x="270" y="35" type="line"/>
      <point x="186" y="118"/>
      <point x="122" y="194"/>
      <point x="122" y="285" type="curve" smooth="yes"/>
      <point x="122" y="347"/>
      <point x="161" y="380"/>
      <point x="230" y="380" type="curve" smooth="yes"/>
      <point x="428" y="380" type="line"/>
      <point x="428" y="424" type="line"/>
      <point x="229" y="424" type="line" smooth="yes"/>
      <point x="115" y="424"/>
      <point x="70" y="366"/>
      <point x="71" y="285" type="curve" smooth="yes"/>
      <point x="72" y="178"/>
      <point x="160" y="74"/>
      <point x="237" y="1" type="curve"/>
    </contour>
    <contour>
      <point x="456" y="0" type="line"/>
      <point x="456" y="610" type="line"/>
      <point x="406" y="610" type="line"/>
      <point x="406" y="0" type="line"/>
    </contour>
    <contour>
      <point x="574" y="590" type="line"/>
      <point x="574" y="634" type="line"/>
      <point x="-20" y="634" type="line"/>
      <point x="-20" y="590" type="line"/>
    </contour>
    <contour>
      <point x="72" y="0" type="move" name="nukta"/>
    </contour>
    <contour>
      <point x="431" y="0" type="move" name="bottom"/>
    </contour>
    <contour>
      <point x="431" y="634" type="move" name="top"/>
    </contour>
  </outline>
</glyph>
<glyph name="uni0925" format="1">
  <advance width="636"/>
  <unicode hex="0925"/>
  <outline>
    <contour>
      <point x="358" y="147"/>
      <point x="430" y="198"/>
      <point x="475" y="241" type="curve"/>
      <point x="477" y="303" type="line"/>
      <point x="428" y="244"/>
      <point x="345" y="192"/>
      <point x="270" y="192" type="curve" smooth="yes"/>
      <point x="196" y="192"/>
      <point x="149" y="232"/>
      <point x="131" y="293" type="curve"/>
      <point x="120" y="269" type="line"/>
      <point x="241" y="313"/>
      <point x="303" y="403"/>
      <point x="303" y="488" type="curve" smooth="yes"/>
      <point x="303" y="586"/>
      <point x="252" y="649"/>
      <point x="171" y="649" type="curve" smooth="yes"/>
      <point x="100" y="649"/>
      <point x="52" y="603"/>
      <point x="52" y="538" type="curve" smooth="yes"/>
      <point x="52" y="465"/>
      <point x="107" y="395"/>
      <point x="236" y="408" type="curve"/>
      <point x="258" y="452" type="line"/>
      <point x="125" y="440"/>
      <point x="103" y="499"/>
      <point x="103" y="538" type="curve" smooth="yes"/>
      <point x="103" y="579"/>
      <point x="134" y="604"/>
      <point x="171" y="604" type="curve" smooth="yes"/>
      <point x="224" y="604"/>
      <point x="252" y="553"/>
      <point x="252" y="490" type="curve" smooth="yes"/>
      <point x="252" y="407"/>
      <point x="204" y="341"/>
      <point x="76" y="304" type="curve"/>
      <point x="100" y="204"/>
      <point x="172" y="147"/>
      <point x="270" y="147" type="curve" smooth="yes"/>
    </contour>
    <contour>
      <point x="518" y="0" type="line"/>
      <point x="518" y="610" type="line"/>
      <point x="468" y="610" type="line"/>
      <point x="468" y="0" type="line"/>
    </contour>
    <contour>
      <point x="636" y="590" type="line"/>
      <point x="636" y="634" type="line"/>
      <point x="337" y="634" type="line"/>
      <point x="337" y="590" type="line"/>
    </contour>
    <contour>
      <point x="90" y="71" type="move" name="nukta"/>
    </contour>
    <contour>
      <point x="492" y="0" type="move" name="bottom"/>
    </contour>
    <contour>
      <point x="492" y="634" type="move" name="top"/>
    </contour>
  </outline>
</glyph>
<glyph name="uni0926" format="1">
  <advance width="537"/>
  <unicode hex="0926"/>
  <outline>
    <contour>
      <point x="497" y="-62" type="line"/>
      <point x="408" y="122" type="line"/>
      <point x="382" y="131" type="line"/>
      <point x="350" y="117"/>
      <point x="321" y="112"/>
      <point x="290" y="112" type="curve" smooth="yes"/>
      <point x="207" y="112"/>
      <point x="117" y="168"/>
      <point x="117" y="285" type="curve" smooth="yes"/>
      <point x="117" y="357"/>
      <point x="156" y="416"/>
      <point x="268" y="416" type="curve" smooth="yes"/>
      <point x="392" y="416" type="line"/>
      <point x="392" y="610" type="line"/>
      <point x="342" y="610" type="line"/>
      <point x="342" y="460" type="line"/>
      <point x="269" y="460" type="line" smooth="yes"/>
      <point x="127" y="460"/>
      <point x="65" y="388"/>
      <point x="65" y="285" type="curve" smooth="yes"/>
      <point x="65" y="145"/>
      <point x="178" y="67"/>
      <point x="288" y="67" type="curve" smooth="yes"/>
      <point x="381" y="67"/>
      <point x="450" y="112"/>
      <point x="450" y="178" type="curve" smooth="yes"/>
      <point x="450" y="209"/>
      <point x="430" y="240"/>
      <point x="391" y="240" type="curve" smooth="yes"/>
      <point x="365" y="240"/>
      <point x="336" y="221"/>
      <point x="320" y="197" type="curve"/>
      <point x="454" y="-84" type="line"/>
    </contour>
    <contour>
      <point x="537" y="590" type="line"/>
      <point x="537" y="634" type="line"/>
      <point x="-20" y="634" type="line"/>
      <point x="-20" y="590" type="line"/>
    </contour>
    <contour>
      <point x="278" y="-50" type="move" name="nukta"/>
    </contour>
    <contour>
      <point x="462" y="-44" type="move" name="bottom"/>
    </contour>
    <contour>
      <point x="366" y="634" type="move" name="top"/>
    </contour>
  </outline>
</glyph>
<glyph name="uni0928" format="1">
  <advance width="558"/>
  <unicode hex="0928"/>
  <outline>
    <contour>
      <point x="155" y="350" type="line"/>
      <point x="134" y="332" type="line"/>
      <point x="434" y="332" type="line"/>
      <point x="434" y="376" type="line"/>
      <point x="128" y="376" type="line" smooth="yes"/>
      <point x="73" y="376"/>
      <point x="46" y="359"/>
      <point x="46" y="323" type="curve" smooth="yes"/>
      <point x="46" y="273"/>
      <point x="95" y="237"/>
      <point x="155" y="259" type="curve"/>
    </contour>
    <contour>
      <point x="440" y="0" type="line"/>
      <point x="440" y="610" type="line"/>
      <point x="389" y="610" type="line"/>
      <point x="389" y="0" type="line"/>
    </contour>
    <contour>
      <point x="558" y="590" type="line"/>
      <point x="558" y="634" type="line"/>
      <point x="-20" y="634" type="line"/>
      <point x="-20" y="590" type="line"/>
    </contour>
    <contour>
      <point x="213" y="70" type="move" name="nukta"/>
    </contour>
    <contour>
      <point x="414" y="0" type="move" name="bottom"/>
    </contour>
    <contour>
      <point x="414" y="634" type="move" name="top"/>
    </contour>
  </outline>
</glyph>
<glyph name="uni092A" format="1">
  <advance width="543"/>
  <unicode hex="092A"/>
  <outline>
    <contour>
      <point x="299" y="200"/>
      <point x="344" y="224"/>
      <point x="382" y="257" type="curve"/>
      <point x="378" y="308" type="line"/>
      <point x="338" y="271"/>
      <point x="297" y="246"/>
      <point x="240" y="246" type="curve" smooth="yes"/>
      <point x="184" y="246"/>
      <point x="147" y="279"/>
      <point x="147" y="351" type="curve" smooth="yes"/>
      <point x="147" y="610" type="line"/>
      <point x="96" y="610" type="line"/>
      <point x="96" y="352" type="line" smooth="yes"/>
      <point x="96" y="255"/>
      <point x="145" y="200"/>
      <point x="239" y="200" type="curve" smooth="yes"/>
    </contour>
    <contour>
      <point x="425" y="0" type="line"/>
      <point x="425" y="610" type="line"/>
      <point x="374" y="610" type="line"/>
      <point x="374" y="0" type="line"/>
    </contour>
    <contour>
      <point x="543" y="590" type="line"/>
      <point x="543" y="634" type="line"/>
      <point x="-20" y="634" type="line"/>
      <point x="-20" y="590" type="line"/>
    </contour>
    <contour>
      <point x="143" y="70" type="move" name="nukta"/>
    </contour>
    <contour>
      <point x="399" y="0" type="move" name="bottom"/>
    </contour>
    <contour>
      <point x="399" y="634" type="move" name="top"/>
    </contour>
  </outline>
</glyph>
